{
.appVersion = "3258";
.formatVersion = 3;
customParameters = (
{
name = vendorID;
value = XXXX;
},
{
name = panose;
value = (
0,
0,
0,
0,
0,
0,
0,
0,
0,
0
);
},
{
name = unicodeRanges;
value = (
0,
1,
2,
3,
31,
33,
35,
38
);
},
{
name = codePageRanges;
value = (
"1252",
"1250"
);
},
{
name = fsType;
value = (
);
},
{
name = glyphOrder;
value = (
.notdef,
null,
controlLF,
controlCR,
space,
exclam,
quotedbl,
numbersign,
dollar,
percent,
ampersand,
quotesingle,
parenleft,
parenright,
asterisk,
plus,
comma,
hyphen,
period,
slash,
zero,
one,
two,
three,
four,
five,
six,
seven,
eight,
nine,
colon,
semicolon,
less,
equal,
greater,
question,
at,
A,
B,
C,
D,
E,
F,
G,
H,
I,
J,
K,
L,
M,
N,
O,
P,
Q,
R,
S,
T,
U,
V,
W,
X,
Y,
Z,
bracketleft,
backslash,
bracketright,
asciicircum,
underscore,
a,
b,
c,
d,
e,
f,
g,
h,
i,
j,
k,
l,
m,
n,
o,
p,
q,
r,
s,
t,
u,
v,
w,
x,
y,
z,
braceleft,
verticalbar,
braceright,
asciitilde,
nonbreakingspace,
cent,
sterling,
currency,
yen,
brokenbar,
section,
copyright,
guillemotleft,
logicalnot,
softhyphen,
registered,
degree,
plusminus,
twosuperior,
threesuperior,
paragraph,
periodcentered,
onesuperior,
guillemotright,
onequarter,
onehalf,
threequarters,
multiply,
divide,
florin,
endash,
emdash,
quoteleft,
quoteright,
quotedblleft,
quotedblright,
dagger,
daggerdbl,
bullet,
ellipsis,
perthousand,
guilsinglleft,
guilsinglright,
fraction,
Euro,
trademark,
minus
);
}
);
date = "2023-11-23 20:45:18 +0000";
familyName = Nibz;
fontMaster = (
{
customParameters = (
{
name = typoAscender;
value = 900;
},
{
name = typoDescender;
value = -200;
},
{
name = typoLineGap;
value = 0;
},
{
name = winAscent;
value = 921;
},
{
name = winDescent;
value = 305;
},
{
name = hheaAscender;
value = 900;
},
{
name = hheaDescender;
value = -200;
},
{
name = strikeoutPosition;
value = 258;
},
{
name = strikeoutSize;
value = 49;
}
);
id = m01;
metricValues = (
{
pos = 900;
},
{
pos = 700;
},
{
pos = 500;
},
{
},
{
pos = -200;
},
{
}
);
name = Regular;
}
);
glyphs = (
{
glyphname = exclam;
kernRight = exclam;
lastChange = "2023-11-27 14:43:06 +0000";
layers = (
{
layerId = m01;
shapes = (
{
closed = 1;
nodes = (
(320,91,o),
(322,89,o),
(323,90,cs),
(451,243,l),
(452,367,o),
(471,490,o),
(470,614,cs),
(470,661,o),
(463,708,o),
(450,752,cs),
(440,786,o),
(424,820,o),
(398,844,cs),
(386,855,o),
(372,867,o),
(357,873,cs),
(340,881,o),
(319,882,o),
(301,880,cs),
(272,877,o),
(244,871,o),
(219,857,cs),
(199,846,o),
(182,831,o),
(167,814,cs),
(126,765,o),
(85,716,o),
(43,667,cs),
(29,650,o),
(19,630,o),
(12,609,cs),
(5,585,o),
(5,560,o),
(7,536,cs),
(10,464,o),
(33,392,o),
(66,329,cs),
(118,229,o),
(193,143,o),
(267,57,cs),
(269,55,o),
(279,47,o),
(281,45,c),
(320,91,l)
);
},
{
closed = 1;
nodes = (
(151,644,o),
(147,677,o),
(148,709,c),
(180,718,o),
(218,721,o),
(247,706,cs),
(254,703,o),
(260,699,o),
(265,693,cs),
(299,654,o),
(313,600,o),
(321,550,cs),
(334,469,o),
(326,386,o),
(320,305,c),
(248,395,o),
(181,498,o),
(158,612,cs)
);
},
{
closed = 1;
nodes = (
(519,1,o),
(496,60,o),
(473,119,cs),
(472,122,o),
(462,129,o),
(459,132,c),
(416,81,o),
(373,30,o),
(331,-22,c),
(354,-81,o),
(376,-140,o),
(401,-198,cs),
(402,-201,o),
(412,-208,o),
(415,-210,c),
(457,-159,o),
(500,-108,o),
(543,-57,c)
);
}
);
width = 524;
}
);
note = exclam;
unicode = 33;
},
{
glyphname = quotedbl;
kernRight = quotedbl;
lastChange = "2023-11-27 14:43:15 +0000";
layers = (
{
layerId = m01;
shapes = (
{
closed = 1;
nodes = (
(542,534,o),
(524,566,o),
(520,573,cs),
(481,645,ls),
(451,705,o),
(429,770,o),
(401,831,c),
(400,832,o),
(406,836,o),
(404,837,cs),
(403,838,o),
(393,847,o),
(391,848,cs),
(390,849,o),
(385,849,o),
(384,848,cs),
(256,695,l),
(259,688,o),
(262,681,o),
(266,673,cs),
(287,626,o),
(305,576,o),
(327,529,cs),
(336,509,o),
(388,410,o),
(400,392,cs),
(405,385,o),
(413,380,o),
(419,375,c),
(548,528,l)
);
},
{
closed = 1;
nodes = (
(262,515,o),
(261,524,o),
(258,532,cs),
(245,568,o),
(225,601,o),
(210,635,cs),
(199,662,o),
(189,689,o),
(179,716,cs),
(175,726,o),
(160,762,o),
(152,769,cs),
(147,774,o),
(142,778,o),
(136,783,c),
(7,628,ls),
(4,625,o),
(14,622,o),
(17,618,c),
(35,586,o),
(45,551,o),
(59,517,cs),
(77,469,o),
(103,424,o),
(121,376,cs),
(124,367,o),
(133,362,o),
(140,356,c),
(269,510,l)
);
}
);
width = 554;
}
);
note = quotedbl;
unicode = (34,8222,8223);
},
{
glyphname = numbersign;
kernLeft = numbersign;
kernRight = numbersign;
lastChange = "2023-11-27 14:43:19 +0000";
layers = (
{
layerId = m01;
shapes = (
{
closed = 1;
nodes = (
(255,105,o),
(277,142,o),
(295,180,c),
(375,191,o),
(459,182,o),
(535,157,c),
(525,129,o),
(470,6,o),
(453,-17,cs),
(449,-23,o),
(423,-53,o),
(419,-58,c),
(420,-60,o),
(431,-69,o),
(432,-70,c),
(437,-67,o),
(442,-63,o),
(445,-59,cs),
(462,-40,o),
(563,81,o),
(579,100,cs),
(587,110,o),
(593,120,o),
(599,131,c),
(623,119,o),
(646,106,o),
(667,91,cs),
(691,75,o),
(708,50,o),
(722,26,cs),
(724,23,o),
(734,15,o),
(737,13,c),
(780,64,o),
(823,115,o),
(865,166,c),
(857,180,o),
(849,194,o),
(839,206,cs),
(829,217,o),
(817,228,o),
(805,237,cs),
(769,268,o),
(726,291,o),
(682,309,c),
(697,349,o),
(711,390,o),
(723,431,c),
(762,425,o),
(801,416,o),
(836,398,cs),
(840,396,o),
(859,385,o),
(862,382,cs),
(871,375,o),
(877,364,o),
(879,353,cs),
(880,349,o),
(890,343,o),
(893,340,c),
(936,391,o),
(979,442,o),
(1021,493,c),
(1019,505,o),
(1013,515,o),
(1005,523,cs),
(982,547,o),
(953,565,o),
(922,576,cs),
(872,593,o),
(819,599,o),
(766,603,c),
(777,660,o),
(783,718,o),
(785,776,cs),
(785,796,o),
(785,816,o),
(786,836,cs),
(786,842,o),
(787,864,o),
(790,869,cs),
(791,870,o),
(794,871,o),
(792,872,c),
(786,877,o),
(781,887,o),
(776,881,cs),
(734,830,o),
(691,779,o),
(648,728,cs),
(647,727,o),
(646,720,o),
(646,719,cs),
(644,704,o),
(642,620,o),
(641,604,c),
(562,601,o),
(482,591,o),
(405,572,c),
(416,641,o),
(427,710,o),
(433,780,cs),
(433,788,o),
(436,831,o),
(437,838,c),
(438,840,o),
(443,843,o),
(441,844,cs),
(440,845,o),
(430,854,o),
(428,855,c),
(427,854,o),
(425,855,o),
(425,854,c),
(409,835,o),
(311,718,o),
(296,699,c),
(295,694,o),
(293,667,o),
(292,662,c),
(289,617,o),
(283,571,o),
(277,526,c),
(242,509,o),
(208,488,o),
(174,467,cs),
(168,463,o),
(162,458,o),
(154,456,c),
(25,303,l),
(27,301,o),
(37,293,o),
(39,291,c),
(45,292,ls),
(48,292,o),
(49,295,o),
(51,297,c),
(83,317,o),
(116,338,o),
(150,355,cs),
(185,373,o),
(221,387,o),
(258,398,c),
(253,365,o),
(247,332,o),
(241,299,c),
(204,285,o),
(168,269,o),
(133,252,c),
(126,250,o),
(120,246,o),
(116,241,cs),
(73,190,o),
(30,139,o),
(-12,88,cs),
(-18,81,o),
(-7,75,o),
(0,69,c),
(3,72,o),
(12,85,o),
(15,86,cs),
(75,114,ls),
(117,132,o),
(160,148,o),
(204,160,c),
(183,98,o),
(156,37,o),
(121,-19,cs),
(103,-49,o),
(79,-75,o),
(56,-102,c),
(58,-103,o),
(69,-112,o),
(70,-113,c),
(91,-91,o),
(208,49,o),
(228,73,cs)
);
},
{
closed = 1;
nodes = (
(459,437,o),
(540,443,o),
(619,440,c),
(612,405,o),
(604,371,o),
(594,337,c),
(517,354,o),
(434,352,o),
(357,335,c),
(366,365,o),
(374,395,o),
(380,425,c)
);
}
);
width = 1004;
}
);
note = numbersign;
unicode = 35;
},
{
glyphname = dollar;
lastChange = "2023-11-27 14:43:22 +0000";
layers = (
{
layerId = m01;
shapes = (
{
closed = 1;
nodes = (
(462,-25,o),
(443,-2,o),
(428,23,c),
(445,42,o),
(543,160,o),
(559,180,cs),
(581,206,o),
(592,243,o),
(592,278,cs),
(592,298,o),
(589,320,o),
(580,339,cs),
(574,352,o),
(565,364,o),
(554,373,cs),
(542,383,o),
(530,393,o),
(516,400,cs),
(493,411,o),
(467,416,o),
(441,420,cs),
(389,427,o),
(335,426,o),
(283,433,cs),
(250,438,o),
(217,446,o),
(190,464,cs),
(178,472,o),
(171,484,o),
(165,496,cs),
(153,520,o),
(149,547,o),
(148,574,c),
(182,582,o),
(217,584,o),
(251,584,cs),
(289,584,o),
(327,567,o),
(358,545,cs),
(404,512,o),
(442,467,o),
(490,437,c),
(619,590,l),
(617,592,o),
(606,601,o),
(603,603,cs),
(578,619,o),
(556,640,o),
(533,660,cs),
(498,691,o),
(461,723,o),
(417,740,cs),
(393,749,o),
(366,750,o),
(340,749,cs),
(317,748,o),
(293,745,o),
(270,740,c),
(251,763,o),
(230,786,o),
(217,813,cs),
(208,832,o),
(202,852,o),
(199,872,cs),
(198,876,o),
(188,882,o),
(185,885,c),
(142,834,o),
(99,783,o),
(57,731,c),
(60,710,o),
(67,688,o),
(76,669,cs),
(86,651,o),
(98,634,o),
(111,618,c),
(86,589,o),
(61,559,o),
(37,530,cs),
(24,515,o),
(14,495,o),
(10,475,cs),
(3,437,o),
(4,394,o),
(21,358,cs),
(33,332,o),
(57,310,o),
(83,295,cs),
(115,276,o),
(153,270,o),
(190,266,cs),
(236,261,o),
(283,261,o),
(329,255,cs),
(360,250,o),
(392,243,o),
(418,225,c),
(419,225,o),
(423,221,o),
(423,220,c),
(445,195,o),
(451,157,o),
(449,124,c),
(404,104,o),
(350,104,o),
(304,123,cs),
(290,129,o),
(276,137,o),
(264,146,cs),
(248,159,o),
(236,177,o),
(227,195,cs),
(226,198,o),
(216,205,o),
(213,207,c),
(170,156,o),
(127,105,o),
(85,54,c),
(118,-11,o),
(186,-54,o),
(258,-56,c),
(269,-87,o),
(283,-117,o),
(302,-144,cs),
(317,-164,o),
(335,-183,o),
(355,-199,c),
(483,-46,l)
);
}
);
width = 617;
}
);
note = dollar;
unicode = 36;
},
{
glyphname = percent;
lastChange = "2023-11-27 14:43:30 +0000";
layers = (
{
layerId = m01;
shapes = (
{
closed = 1;
nodes = (
(254,99,o),
(285,139,o),
(317,178,cs),
(334,199,o),
(445,328,o),
(462,349,cs),
(504,398,o),
(745,688,o),
(784,739,cs),
(810,773,o),
(836,807,o),
(856,844,c),
(843,855,l),
(800,804,o),
(757,753,o),
(714,702,c),
(699,678,ls),
(678,646,o),
(656,615,o),
(632,585,cs),
(617,565,o),
(524,451,o),
(508,432,cs),
(463,380,o),
(418,328,o),
(374,276,cs),
(275,157,o),
(173,41,o),
(82,-84,cs),
(81,-85,o),
(78,-87,o),
(79,-88,cs),
(81,-89,o),
(91,-98,o),
(93,-99,c),
(110,-79,o),
(209,38,o),
(225,59,cs)
);
},
{
closed = 1;
nodes = (
(200,307,o),
(242,335,o),
(274,371,cs),
(291,390,o),
(393,512,o),
(409,532,cs),
(449,579,o),
(474,642,o),
(477,703,cs),
(478,727,o),
(475,754,o),
(463,776,c),
(456,786,o),
(429,810,o),
(418,815,cs),
(387,828,o),
(349,825,o),
(317,817,cs),
(288,809,o),
(261,793,o),
(239,774,c),
(235,778,o),
(231,781,o),
(227,784,c),
(216,773,o),
(206,763,o),
(195,751,cs),
(174,727,o),
(55,585,o),
(35,558,cs),
(6,519,o),
(-3,467,o),
(-4,418,cs),
(-4,387,o),
(3,353,o),
(23,329,cs),
(37,311,o),
(56,295,o),
(78,288,cs),
(102,281,o),
(131,283,o),
(155,291,cs)
);
},
{
closed = 1;
nodes = (
(167,467,o),
(156,483,o),
(154,488,cs),
(132,529,o),
(137,581,o),
(146,626,cs),
(147,629,o),
(154,632,o),
(157,634,cs),
(177,646,o),
(200,652,o),
(223,656,cs),
(249,660,o),
(278,660,o),
(303,650,cs),
(329,640,o),
(335,591,o),
(335,563,cs),
(335,534,o),
(327,505,o),
(317,478,c),
(291,462,o),
(261,451,o),
(231,449,cs),
(211,447,o),
(187,450,o),
(171,464,cs)
);
},
{
closed = 1;
nodes = (
(718,17,o),
(761,68,o),
(804,120,cs),
(825,145,o),
(837,176,o),
(845,207,cs),
(855,249,o),
(858,294,o),
(851,336,cs),
(846,365,o),
(836,396,o),
(816,417,cs),
(800,434,o),
(777,448,o),
(754,451,cs),
(719,456,o),
(683,453,o),
(649,444,c),
(520,290,l),
(520,290,o),
(522,290,o),
(521,289,cs),
(490,253,o),
(456,218,o),
(436,175,cs),
(426,155,o),
(423,132,o),
(423,110,cs),
(424,57,o),
(443,-1,o),
(480,-39,cs),
(496,-54,o),
(514,-70,o),
(535,-76,cs),
(582,-90,o),
(643,-72,o),
(674,-35,cs)
);
},
{
closed = 1;
nodes = (
(621,104,o),
(608,121,o),
(605,126,cs),
(573,171,o),
(558,232,o),
(568,286,c),
(600,291,o),
(635,292,o),
(664,279,cs),
(687,270,o),
(698,241,o),
(704,218,cs),
(714,175,o),
(715,129,o),
(707,86,c),
(680,81,o),
(648,86,o),
(625,101,cs)
);
}
);
width = 863;
}
);
note = percent;
unicode = 37;
},
{
glyphname = ampersand;
lastChange = "2023-11-27 14:43:46 +0000";
layers = (
{
layerId = m01;
shapes = (
{
closed = 1;
nodes = (
(828,81,o),
(819,90,o),
(816,91,cs),
(733,127,o),
(654,174,o),
(581,227,c),
(598,254,o),
(614,282,o),
(628,311,c),
(680,280,o),
(768,255,o),
(809,301,cs),
(826,319,o),
(923,436,o),
(939,456,c),
(937,457,o),
(927,466,o),
(925,467,c),
(907,447,o),
(875,440,o),
(848,441,cs),
(807,444,o),
(760,469,o),
(695,526,c),
(652,475,o),
(609,424,o),
(567,373,c),
(555,337,o),
(543,301,o),
(529,266,c),
(452,327,o),
(381,398,o),
(322,476,c),
(342,497,o),
(449,626,o),
(467,648,cs),
(486,670,o),
(503,695,o),
(510,723,cs),
(515,746,o),
(512,771,o),
(502,792,cs),
(493,811,o),
(477,826,o),
(461,839,cs),
(429,865,o),
(381,874,o),
(341,868,cs),
(305,862,o),
(269,849,o),
(243,825,cs),
(222,804,o),
(120,680,o),
(101,657,cs),
(76,628,o),
(69,583,o),
(77,545,cs),
(91,485,o),
(119,427,o),
(152,374,c),
(140,360,o),
(65,270,o),
(53,255,cs),
(29,226,o),
(9,191,o),
(3,153,cs),
(-4,113,o),
(10,67,o),
(35,35,cs),
(65,-5,o),
(108,-37,o),
(154,-54,cs),
(185,-65,o),
(218,-74,o),
(251,-73,cs),
(286,-73,o),
(323,-58,o),
(352,-37,cs),
(392,-9,o),
(423,32,o),
(455,71,c),
(532,14,o),
(615,-36,o),
(702,-74,c),
(831,79,l)
);
},
{
closed = 1;
nodes = (
(247,706,o),
(278,705,o),
(307,695,cs),
(322,690,o),
(338,683,o),
(348,670,cs),
(368,643,o),
(374,610,o),
(366,577,c),
(294,517,l),
(258,573,o),
(227,636,o),
(217,701,c)
);
},
{
closed = 1;
nodes = (
(257,113,o),
(217,132,o),
(188,163,cs),
(156,197,o),
(137,250,o),
(145,296,cs),
(147,308,o),
(151,320,o),
(155,331,cs),
(157,335,o),
(168,343,o),
(171,346,c),
(238,252,o),
(324,171,o),
(415,100,c),
(378,88,o),
(335,91,o),
(297,102,cs)
);
}
);
width = 921;
}
);
note = ampersand;
unicode = 38;
},
{
glyphname = quotesingle;
kernRight = quotesingle;
lastChange = "2023-11-27 14:43:54 +0000";
layers = (
{
layerId = m01;
shapes = (
{
closed = 1;
nodes = (
(267,477,ls),
(265,479,o),
(260,490,o),
(258,493,c),
(218,578,o),
(176,665,o),
(158,757,cs),
(156,772,o),
(151,787,o),
(154,802,cs),
(154,803,o),
(156,805,o),
(155,805,c),
(154,807,o),
(144,815,o),
(142,817,c),
(126,798,o),
(27,680,o),
(12,661,c),
(7,638,o),
(29,560,o),
(36,537,cs),
(59,470,o),
(89,404,o),
(121,341,cs),
(124,334,o),
(142,320,o),
(148,316,c),
(276,469,l)
);
}
);
width = 281;
}
);
note = quotesingle;
unicode = (39,8218,8219);
},
{
glyphname = parenleft;
layers = (
{
layerId = m01;
shapes = (
{
closed = 1;
nodes = (
(363,174,o),
(354,183,o),
(351,184,cs),
(291,205,o),
(235,252,o),
(206,308,cs),
(162,396,o),
(146,503,o),
(165,599,cs),
(173,641,o),
(189,682,o),
(210,719,cs),
(211,721,o),
(212,720,o),
(213,721,cs),
(256,771,o),
(298,822,o),
(341,873,c),
(336,877,o),
(325,887,o),
(319,887,c),
(316,886,o),
(314,883,o),
(311,881,c),
(289,859,o),
(176,721,o),
(156,697,cs),
(125,661,o),
(96,624,o),
(71,584,cs),
(35,524,o),
(15,454,o),
(15,384,cs),
(15,303,o),
(32,218,o),
(74,148,cs),
(91,122,o),
(113,100,o),
(137,80,cs),
(167,55,o),
(200,32,o),
(237,19,c),
(280,70,o),
(323,121,o),
(365,172,c)
);
}
);
width = 347;
}
);
note = parenleft;
unicode = 40;
},
{
glyphname = parenright;
kernRight = parenright;
layers = (
{
layerId = m01;
shapes = (
{
closed = 1;
nodes = (
(155,109,o),
(264,237,o),
(281,262,cs),
(306,298,o),
(326,339,o),
(338,381,cs),
(355,438,o),
(354,500,o),
(344,557,cs),
(338,591,o),
(328,625,o),
(312,656,cs),
(298,682,o),
(278,705,o),
(257,726,cs),
(218,763,o),
(174,794,o),
(131,825,cs),
(123,831,o),
(117,837,o),
(110,842,c),
(67,791,o),
(24,740,o),
(-19,689,c),
(-16,680,o),
(-7,673,o),
(1,667,cs),
(2,666,o),
(3,670,o),
(5,669,c),
(38,642,o),
(75,621,o),
(106,592,cs),
(131,569,o),
(154,544,o),
(170,514,cs),
(191,475,o),
(201,430,o),
(206,386,cs),
(209,354,o),
(211,322,o),
(207,291,cs),
(202,257,o),
(192,224,o),
(179,193,c),
(178,192,o),
(178,192,o),
(178,191,c),
(136,142,o),
(95,93,o),
(54,44,c),
(55,42,o),
(66,34,o),
(67,32,c),
(92,47,o),
(117,63,o),
(135,85,cs)
);
}
);
width = 363;
}
);
note = parenright;
unicode = 41;
},
{
glyphname = asterisk;
kernLeft = asterisk;
lastChange = "2023-11-27 14:44:02 +0000";
layers = (
{
layerId = m01;
shapes = (
{
closed = 1;
nodes = (
(791,39,ls),
(790,43,o),
(782,55,o),
(780,58,cs),
(592,317,l),
(638,317,o),
(685,316,o),
(730,311,cs),
(753,309,o),
(775,304,o),
(797,296,c),
(925,450,l),
(923,452,o),
(914,461,o),
(911,462,cs),
(880,472,o),
(847,476,o),
(815,478,cs),
(714,485,o),
(612,482,o),
(512,468,c),
(542,523,o),
(572,578,o),
(590,638,cs),
(599,667,o),
(604,700,o),
(594,729,cs),
(583,760,o),
(555,784,o),
(529,805,cs),
(506,822,o),
(482,837,o),
(456,849,cs),
(431,860,o),
(387,876,o),
(370,854,cs),
(354,835,o),
(256,720,o),
(240,700,cs),
(224,680,o),
(222,617,o),
(227,591,cs),
(237,536,o),
(259,484,o),
(285,434,c),
(227,429,o),
(168,429,o),
(111,439,c),
(-18,286,l),
(-16,284,o),
(-6,276,o),
(-5,274,c),
(-2,273,o),
(6,272,o),
(9,272,cs),
(48,267,o),
(87,264,o),
(126,266,cs),
(203,270,o),
(278,285,o),
(353,297,c),
(304,211,o),
(251,126,o),
(191,47,cs),
(181,34,o),
(114,-45,o),
(104,-59,c),
(105,-61,o),
(116,-69,o),
(118,-71,c),
(210,39,o),
(308,146,o),
(388,265,c),
(444,182,o),
(503,101,o),
(562,21,cs),
(572,7,o),
(629,-71,o),
(638,-85,cs),
(640,-88,o),
(648,-99,o),
(648,-103,cs),
(649,-108,o),
(659,-114,o),
(662,-117,c),
(791,36,l)
);
},
{
closed = 1;
nodes = (
(414,641,o),
(437,621,o),
(448,596,cs),
(458,574,o),
(459,549,o),
(455,526,c),
(431,568,o),
(409,611,o),
(391,656,c)
);
}
);
width = 907;
}
);
note = asterisk;
unicode = 42;
},
{
glyphname = plus;
layers = (
{
layerId = m01;
shapes = (
{
closed = 1;
nodes = (
(394,255,o),
(392,300,o),
(389,346,c),
(404,345,o),
(496,340,o),
(510,339,cs),
(512,339,o),
(522,337,o),
(523,338,cs),
(566,389,o),
(608,439,o),
(651,490,c),
(648,493,o),
(638,502,o),
(634,503,cs),
(598,508,o),
(412,514,o),
(376,514,c),
(373,556,o),
(371,597,o),
(369,639,cs),
(368,659,o),
(367,763,o),
(363,783,cs),
(363,784,o),
(364,784,o),
(364,785,c),
(361,791,o),
(354,796,o),
(348,800,c),
(306,749,o),
(263,698,o),
(220,647,c),
(222,637,o),
(223,627,o),
(224,617,cs),
(224,603,o),
(226,515,o),
(227,501,c),
(201,497,o),
(127,488,o),
(111,468,cs),
(68,417,o),
(26,366,o),
(-17,315,c),
(-15,314,o),
(-5,306,o),
(-4,304,c),
(-2,303,o),
(3,304,o),
(5,304,cs),
(8,304,o),
(13,314,o),
(15,315,cs),
(28,320,o),
(41,323,o),
(54,326,cs),
(113,338,o),
(175,346,o),
(236,348,c),
(243,255,o),
(255,161,o),
(250,67,c),
(251,66,o),
(262,57,o),
(263,56,c),
(306,107,o),
(349,158,o),
(392,209,c)
);
}
);
width = 634;
}
);
note = plus;
unicode = 43;
},
{
glyphname = comma;
kernLeft = comma;
layers = (
{
layerId = m01;
shapes = (
{
closed = 1;
nodes = (
(120,-85,o),
(164,-59,o),
(194,-23,cs),
(237,28,o),
(280,78,o),
(322,129,cs),
(344,155,o),
(360,186,o),
(367,219,cs),
(374,254,o),
(375,291,o),
(372,326,cs),
(370,353,o),
(369,381,o),
(357,405,cs),
(350,419,o),
(337,429,o),
(325,439,cs),
(298,462,o),
(252,465,o),
(220,449,cs),
(199,439,o),
(181,422,o),
(166,403,cs),
(125,354,o),
(83,305,o),
(42,256,cs),
(26,237,o),
(12,214,o),
(7,190,cs),
(5,176,o),
(6,161,o),
(11,148,cs),
(19,129,o),
(35,115,o),
(50,102,cs),
(64,90,o),
(85,82,o),
(103,85,cs),
(108,86,o),
(121,88,o),
(124,92,cs),
(159,132,o),
(193,173,o),
(227,214,c),
(232,169,o),
(234,124,o),
(225,80,c),
(206,71,o),
(164,53,o),
(146,64,c),
(104,13,o),
(61,-38,o),
(18,-89,c),
(26,-95,o),
(34,-105,o),
(44,-105,cs),
(54,-105,o),
(64,-101,o),
(74,-99,c)
);
},
{
closed = 1;
nodes = (
(165,265,o),
(156,280,o),
(152,295,c),
(165,295,o),
(197,287,o),
(206,277,cs),
(212,269,o),
(217,260,o),
(220,250,c),
(206,248,o),
(190,251,o),
(178,258,cs)
);
}
);
width = 388;
}
);
note = comma;
unicode = 44;
},
{
glyphname = hyphen;
kernLeft = hyphen;
kernRight = hyphen;
layers = (
{
layerId = m01;
shapes = (
{
closed = 1;
nodes = (
(376,348,o),
(419,399,o),
(462,450,c),
(458,453,o),
(451,463,o),
(447,462,cs),
(428,459,o),
(409,457,o),
(391,458,cs),
(324,460,o),
(257,466,o),
(190,463,cs),
(173,463,o),
(157,460,o),
(141,459,c),
(140,458,o),
(139,461,o),
(138,461,cs),
(136,461,o),
(134,459,o),
(133,458,cs),
(90,407,o),
(48,356,o),
(5,305,c),
(8,302,o),
(17,293,o),
(21,293,cs),
(32,294,o),
(42,296,o),
(52,297,cs),
(121,303,o),
(191,297,o),
(261,294,cs),
(285,292,o),
(309,293,o),
(333,297,c)
);
}
);
width = 467;
}
);
note = hyphen;
unicode = 45;
},
{
glyphname = period;
kernLeft = period;
lastChange = "2024-02-25 02:22:13 +0000";
layers = (
{
layerId = m01;
shapes = (
{
closed = 1;
nodes = (
(221,-94,o),
(238,-81,o),
(250,-66,cs),
(292,-16,o),
(333,33,o),
(374,82,cs),
(402,115,o),
(411,164,o),
(409,207,cs),
(408,227,o),
(404,249,o),
(393,267,cs),
(384,282,o),
(370,295,o),
(356,305,cs),
(334,320,o),
(307,325,o),
(281,326,cs),
(271,327,o),
(250,328,o),
(244,321,c),
(232,319,o),
(221,311,o),
(213,303,cs),
(204,295,o),
(195,287,o),
(188,278,cs),
(171,259,o),
(69,137,o),
(52,117,cs),
(37,98,o),
(23,76,o),
(20,53,cs),
(15,17,o),
(30,-23,o),
(54,-50,cs),
(73,-71,o),
(97,-90,o),
(124,-100,cs),
(149,-108,o),
(177,-109,o),
(202,-101,cs)
);
},
{
closed = 1;
nodes = (
(201,85,o),
(189,101,o),
(186,106,cs),
(176,122,o),
(168,139,o),
(164,157,c),
(164,159,o),
(170,156,o),
(172,157,cs),
(174,158,o),
(174,161,o),
(176,161,cs),
(196,159,o),
(216,155,o),
(233,145,cs),
(240,141,o),
(245,136,o),
(248,129,c),
(261,109,o),
(266,83,o),
(267,59,c),
(245,62,o),
(223,69,o),
(205,82,cs)
);
}
);
width = 410;
}
);
note = period;
unicode = 46;
},
{
glyphname = slash;
kernLeft = slash;
kernRight = slash;
layers = (
{
layerId = m01;
shapes = (
{
closed = 1;
nodes = (
(111,106,o),
(112,110,o),
(112,111,c),
(143,191,o),
(177,271,o),
(208,351,cs),
(234,418,o),
(259,486,o),
(286,553,cs),
(306,601,o),
(327,648,o),
(345,696,cs),
(359,733,o),
(370,771,o),
(383,808,c),
(384,813,o),
(399,828,o),
(402,831,c),
(399,834,o),
(391,843,o),
(387,843,cs),
(383,842,o),
(379,841,o),
(376,837,cs),
(333,787,o),
(291,736,o),
(248,685,cs),
(246,682,o),
(245,679,o),
(244,676,cs),
(230,635,o),
(217,594,o),
(202,554,cs),
(179,493,o),
(153,434,o),
(129,375,cs),
(106,316,o),
(84,256,o),
(61,197,cs),
(49,168,o),
(-21,-7,o),
(-32,-37,c),
(-30,-38,o),
(-20,-47,o),
(-18,-48,c),
(25,3,o),
(68,54,o),
(110,105,cs)
);
}
);
width = 328;
}
);
note = slash;
unicode = 47;
},
{
glyphname = zero;
kernLeft = zero;
layers = (
{
layerId = m01;
shapes = (
{
closed = 1;
nodes = (
(553,4,o),
(594,53,o),
(636,101,cs),
(665,137,o),
(691,178,o),
(706,222,cs),
(712,240,o),
(718,260,o),
(720,279,cs),
(724,313,o),
(718,347,o),
(709,380,cs),
(684,474,o),
(630,564,o),
(557,628,cs),
(535,647,o),
(512,665,o),
(487,679,cs),
(458,695,o),
(426,707,o),
(393,710,cs),
(372,712,o),
(350,707,o),
(331,699,cs),
(285,682,o),
(244,652,o),
(211,616,cs),
(192,596,o),
(85,468,o),
(67,446,cs),
(47,422,o),
(31,395,o),
(19,367,cs),
(3,330,o),
(5,286,o),
(12,247,cs),
(30,146,o),
(82,45,o),
(159,-22,cs),
(185,-44,o),
(212,-66,o),
(242,-82,cs),
(283,-103,o),
(329,-119,o),
(375,-119,cs),
(427,-118,o),
(479,-85,o),
(512,-45,cs)
);
},
{
closed = 1;
nodes = (
(408,53,o),
(339,83,o),
(291,129,cs),
(233,186,o),
(192,254,o),
(168,331,cs),
(151,387,o),
(140,452,o),
(160,506,c),
(189,525,o),
(222,539,o),
(257,544,cs),
(280,548,o),
(304,542,o),
(326,535,cs),
(362,523,o),
(396,504,o),
(423,478,cs),
(468,437,o),
(505,385,o),
(532,330,cs),
(552,288,o),
(568,244,o),
(575,198,cs),
(579,176,o),
(581,153,o),
(577,130,cs),
(573,107,o),
(566,85,o),
(557,63,c),
(532,51,o),
(502,44,o),
(474,46,cs)
);
},
{
closed = 1;
nodes = (
(447,344,o),
(427,382,o),
(407,420,cs),
(405,423,o),
(395,431,o),
(393,433,c),
(350,382,o),
(307,331,o),
(264,280,c),
(284,241,o),
(304,203,o),
(324,164,cs),
(325,162,o),
(336,154,o),
(338,153,c),
(381,204,o),
(424,255,o),
(466,306,c)
);
}
);
width = 729;
}
);
note = zero;
unicode = 48;
},
{
glyphname = one;
kernLeft = one;
kernRight = one;
layers = (
{
layerId = m01;
shapes = (
{
closed = 1;
nodes = (
(326,-78,o),
(380,-56,o),
(427,-25,c),
(429,-23,o),
(441,-15,o),
(442,-13,c),
(485,38,o),
(528,89,o),
(570,139,c),
(569,141,o),
(558,150,o),
(557,151,c),
(526,128,o),
(493,110,o),
(457,96,cs),
(398,74,o),
(332,65,o),
(269,70,c),
(299,106,o),
(330,143,o),
(360,179,c),
(325,275,o),
(291,373,o),
(276,474,cs),
(261,572,o),
(263,674,o),
(276,772,cs),
(276,774,o),
(275,774,o),
(275,774,c),
(275,775,o),
(276,775,o),
(276,776,c),
(271,780,o),
(267,783,o),
(262,787,c),
(222,739,o),
(181,691,o),
(141,643,cs),
(138,639,o),
(114,619,o),
(111,615,cs),
(68,564,o),
(26,513,o),
(-17,462,c),
(-15,461,o),
(-5,452,o),
(-3,451,c),
(47,494,o),
(87,547,o),
(130,598,c),
(120,511,o),
(120,422,o),
(133,336,cs),
(146,248,o),
(173,163,o),
(203,79,c),
(182,84,o),
(161,90,o),
(140,98,c),
(97,47,o),
(54,-4,o),
(11,-56,c),
(14,-58,o),
(23,-66,o),
(26,-67,cs),
(103,-96,o),
(190,-104,o),
(270,-89,cs)
);
}
);
width = 551;
}
);
note = one;
unicode = 49;
},
{
glyphname = two;
kernLeft = two;
layers = (
{
layerId = m01;
shapes = (
{
closed = 1;
nodes = (
(859,89,o),
(866,149,o),
(867,208,cs),
(868,260,o),
(863,313,o),
(846,363,cs),
(845,366,o),
(835,373,o),
(832,375,c),
(789,324,o),
(747,273,o),
(704,222,c),
(717,185,o),
(723,145,o),
(724,106,c),
(626,157,o),
(521,195,o),
(413,218,c),
(460,245,o),
(505,276,o),
(540,316,cs),
(557,335,o),
(658,456,o),
(675,476,cs),
(694,499,o),
(710,526,o),
(716,555,cs),
(721,576,o),
(721,599,o),
(716,620,cs),
(707,653,o),
(686,685,o),
(660,707,cs),
(619,742,o),
(571,771,o),
(519,787,cs),
(481,799,o),
(439,806,o),
(399,800,cs),
(375,796,o),
(350,783,o),
(334,764,cs),
(291,714,o),
(249,663,o),
(206,612,cs),
(187,590,o),
(181,558,o),
(182,529,cs),
(185,458,o),
(213,389,o),
(244,326,cs),
(245,323,o),
(256,315,o),
(258,313,c),
(301,364,o),
(344,415,o),
(387,466,c),
(361,521,o),
(338,578,o),
(328,637,c),
(394,632,o),
(461,608,o),
(514,568,cs),
(545,545,o),
(567,510,o),
(575,473,cs),
(579,453,o),
(578,431,o),
(574,411,c),
(471,342,o),
(351,297,o),
(231,268,cs),
(198,260,o),
(165,254,o),
(131,250,cs),
(129,250,o),
(129,248,o),
(128,247,c),
(125,246,o),
(111,249,o),
(109,247,cs),
(66,196,o),
(24,145,o),
(-19,94,c),
(-16,92,o),
(-8,83,o),
(-4,83,cs),
(126,83,o),
(258,68,o),
(383,32,cs),
(501,-2,o),
(614,-56,o),
(718,-122,c),
(760,-71,o),
(803,-20,o),
(846,31,c)
);
}
);
width = 879;
}
);
note = two;
unicode = 50;
},
{
glyphname = three;
kernLeft = three;
layers = (
{
layerId = m01;
shapes = (
{
closed = 1;
nodes = (
(555,22,o),
(583,43,o),
(605,69,cs),
(622,89,o),
(724,211,o),
(741,231,cs),
(789,288,o),
(811,373,o),
(804,448,cs),
(801,476,o),
(797,505,o),
(782,528,cs),
(767,552,o),
(742,572,o),
(716,581,cs),
(696,587,o),
(675,587,o),
(654,586,cs),
(594,583,o),
(532,566,o),
(479,536,c),
(541,610,o),
(594,691,o),
(656,764,c),
(651,768,o),
(647,772,o),
(642,776,c),
(580,759,o),
(518,743,o),
(454,732,cs),
(403,723,o),
(350,718,o),
(298,724,cs),
(263,727,o),
(228,737,o),
(199,757,c),
(156,706,o),
(113,655,o),
(70,604,c),
(86,590,o),
(104,579,o),
(124,572,cs),
(166,557,o),
(213,555,o),
(257,557,cs),
(338,562,o),
(418,582,o),
(497,603,c),
(486,589,o),
(421,503,o),
(410,490,cs),
(367,439,o),
(325,388,o),
(282,338,c),
(284,336,o),
(294,327,o),
(296,326,c),
(345,362,o),
(399,395,o),
(459,410,cs),
(507,421,o),
(602,437,o),
(632,397,cs),
(643,382,o),
(652,364,o),
(656,346,cs),
(668,290,o),
(663,228,o),
(645,173,c),
(593,143,o),
(533,125,o),
(473,122,cs),
(445,120,o),
(417,120,o),
(390,125,cs),
(338,136,o),
(286,159,o),
(245,194,cs),
(198,234,o),
(160,290,o),
(146,350,cs),
(139,375,o),
(138,402,o),
(141,428,c),
(139,429,o),
(129,438,o),
(127,440,c),
(85,388,o),
(42,337,o),
(-1,286,c),
(-6,250,o),
(-1,210,o),
(14,176,cs),
(33,128,o),
(65,84,o),
(104,51,cs),
(124,34,o),
(144,17,o),
(166,4,cs),
(204,-19,o),
(246,-36,o),
(289,-42,cs),
(369,-51,o),
(455,-33,o),
(526,6,cs)
);
}
);
width = 812;
}
);
note = three;
unicode = 51;
},
{
glyphname = four;
kernLeft = four;
kernRight = four;
layers = (
{
layerId = m01;
shapes = (
{
closed = 1;
nodes = (
(535,95,o),
(525,163,o),
(521,231,c),
(554,231,o),
(588,239,o),
(617,253,cs),
(654,270,o),
(686,298,o),
(712,329,cs),
(729,350,o),
(828,466,o),
(844,488,cs),
(848,494,o),
(852,500,o),
(853,507,c),
(851,509,o),
(841,517,o),
(839,519,c),
(819,495,o),
(799,470,o),
(778,446,cs),
(771,438,o),
(736,419,o),
(726,415,cs),
(700,403,o),
(672,397,o),
(643,396,cs),
(603,395,o),
(564,405,o),
(525,415,c),
(533,494,o),
(548,572,o),
(573,646,cs),
(596,714,o),
(628,781,o),
(673,837,c),
(671,838,o),
(660,847,o),
(659,848,c),
(642,829,o),
(544,713,o),
(528,693,cs),
(472,622,o),
(436,534,o),
(413,447,c),
(341,465,o),
(264,476,o),
(191,462,c),
(197,469,o),
(237,516,o),
(243,524,cs),
(275,563,o),
(300,608,o),
(313,656,cs),
(324,698,o),
(325,744,o),
(315,785,cs),
(314,789,o),
(304,796,o),
(301,798,c),
(258,747,o),
(215,696,o),
(172,645,c),
(187,585,o),
(177,518,o),
(151,462,c),
(138,453,o),
(124,444,o),
(110,436,c),
(67,385,o),
(24,334,o),
(-19,283,c),
(-14,279,o),
(-10,275,o),
(-5,272,c),
(47,294,o),
(105,305,o),
(161,303,cs),
(236,301,o),
(309,279,o),
(381,259,c),
(371,135,o),
(377,7,o),
(411,-112,cs),
(412,-115,o),
(422,-122,o),
(425,-124,c),
(468,-73,o),
(511,-22,o),
(554,29,c)
);
}
);
width = 835;
}
);
note = four;
unicode = 52;
},
{
glyphname = five;
kernRight = five;
layers = (
{
layerId = m01;
shapes = (
{
closed = 1;
nodes = (
(620,33,o),
(663,84,o),
(705,135,cs),
(729,164,o),
(748,198,o),
(760,233,cs),
(768,255,o),
(774,277,o),
(777,299,cs),
(780,335,o),
(776,373,o),
(761,405,cs),
(740,451,o),
(692,488,o),
(641,496,cs),
(586,505,o),
(527,490,o),
(475,469,cs),
(397,437,o),
(325,388,o),
(262,332,c),
(243,392,o),
(231,455,o),
(223,518,c),
(335,529,o),
(443,566,o),
(555,575,cs),
(575,577,o),
(596,576,o),
(617,577,cs),
(645,577,o),
(674,577,o),
(702,572,cs),
(725,568,o),
(748,559,o),
(766,544,c),
(809,596,o),
(852,647,o),
(894,698,c),
(880,710,o),
(865,722,o),
(847,729,cs),
(816,741,o),
(782,742,o),
(748,742,cs),
(714,741,o),
(680,742,o),
(646,738,cs),
(527,724,o),
(411,682,o),
(291,680,cs),
(280,680,o),
(269,679,o),
(259,681,cs),
(235,686,o),
(210,696,o),
(191,712,cs),
(166,733,o),
(147,761,o),
(131,790,cs),
(130,792,o),
(137,797,o),
(136,798,cs),
(129,803,o),
(123,809,o),
(115,813,c),
(114,813,o),
(112,812,o),
(111,811,cs),
(95,793,o),
(-1,676,o),
(-17,658,c),
(6,615,o),
(39,575,o),
(78,546,cs),
(99,531,o),
(123,519,o),
(148,516,c),
(124,487,o),
(99,458,o),
(75,428,c),
(80,380,o),
(86,331,o),
(95,283,cs),
(103,245,o),
(114,208,o),
(126,172,cs),
(127,169,o),
(137,162,o),
(140,160,c),
(220,233,o),
(315,297,o),
(419,324,cs),
(454,333,o),
(491,337,o),
(526,331,cs),
(549,328,o),
(572,321,o),
(589,306,cs),
(606,293,o),
(616,272,o),
(623,252,cs),
(635,221,o),
(638,185,o),
(634,152,cs),
(631,130,o),
(624,108,o),
(616,87,c),
(565,63,o),
(502,54,o),
(446,67,cs),
(417,74,o),
(387,87,o),
(366,110,cs),
(334,144,o),
(317,194,o),
(317,240,cs),
(317,245,o),
(306,250,o),
(303,253,c),
(260,202,o),
(217,151,o),
(174,100,c),
(175,53,o),
(191,1,o),
(224,-33,cs),
(253,-62,o),
(290,-87,o),
(330,-97,cs),
(418,-120,o),
(518,-87,o),
(577,-17,cs)
);
}
);
width = 873;
}
);
note = five;
unicode = 53;
},
{
glyphname = six;
kernLeft = zero;
layers = (
{
layerId = m01;
shapes = (
{
closed = 1;
nodes = (
(445,-63,o),
(491,-26,o),
(527,17,cs),
(544,38,o),
(652,165,o),
(669,187,cs),
(693,217,o),
(712,251,o),
(726,287,cs),
(736,312,o),
(743,339,o),
(743,366,cs),
(744,402,o),
(738,439,o),
(724,472,cs),
(716,493,o),
(704,515,o),
(687,530,cs),
(673,544,o),
(658,557,o),
(640,565,cs),
(622,572,o),
(601,574,o),
(582,573,cs),
(553,571,o),
(524,568,o),
(498,557,cs),
(482,550,o),
(467,540,o),
(456,527,cs),
(414,476,o),
(371,425,o),
(328,374,cs),
(312,355,o),
(306,328,o),
(305,303,cs),
(304,223,o),
(325,141,o),
(364,71,c),
(329,84,o),
(297,106,o),
(272,133,cs),
(217,196,o),
(177,275,o),
(158,357,cs),
(144,418,o),
(154,487,o),
(181,543,c),
(260,601,o),
(364,631,o),
(462,632,c),
(505,683,o),
(547,734,o),
(590,785,c),
(587,787,o),
(579,796,o),
(576,796,cs),
(496,796,o),
(413,777,o),
(343,738,cs),
(296,712,o),
(253,677,o),
(218,636,cs),
(200,615,o),
(96,491,o),
(79,470,cs),
(38,417,o),
(12,349,o),
(9,282,cs),
(7,241,o),
(19,199,o),
(33,160,cs),
(64,72,o),
(120,-17,o),
(199,-69,cs),
(230,-89,o),
(266,-104,o),
(303,-105,cs),
(334,-105,o),
(366,-98,o),
(394,-86,cs)
);
},
{
closed = 1;
nodes = (
(472,276,o),
(454,342,o),
(449,407,c),
(469,409,o),
(491,410,o),
(511,405,cs),
(528,400,o),
(545,390,o),
(556,376,cs),
(581,343,o),
(594,300,o),
(600,258,cs),
(605,214,o),
(594,166,o),
(575,125,c),
(545,150,o),
(521,184,o),
(503,218,cs)
);
}
);
width = 748;
}
);
note = six;
unicode = 54;
},
{
glyphname = seven;
kernRight = seven;
layers = (
{
layerId = m01;
shapes = (
{
closed = 1;
nodes = (
(516,114,o),
(476,230,o),
(479,344,cs),
(481,404,o),
(493,466,o),
(520,520,c),
(566,554,o),
(619,583,o),
(675,594,cs),
(681,595,o),
(687,596,o),
(693,596,c),
(736,647,o),
(779,698,o),
(822,749,c),
(819,752,o),
(810,761,o),
(807,761,cs),
(751,765,o),
(694,757,o),
(639,746,cs),
(558,730,o),
(479,708,o),
(397,696,cs),
(339,688,o),
(277,687,o),
(220,703,cs),
(180,714,o),
(142,734,o),
(110,761,c),
(67,710,o),
(24,659,o),
(-19,608,c),
(16,578,o),
(56,553,o),
(100,540,cs),
(153,524,o),
(211,523,o),
(266,530,cs),
(357,540,o),
(445,567,o),
(534,583,c),
(518,564,o),
(427,457,o),
(413,437,cs),
(388,401,o),
(367,361,o),
(355,320,cs),
(339,266,o),
(334,209,o),
(339,153,cs),
(346,55,o),
(381,-41,o),
(424,-130,c),
(426,-133,o),
(436,-140,o),
(438,-142,c),
(481,-91,o),
(524,-39,o),
(567,12,c)
);
}
);
width = 758;
}
);
note = seven;
unicode = 55;
},
{
glyphname = eight;
kernLeft = eight;
kernRight = eight;
layers = (
{
layerId = m01;
shapes = (
{
closed = 1;
nodes = (
(280,-129,o),
(318,-120,o),
(353,-105,cs),
(403,-82,o),
(451,-48,o),
(486,-5,cs),
(532,49,o),
(577,102,o),
(622,156,cs),
(643,182,o),
(661,211,o),
(675,240,cs),
(695,280,o),
(703,330,o),
(690,371,cs),
(676,415,o),
(638,452,o),
(598,474,cs),
(555,499,o),
(504,507,o),
(455,498,c),
(472,518,o),
(489,539,o),
(506,559,cs),
(530,587,o),
(550,621,o),
(555,657,cs),
(563,701,o),
(544,753,o),
(510,782,cs),
(487,801,o),
(461,821,o),
(432,824,cs),
(382,830,o),
(328,827,o),
(282,808,cs),
(254,796,o),
(228,778,o),
(209,755,cs),
(166,704,o),
(123,654,o),
(81,603,cs),
(34,548,o),
(12,439,o),
(54,380,cs),
(64,366,o),
(78,354,o),
(92,343,cs),
(107,331,o),
(124,322,o),
(142,317,c),
(132,304,o),
(69,230,o),
(59,218,cs),
(23,174,o),
(6,107,o),
(22,53,cs),
(34,11,o),
(59,-27,o),
(91,-55,cs),
(118,-79,o),
(146,-101,o),
(178,-116,cs),
(198,-125,o),
(220,-132,o),
(242,-131,cs)
);
},
{
closed = 1;
nodes = (
(244,486,o),
(216,499,o),
(211,505,c),
(188,527,o),
(174,559,o),
(174,590,cs),
(175,609,o),
(176,629,o),
(179,647,c),
(236,666,o),
(341,674,o),
(379,628,cs),
(395,609,o),
(407,587,o),
(412,563,cs),
(416,542,o),
(415,520,o),
(410,499,c),
(361,470,o),
(304,464,o),
(252,483,cs)
);
},
{
closed = 1;
nodes = (
(322,36,o),
(299,45,o),
(278,56,cs),
(234,79,o),
(197,119,o),
(176,163,cs),
(160,196,o),
(155,236,o),
(162,273,c),
(215,299,o),
(272,316,o),
(329,331,cs),
(389,346,o),
(456,333,o),
(504,296,cs),
(505,295,o),
(506,294,o),
(507,293,cs),
(531,271,o),
(548,239,o),
(553,206,cs),
(558,169,o),
(548,130,o),
(532,96,c),
(497,72,o),
(458,53,o),
(417,42,cs),
(393,37,o),
(369,32,o),
(345,34,cs)
);
}
);
width = 688;
}
);
note = eight;
unicode = 56;
},
{
glyphname = nine;
kernLeft = nine;
layers = (
{
layerId = m01;
shapes = (
{
closed = 1;
nodes = (
(488,-6,o),
(540,37,o),
(581,86,cs),
(601,109,o),
(715,245,o),
(734,269,cs),
(753,295,o),
(771,322,o),
(784,352,cs),
(805,399,o),
(814,453,o),
(808,504,cs),
(802,559,o),
(778,612,o),
(746,657,cs),
(724,688,o),
(695,714,o),
(666,738,cs),
(631,768,o),
(590,788,o),
(546,799,cs),
(515,806,o),
(480,801,o),
(449,790,cs),
(397,770,o),
(348,737,o),
(312,695,cs),
(289,668,o),
(174,535,o),
(157,505,cs),
(138,473,o),
(124,434,o),
(131,397,cs),
(136,370,o),
(155,346,o),
(175,328,cs),
(188,318,o),
(200,307,o),
(214,299,cs),
(279,260,o),
(356,241,o),
(431,231,cs),
(502,223,o),
(576,219,o),
(647,235,c),
(648,236,o),
(654,243,o),
(654,242,c),
(647,223,o),
(639,204,o),
(629,186,c),
(585,151,o),
(531,124,o),
(475,116,cs),
(421,109,o),
(364,120,o),
(314,142,cs),
(240,175,o),
(178,232,o),
(125,293,cs),
(123,295,o),
(113,303,o),
(111,305,c),
(68,254,o),
(25,203,o),
(-18,152,c),
(35,91,o),
(96,33,o),
(167,-6,cs),
(210,-30,o),
(258,-47,o),
(306,-50,cs),
(348,-53,o),
(391,-46,o),
(429,-30,cs)
);
},
{
closed = 1;
nodes = (
(407,426,o),
(358,442,o),
(317,471,cs),
(298,485,o),
(282,507,o),
(275,530,cs),
(269,552,o),
(272,575,o),
(278,597,c),
(310,617,o),
(346,634,o),
(384,637,cs),
(417,640,o),
(451,632,o),
(481,618,cs),
(511,603,o),
(541,585,o),
(565,561,cs),
(611,514,o),
(647,453,o),
(661,389,c),
(592,389,o),
(522,396,o),
(455,413,cs)
);
}
);
width = 816;
}
);
note = nine;
unicode = 57;
},
{
glyphname = colon;
layers = (
{
layerId = m01;
shapes = (
{
closed = 1;
nodes = (
(153,412,o),
(192,427,o),
(216,454,cs),
(233,474,o),
(333,594,o),
(350,614,cs),
(378,647,o),
(385,700,o),
(376,743,cs),
(371,765,o),
(352,786,o),
(331,795,cs),
(317,801,o),
(301,802,o),
(286,802,c),
(280,801,o),
(263,800,o),
(259,796,cs),
(257,794,o),
(248,782,o),
(246,781,cs),
(216,761,o),
(186,740,o),
(163,713,cs),
(120,662,o),
(78,612,o),
(35,561,cs),
(29,554,o),
(24,545,o),
(20,537,cs),
(7,507,o),
(19,456,o),
(44,435,cs),
(47,433,o),
(59,423,o),
(62,421,cs),
(77,410,o),
(98,408,o),
(117,409,cs)
);
},
{
closed = 1;
nodes = (
(172,587,o),
(162,616,o),
(159,629,c),
(159,631,o),
(163,630,o),
(164,631,cs),
(165,632,o),
(168,637,o),
(169,637,cs),
(181,637,o),
(212,635,o),
(221,628,cs),
(231,620,o),
(237,587,o),
(237,574,c),
(220,573,o),
(201,573,o),
(185,581,cs)
);
},
{
closed = 1;
nodes = (
(158,-77,o),
(207,-51,o),
(238,-14,cs),
(281,36,o),
(323,87,o),
(366,138,cs),
(390,167,o),
(406,210,o),
(397,247,cs),
(391,270,o),
(372,289,o),
(352,302,cs),
(341,310,o),
(328,315,o),
(316,320,c),
(319,324,o),
(321,327,o),
(324,330,c),
(323,332,o),
(312,340,o),
(311,341,cs),
(307,345,o),
(301,343,o),
(296,342,cs),
(290,341,o),
(267,328,o),
(262,325,cs),
(244,314,o),
(168,264,o),
(155,248,cs),
(113,199,o),
(72,150,o),
(31,101,cs),
(28,98,o),
(25,94,o),
(22,89,cs),
(5,64,o),
(12,-3,o),
(24,-31,cs),
(31,-48,o),
(45,-61,o),
(59,-71,cs),
(73,-82,o),
(93,-86,o),
(110,-83,cs)
);
},
{
closed = 1;
nodes = (
(163,98,o),
(156,144,o),
(155,165,c),
(161,169,o),
(168,172,o),
(175,175,c),
(178,172,o),
(194,159,o),
(198,157,cs),
(206,154,o),
(235,141,o),
(240,135,cs),
(251,122,o),
(256,105,o),
(257,88,c),
(233,81,o),
(204,77,o),
(182,88,cs)
);
}
);
width = 407;
}
);
note = colon;
unicode = 58;
},
{
glyphname = semicolon;
layers = (
{
layerId = m01;
shapes = (
{
closed = 1;
nodes = (
(163,363,o),
(206,391,o),
(237,426,cs),
(253,446,o),
(354,566,o),
(370,586,cs),
(389,608,o),
(403,636,o),
(408,665,cs),
(412,696,o),
(409,730,o),
(396,758,cs),
(380,794,o),
(341,823,o),
(302,831,cs),
(299,832,o),
(290,843,o),
(287,844,cs),
(282,845,o),
(268,839,o),
(264,837,cs),
(259,835,o),
(242,842,o),
(239,838,cs),
(196,788,o),
(154,737,o),
(111,686,c),
(111,686,o),
(115,683,o),
(114,682,cs),
(87,649,o),
(58,617,o),
(37,579,cs),
(21,551,o),
(10,518,o),
(9,485,cs),
(9,457,o),
(12,428,o),
(23,403,cs),
(32,383,o),
(48,365,o),
(66,355,cs),
(81,346,o),
(101,346,o),
(117,350,cs)
);
},
{
closed = 1;
nodes = (
(177,523,o),
(167,541,o),
(165,547,cs),
(149,585,o),
(147,631,o),
(158,671,c),
(175,669,o),
(193,666,o),
(209,660,cs),
(220,656,o),
(231,651,o),
(238,642,cs),
(263,611,o),
(271,566,o),
(266,527,c),
(244,517,o),
(199,503,o),
(181,520,cs)
);
},
{
closed = 1;
nodes = (
(87,-144,o),
(183,-89,o),
(208,-72,cs),
(227,-59,o),
(247,-46,o),
(262,-29,cs),
(279,-10,o),
(377,108,o),
(393,127,cs),
(405,141,o),
(417,157,o),
(424,174,cs),
(442,220,o),
(445,272,o),
(438,320,cs),
(435,339,o),
(431,357,o),
(422,373,cs),
(415,384,o),
(404,393,o),
(394,401,cs),
(386,408,o),
(373,412,o),
(362,412,cs),
(335,411,o),
(308,400,o),
(284,388,cs),
(260,375,o),
(236,359,o),
(219,339,cs),
(176,288,o),
(133,237,o),
(91,186,cs),
(79,172,o),
(71,153,o),
(70,135,cs),
(70,112,o),
(81,88,o),
(97,72,cs),
(108,61,o),
(119,51,o),
(133,45,cs),
(150,39,o),
(169,39,o),
(187,41,cs),
(197,42,o),
(226,44,o),
(233,52,cs),
(255,79,o),
(277,105,o),
(299,131,c),
(299,112,o),
(297,93,o),
(294,75,c),
(274,63,o),
(194,19,o),
(170,16,c),
(128,-35,o),
(85,-86,o),
(42,-137,c),
(45,-140,o),
(53,-149,o),
(57,-148,cs)
);
},
{
closed = 1;
nodes = (
(232,219,o),
(222,237,o),
(219,243,c),
(237,247,o),
(257,249,o),
(272,241,cs),
(280,237,o),
(288,213,o),
(290,205,c),
(272,204,o),
(253,206,o),
(237,216,cs)
);
}
);
width = 454;
}
);
note = semicolon;
unicode = 59;
},
{
glyphname = less;
layers = (
{
layerId = m01;
shapes = (
{
closed = 1;
nodes = (
(491,131,o),
(503,139,o),
(511,149,cs),
(529,170,o),
(630,288,o),
(646,311,c),
(645,312,o),
(634,321,o),
(632,323,c),
(624,313,o),
(616,301,o),
(604,297,cs),
(584,289,o),
(561,293,o),
(541,297,cs),
(421,323,o),
(311,391,o),
(189,407,c),
(248,459,o),
(305,513,o),
(361,568,c),
(366,574,o),
(372,578,o),
(377,584,cs),
(420,635,o),
(462,686,o),
(505,737,c),
(506,737,o),
(507,739,o),
(506,740,cs),
(505,741,o),
(494,749,o),
(493,751,c),
(465,718,o),
(305,572,o),
(273,544,cs),
(247,522,o),
(221,500,o),
(194,478,cs),
(183,468,o),
(126,421,o),
(116,410,cs),
(73,359,o),
(31,308,o),
(-12,257,cs),
(-14,255,o),
(-16,252,o),
(-14,251,c),
(-11,248,o),
(-2,239,o),
(2,239,cs),
(5,239,o),
(21,243,o),
(24,243,cs),
(73,247,o),
(124,236,o),
(171,220,cs),
(249,195,o),
(324,159,o),
(403,138,cs),
(428,131,o),
(454,126,o),
(479,129,cs)
);
}
);
width = 631;
}
);
note = less;
unicode = 60;
},
{
glyphname = equal;
layers = (
{
layerId = m01;
shapes = (
{
closed = 1;
nodes = (
(285,368,o),
(423,387,o),
(448,391,c),
(450,392,o),
(453,393,o),
(455,395,cs),
(497,445,o),
(540,496,o),
(583,547,c),
(581,552,o),
(570,560,o),
(567,563,cs),
(564,565,o),
(562,556,o),
(559,555,c),
(555,555,o),
(536,552,o),
(533,552,cs),
(465,543,o),
(396,528,o),
(327,530,cs),
(296,531,o),
(264,535,o),
(233,541,cs),
(222,543,o),
(163,557,o),
(152,558,cs),
(149,558,o),
(145,558,o),
(143,556,cs),
(127,537,o),
(29,420,o),
(13,401,c),
(14,401,o),
(14,398,o),
(14,398,c),
(16,396,o),
(27,387,o),
(29,385,c),
(31,384,o),
(36,393,o),
(38,393,cs),
(50,392,o),
(117,376,o),
(129,374,cs),
(172,366,o),
(216,363,o),
(259,366,cs)
);
},
{
closed = 1;
nodes = (
(390,109,o),
(411,120,o),
(434,122,c),
(477,173,o),
(520,224,o),
(563,275,c),
(559,278,o),
(552,287,o),
(548,287,cs),
(525,285,o),
(504,274,o),
(482,267,cs),
(458,259,o),
(433,255,o),
(409,253,cs),
(339,249,o),
(268,255,o),
(200,266,cs),
(191,267,o),
(151,274,o),
(142,273,cs),
(140,273,o),
(138,277,o),
(137,275,c),
(94,225,o),
(52,174,o),
(9,123,c),
(9,123,o),
(9,120,o),
(9,120,c),
(14,115,o),
(20,108,o),
(27,108,cs),
(36,109,o),
(77,102,o),
(86,101,cs),
(137,93,o),
(189,87,o),
(241,87,cs),
(283,87,o),
(327,89,o),
(367,102,cs)
);
}
);
width = 579;
}
);
note = equal;
unicode = 61;
},
{
glyphname = greater;
layers = (
{
layerId = m01;
shapes = (
{
closed = 1;
nodes = (
(132,-49,o),
(178,-15,o),
(210,23,cs),
(276,101,o),
(344,176,o),
(400,261,cs),
(401,262,o),
(407,266,o),
(409,267,cs),
(426,277,o),
(446,284,o),
(466,288,c),
(509,339,o),
(551,390,o),
(594,442,c),
(591,444,o),
(583,453,o),
(579,453,c),
(472,468,o),
(366,518,o),
(283,588,cs),
(218,642,o),
(164,710,o),
(127,786,cs),
(125,789,o),
(115,796,o),
(113,798,c),
(70,747,o),
(27,696,o),
(-16,645,c),
(14,585,o),
(54,530,o),
(101,482,cs),
(183,400,o),
(287,332,o),
(399,302,c),
(376,274,o),
(352,247,o),
(329,219,cs),
(308,194,o),
(289,166,o),
(271,138,c),
(251,124,o),
(227,115,o),
(203,110,cs),
(176,106,o),
(148,109,o),
(121,115,c),
(78,64,o),
(35,13,o),
(-7,-38,c),
(-5,-40,o),
(4,-49,o),
(7,-50,cs),
(32,-56,o),
(57,-58,o),
(82,-55,cs)
);
}
);
width = 576;
}
);
note = greater;
unicode = 62;
},
{
glyphname = question;
kernRight = question;
layers = (
{
layerId = m01;
shapes = (
{
closed = 1;
nodes = (
(324,343,o),
(321,368,o),
(316,391,c),
(365,395,o),
(415,407,o),
(459,431,cs),
(482,444,o),
(503,460,o),
(520,480,cs),
(563,531,o),
(605,582,o),
(648,633,cs),
(673,662,o),
(686,698,o),
(686,736,cs),
(686,746,o),
(684,758,o),
(678,767,cs),
(671,777,o),
(661,784,o),
(652,791,cs),
(633,806,o),
(608,811,o),
(585,815,cs),
(538,821,o),
(490,820,o),
(443,820,cs),
(370,819,o),
(297,816,o),
(225,824,cs),
(177,830,o),
(126,840,o),
(87,869,c),
(44,818,o),
(1,767,o),
(-42,716,c),
(-23,700,o),
(-1,686,o),
(22,678,cs),
(62,664,o),
(104,659,o),
(146,656,cs),
(227,651,o),
(308,656,o),
(389,655,cs),
(417,655,o),
(444,654,o),
(472,650,cs),
(492,646,o),
(513,642,o),
(531,631,cs),
(542,624,o),
(544,595,o),
(543,581,c),
(499,564,o),
(451,556,o),
(403,554,cs),
(333,552,o),
(263,563,o),
(196,583,c),
(153,532,o),
(110,481,o),
(67,430,c),
(104,393,o),
(137,349,o),
(157,300,cs),
(173,262,o),
(181,219,o),
(182,178,c),
(184,176,o),
(194,168,o),
(196,166,c),
(239,217,o),
(281,268,o),
(324,319,c)
);
},
{
closed = 1;
nodes = (
(387,-120,o),
(409,-104,o),
(425,-84,cs),
(442,-65,o),
(544,57,o),
(560,77,cs),
(573,92,o),
(583,111,o),
(586,131,cs),
(589,149,o),
(585,168,o),
(577,184,cs),
(569,199,o),
(557,212,o),
(545,223,cs),
(528,238,o),
(510,251,o),
(490,262,cs),
(466,274,o),
(442,288,o),
(415,288,cs),
(383,289,o),
(351,271,o),
(326,250,cs),
(300,229,o),
(194,99,o),
(172,73,cs),
(152,49,o),
(133,20,o),
(127,-12,cs),
(123,-32,o),
(124,-55,o),
(133,-74,cs),
(141,-94,o),
(158,-109,o),
(175,-121,cs),
(209,-147,o),
(256,-153,o),
(299,-154,cs),
(322,-154,o),
(345,-144,o),
(365,-133,cs)
);
},
{
closed = 1;
nodes = (
(351,17,o),
(334,21,o),
(317,27,cs),
(306,32,o),
(295,38,o),
(288,47,cs),
(272,66,o),
(265,94,o),
(268,118,c),
(289,125,o),
(313,125,o),
(334,116,cs),
(350,109,o),
(367,101,o),
(383,92,cs),
(396,85,o),
(408,77,o),
(418,66,cs),
(430,52,o),
(440,34,o),
(443,16,c),
(419,9,o),
(393,10,o),
(369,14,cs)
);
}
);
width = 663;
}
);
note = question;
unicode = 63;
},
{
glyphname = at;
layers = (
{
layerId = m01;
shapes = (
{
closed = 1;
nodes = (
(567,-110,o),
(594,-92,o),
(614,-69,cs),
(630,-51,o),
(728,66,o),
(743,85,cs),
(754,98,o),
(763,112,o),
(769,127,c),
(768,129,o),
(757,138,o),
(756,139,c),
(735,114,o),
(714,89,o),
(693,64,cs),
(690,61,o),
(674,53,o),
(670,51,cs),
(620,27,o),
(562,21,o),
(507,20,cs),
(448,20,o),
(389,38,o),
(340,72,cs),
(307,94,o),
(279,123,o),
(256,155,cs),
(205,223,o),
(171,308,o),
(162,392,cs),
(158,431,o),
(160,470,o),
(163,509,cs),
(168,568,o),
(179,627,o),
(201,682,c),
(242,705,o),
(288,719,o),
(335,725,cs),
(395,732,o),
(457,730,o),
(517,721,cs),
(570,713,o),
(625,698,o),
(671,670,cs),
(695,655,o),
(715,634,o),
(730,609,cs),
(773,536,o),
(798,448,o),
(799,363,c),
(718,438,o),
(657,531,o),
(593,621,cs),
(592,623,o),
(582,631,o),
(579,633,c),
(579,634,o),
(575,629,o),
(573,627,c),
(525,605,o),
(477,582,o),
(435,550,cs),
(423,541,o),
(411,530,o),
(401,518,cs),
(358,467,o),
(316,416,o),
(273,365,cs),
(267,358,o),
(262,349,o),
(258,340,cs),
(243,306,o),
(265,226,o),
(285,194,cs),
(301,167,o),
(325,143,o),
(352,128,cs),
(378,115,o),
(411,107,o),
(438,117,cs),
(453,122,o),
(464,134,o),
(474,145,cs),
(514,193,o),
(554,240,o),
(594,288,c),
(615,263,o),
(637,239,o),
(661,217,cs),
(688,192,o),
(717,169,o),
(750,153,c),
(767,171,o),
(865,289,o),
(881,308,cs),
(912,345,o),
(930,393,o),
(937,440,cs),
(950,537,o),
(929,643,o),
(883,730,cs),
(873,750,o),
(861,770,o),
(845,786,cs),
(834,797,o),
(822,807,o),
(810,817,cs),
(769,849,o),
(718,868,o),
(667,879,cs),
(611,891,o),
(553,897,o),
(495,894,cs),
(444,891,o),
(391,882,o),
(345,861,cs),
(312,846,o),
(280,826,o),
(255,799,cs),
(236,778,o),
(130,651,o),
(112,629,cs),
(83,594,o),
(62,553,o),
(48,510,cs),
(25,439,o),
(18,362,o),
(18,288,cs),
(18,216,o),
(38,142,o),
(72,79,cs),
(97,33,o),
(127,-11,o),
(166,-45,cs),
(197,-73,o),
(230,-99,o),
(268,-117,cs),
(304,-134,o),
(345,-144,o),
(385,-144,cs),
(437,-145,o),
(491,-140,o),
(539,-121,cs)
);
},
{
closed = 1;
nodes = (
(442,311,o),
(435,323,o),
(427,335,cs),
(409,364,o),
(401,399,o),
(397,433,c),
(417,443,o),
(437,453,o),
(457,462,c),
(458,463,o),
(459,465,o),
(460,463,cs),
(477,432,o),
(495,400,o),
(501,366,cs),
(506,338,o),
(503,309,o),
(500,281,c),
(483,285,o),
(466,291,o),
(453,302,cs)
);
}
);
width = 949;
}
);
note = at;
unicode = 64;
},
{
glyphname = A;
kernRight = A;
layers = (
{
layerId = m01;
shapes = (
{
closed = 1;
nodes = (
(849,113,o),
(817,188,o),
(779,257,cs),
(724,355,o),
(657,445,o),
(602,543,cs),
(560,619,o),
(526,703,o),
(516,790,cs),
(516,794,o),
(505,800,o),
(502,802,c),
(410,784,o),
(319,745,o),
(248,684,cs),
(230,669,o),
(214,652,o),
(199,634,cs),
(183,616,o),
(86,501,o),
(71,482,cs),
(38,442,o),
(16,397,o),
(5,346,cs),
(5,345,o),
(6,345,o),
(6,343,cs),
(-1,287,o),
(10,229,o),
(26,175,cs),
(54,81,o),
(101,-8,o),
(157,-88,cs),
(159,-91,o),
(169,-99,o),
(171,-100,c),
(214,-49,o),
(257,2,o),
(300,53,c),
(259,111,o),
(224,175,o),
(196,241,c),
(240,247,o),
(287,242,o),
(329,229,cs),
(409,205,o),
(481,156,o),
(542,100,cs),
(607,41,o),
(664,-27,o),
(715,-98,c),
(717,-102,o),
(734,-115,o),
(737,-118,c),
(780,-67,o),
(823,-16,o),
(866,35,c)
);
},
{
closed = 1;
nodes = (
(152,509,o),
(158,527,o),
(165,545,c),
(228,588,o),
(301,618,o),
(375,635,c),
(388,547,o),
(425,462,o),
(469,385,c),
(417,405,o),
(357,414,o),
(302,404,c),
(263,358,o),
(224,312,o),
(186,266,c),
(159,337,o),
(139,416,o),
(149,491,cs)
);
}
);
width = 858;
}
);
note = A;
unicode = (65,192,193,194,195,196,197);
},
{
glyphname = B;
kernRight = B;
layers = (
{
layerId = m01;
shapes = (
{
closed = 1;
nodes = (
(569,-62,o),
(601,-40,o),
(625,-11,cs),
(668,39,o),
(711,90,o),
(753,141,cs),
(772,164,o),
(786,192,o),
(791,222,cs),
(805,308,o),
(743,415,o),
(660,444,cs),
(628,456,o),
(591,456,o),
(557,449,cs),
(507,439,o),
(459,415,o),
(417,385,c),
(491,484,o),
(553,592,o),
(602,705,c),
(600,706,o),
(590,715,o),
(588,717,c),
(534,695,o),
(473,687,o),
(415,694,cs),
(360,701,o),
(306,722,o),
(260,753,cs),
(239,767,o),
(220,787,o),
(204,808,cs),
(199,814,o),
(192,818,o),
(187,823,c),
(144,772,o),
(101,721,o),
(58,670,c),
(92,629,o),
(132,592,o),
(179,568,c),
(139,520,o),
(99,472,o),
(59,424,c),
(85,385,o),
(107,344,o),
(121,299,c),
(80,250,o),
(38,200,o),
(-4,150,c),
(53,78,o),
(114,9,o),
(187,-46,cs),
(226,-75,o),
(271,-98,o),
(319,-106,cs),
(391,-117,o),
(468,-106,o),
(535,-77,cs)
);
},
{
closed = 1;
nodes = (
(253,476,o),
(233,516,o),
(210,553,c),
(246,539,o),
(285,529,o),
(324,527,cs),
(367,525,o),
(410,531,o),
(451,544,c),
(407,445,o),
(352,350,o),
(289,262,c),
(288,320,o),
(283,379,o),
(266,434,cs)
);
},
{
closed = 1;
nodes = (
(332,92,o),
(284,129,o),
(243,171,c),
(296,222,o),
(362,265,o),
(433,282,cs),
(469,291,o),
(508,292,o),
(543,280,cs),
(564,273,o),
(584,261,o),
(599,244,cs),
(634,202,o),
(656,142,o),
(650,88,c),
(613,72,o),
(574,62,o),
(534,58,cs),
(485,51,o),
(433,55,o),
(387,72,cs)
);
}
);
width = 791;
}
);
note = B;
unicode = 66;
},
{
glyphname = C;
kernRight = C;
layers = (
{
layerId = m01;
shapes = (
{
closed = 1;
nodes = (
(564,-62,o),
(596,-38,o),
(622,-9,cs),
(639,11,o),
(738,130,o),
(754,149,cs),
(789,191,o),
(813,245,o),
(817,299,cs),
(819,330,o),
(814,362,o),
(802,390,cs),
(783,435,o),
(743,472,o),
(701,497,c),
(658,446,o),
(615,395,o),
(572,344,c),
(589,330,o),
(609,319,o),
(624,303,cs),
(649,277,o),
(665,244,o),
(672,208,cs),
(678,171,o),
(674,132,o),
(662,96,c),
(628,78,o),
(589,68,o),
(550,67,cs),
(484,66,o),
(415,82,o),
(358,114,cs),
(333,127,o),
(309,144,o),
(290,164,cs),
(265,190,o),
(243,219,o),
(225,249,cs),
(184,319,o),
(161,401,o),
(154,482,cs),
(150,533,o),
(150,587,o),
(160,638,c),
(189,637,o),
(219,627,o),
(242,611,cs),
(255,602,o),
(266,591,o),
(275,579,cs),
(321,523,o),
(350,455,o),
(392,396,c),
(394,394,o),
(404,386,o),
(406,384,c),
(449,435,o),
(492,486,o),
(535,537,c),
(510,623,o),
(524,720,o),
(549,806,c),
(544,810,o),
(540,814,o),
(535,818,c),
(502,778,o),
(468,738,o),
(435,699,c),
(416,725,o),
(392,750,o),
(366,769,cs),
(345,785,o),
(320,797,o),
(294,801,cs),
(277,803,o),
(260,803,o),
(244,799,cs),
(222,792,o),
(204,775,o),
(189,757,cs),
(148,708,o),
(106,659,o),
(65,610,cs),
(51,593,o),
(40,572,o),
(33,551,cs),
(10,488,o),
(6,417,o),
(11,350,cs),
(17,273,o),
(36,196,o),
(72,128,cs),
(115,47,o),
(186,-27,o),
(270,-65,cs),
(318,-86,o),
(373,-97,o),
(426,-98,cs),
(461,-98,o),
(496,-91,o),
(528,-78,cs)
);
}
);
width = 817;
}
);
note = C;
unicode = (67,199);
},
{
glyphname = D;
kernRight = D;
layers = (
{
layerId = m01;
shapes = (
{
closed = 1;
nodes = (
(769,379,o),
(829,456,o),
(880,537,c),
(877,540,o),
(869,549,o),
(865,549,cs),
(750,560,o),
(634,581,o),
(524,618,cs),
(445,645,o),
(366,682,o),
(301,734,cs),
(250,776,o),
(210,835,o),
(189,897,cs),
(188,901,o),
(178,907,o),
(175,910,c),
(132,859,o),
(89,808,o),
(46,757,c),
(59,717,o),
(80,679,o),
(106,647,c),
(67,600,o),
(28,554,o),
(-11,507,c),
(-9,505,o),
(1,496,o),
(4,495,cs),
(35,483,o),
(65,465,o),
(90,442,cs),
(147,389,o),
(188,319,o),
(221,249,cs),
(270,145,o),
(302,34,o),
(332,-77,cs),
(333,-80,o),
(343,-87,o),
(346,-89,c),
(480,28,o),
(593,169,o),
(708,306,cs)
);
},
{
closed = 1;
nodes = (
(437,432,o),
(586,402,o),
(732,386,c),
(719,366,o),
(648,264,o),
(631,246,cs),
(580,189,o),
(527,134,o),
(469,83,c),
(430,226,o),
(386,373,o),
(305,496,c)
);
}
);
width = 870;
}
);
note = D;
unicode = 68;
},
{
glyphname = E;
kernRight = E;
layers = (
{
layerId = m01;
shapes = (
{
closed = 1;
nodes = (
(420,-85,o),
(473,-76,o),
(522,-57,cs),
(566,-41,o),
(609,-16,o),
(640,19,cs),
(657,38,o),
(757,159,o),
(774,179,cs),
(783,190,o),
(791,202,o),
(798,215,cs),
(806,231,o),
(808,251,o),
(809,269,cs),
(809,317,o),
(796,366,o),
(773,408,cs),
(760,432,o),
(741,453,o),
(718,468,c),
(675,417,o),
(633,366,o),
(590,315,c),
(592,313,o),
(604,303,o),
(606,301,cs),
(626,280,o),
(639,253,o),
(648,226,cs),
(660,192,o),
(668,156,o),
(666,120,c),
(563,72,o),
(436,64,o),
(327,95,cs),
(287,106,o),
(247,122,o),
(214,149,cs),
(189,170,o),
(171,200,o),
(161,231,cs),
(153,257,o),
(152,285,o),
(153,312,c),
(203,313,o),
(252,299,o),
(299,282,c),
(301,282,o),
(300,282,o),
(301,281,c),
(327,269,o),
(355,257,o),
(383,249,c),
(426,300,o),
(469,351,o),
(511,402,c),
(509,404,o),
(499,413,o),
(497,414,cs),
(470,426,o),
(443,437,o),
(416,446,c),
(415,446,o),
(415,447,o),
(414,447,c),
(363,472,o),
(315,502,o),
(270,537,cs),
(231,567,o),
(192,603,o),
(172,649,c),
(202,651,o),
(233,646,o),
(261,637,cs),
(310,620,o),
(355,591,o),
(396,559,cs),
(412,546,o),
(427,531,o),
(443,518,c),
(486,569,o),
(529,620,o),
(572,671,c),
(522,718,o),
(466,763,o),
(403,791,cs),
(362,809,o),
(313,821,o),
(269,811,cs),
(236,803,o),
(207,787,o),
(184,763,cs),
(165,742,o),
(62,618,o),
(44,597,cs),
(33,583,o),
(22,567,o),
(21,549,cs),
(19,527,o),
(29,504,o),
(41,485,cs),
(65,447,o),
(100,417,o),
(134,389,c),
(119,371,o),
(44,284,o),
(32,263,cs),
(14,229,o),
(10,188,o),
(10,150,cs),
(10,119,o),
(16,86,o),
(31,59,cs),
(44,35,o),
(64,14,o),
(84,-3,cs),
(107,-22,o),
(132,-39,o),
(159,-51,cs),
(223,-80,o),
(297,-90,o),
(367,-87,cs)
);
}
);
width = 809;
}
);
note = E;
unicode = (69,200,201,202,203);
},
{
glyphname = F;
kernRight = F;
layers = (
{
layerId = m01;
shapes = (
{
closed = 1;
nodes = (
(381,70,o),
(378,139,o),
(367,207,c),
(391,211,o),
(416,216,o),
(439,225,cs),
(455,232,o),
(473,239,o),
(485,253,cs),
(527,304,o),
(570,355,o),
(613,406,c),
(611,407,o),
(601,416,o),
(599,417,c),
(574,394,o),
(538,383,o),
(505,376,cs),
(464,368,o),
(421,365,o),
(379,368,cs),
(358,370,o),
(336,374,o),
(316,382,c),
(288,447,o),
(248,508,o),
(203,564,c),
(286,516,o),
(384,491,o),
(479,485,cs),
(554,479,o),
(632,485,o),
(704,506,c),
(747,557,o),
(789,608,o),
(832,659,c),
(828,663,o),
(823,667,o),
(818,671,c),
(699,635,o),
(563,641,o),
(443,676,cs),
(375,696,o),
(307,727,o),
(253,774,cs),
(229,795,o),
(211,821,o),
(196,848,cs),
(194,851,o),
(184,859,o),
(181,861,c),
(138,810,o),
(95,759,o),
(53,707,c),
(67,683,o),
(85,660,o),
(105,640,c),
(67,594,o),
(29,549,o),
(-9,504,cs),
(-10,503,o),
(-8,497,o),
(-7,495,c),
(48,442,o),
(97,381,o),
(136,315,cs),
(170,255,o),
(197,189,o),
(213,122,cs),
(234,37,o),
(240,-53,o),
(235,-140,c),
(240,-144,o),
(245,-148,o),
(249,-152,c),
(292,-101,o),
(335,-50,o),
(378,1,c)
);
}
);
width = 818;
}
);
note = F;
unicode = 70;
},
{
glyphname = G;
kernRight = G;
layers = (
{
layerId = m01;
shapes = (
{
closed = 1;
nodes = (
(548,-25,o),
(577,0,o),
(600,27,cs),
(641,77,o),
(683,126,o),
(724,175,cs),
(738,193,o),
(750,214,o),
(754,236,cs),
(758,256,o),
(755,277,o),
(750,297,cs),
(739,346,o),
(713,395,o),
(674,428,cs),
(662,438,o),
(650,448,o),
(636,454,cs),
(622,461,o),
(606,463,o),
(590,463,cs),
(545,462,o),
(499,455,o),
(459,436,cs),
(440,428,o),
(376,386,o),
(363,370,cs),
(323,323,o),
(284,276,o),
(245,229,c),
(215,262,o),
(191,299,o),
(175,340,cs),
(155,393,o),
(144,450,o),
(145,507,cs),
(145,527,o),
(151,548,o),
(158,568,c),
(173,575,o),
(189,580,o),
(205,581,cs),
(220,582,o),
(293,577,o),
(308,575,cs),
(362,568,o),
(417,555,o),
(464,526,c),
(464,526,o),
(464,526,o),
(465,525,cs),
(483,507,o),
(503,490,o),
(523,475,c),
(566,526,o),
(609,577,o),
(652,628,c),
(637,646,o),
(619,662,o),
(601,676,cs),
(585,687,o),
(574,703,o),
(563,719,cs),
(538,753,o),
(517,795,o),
(517,837,cs),
(517,842,o),
(506,847,o),
(503,850,c),
(473,814,o),
(442,778,o),
(412,741,c),
(393,743,o),
(319,748,o),
(301,743,cs),
(261,732,o),
(226,703,o),
(200,671,cs),
(157,620,o),
(114,569,o),
(72,519,cs),
(43,484,o),
(19,444,o),
(8,401,cs),
(3,381,o),
(3,360,o),
(3,339,cs),
(5,299,o),
(13,259,o),
(24,221,cs),
(50,140,o),
(110,66,o),
(181,20,cs),
(262,-33,o),
(365,-57,o),
(461,-56,cs),
(480,-56,o),
(499,-49,o),
(516,-41,cs)
);
},
{
closed = 1;
nodes = (
(319,169,o),
(286,188,o),
(259,214,c),
(282,234,o),
(306,252,o),
(333,266,cs),
(379,290,o),
(434,300,o),
(485,298,cs),
(509,297,o),
(534,287,o),
(550,269,cs),
(588,229,o),
(610,171,o),
(613,116,c),
(601,112,o),
(588,109,o),
(575,109,cs),
(500,109,o),
(422,122,o),
(353,153,cs)
);
}
);
width = 754;
}
);
note = G;
unicode = 71;
},
{
glyphname = H;
kernLeft = H;
kernRight = H;
layers = (
{
layerId = m01;
shapes = (
{
closed = 1;
nodes = (
(347,87,o),
(321,137,o),
(304,190,c),
(330,205,o),
(361,213,o),
(391,215,cs),
(434,216,o),
(479,199,o),
(514,174,cs),
(517,172,o),
(527,161,o),
(529,159,cs),
(563,117,o),
(581,65,o),
(613,22,cs),
(642,-17,o),
(681,-49,o),
(723,-72,c),
(724,-73,o),
(724,-73,o),
(724,-73,c),
(742,-87,o),
(762,-98,o),
(782,-107,c),
(825,-56,o),
(868,-5,o),
(911,46,c),
(909,48,o),
(899,57,o),
(896,58,cs),
(879,65,o),
(863,75,o),
(849,86,cs),
(846,89,o),
(842,89,o),
(839,92,cs),
(794,135,o),
(768,199,o),
(752,260,cs),
(716,399,o),
(714,549,o),
(653,679,cs),
(634,722,o),
(608,764,o),
(572,793,c),
(529,742,o),
(486,691,o),
(444,640,c),
(475,606,o),
(500,564,o),
(518,521,cs),
(539,473,o),
(552,422,o),
(562,371,c),
(542,377,o),
(520,381,o),
(499,379,cs),
(455,376,o),
(408,355,o),
(377,322,cs),
(366,310,o),
(305,236,o),
(295,223,c),
(272,312,o),
(270,405,o),
(251,494,cs),
(239,547,o),
(220,598,o),
(193,645,cs),
(173,679,o),
(149,712,o),
(119,738,c),
(76,687,o),
(33,636,o),
(-10,585,c),
(28,542,o),
(60,494,o),
(81,441,cs),
(134,312,o),
(121,163,o),
(168,31,cs),
(184,-15,o),
(207,-59,o),
(235,-100,c),
(237,-102,o),
(247,-110,o),
(249,-112,c),
(292,-61,o),
(335,-10,o),
(378,41,c)
);
}
);
width = 897;
}
);
note = H;
unicode = 72;
},
{
glyphname = I;
kernRight = I;
layers = (
{
layerId = m01;
shapes = (
{
closed = 1;
nodes = (
(563,-15,o),
(605,36,o),
(648,87,c),
(646,88,o),
(636,97,o),
(634,99,c),
(626,95,o),
(597,95,o),
(588,95,cs),
(530,97,o),
(472,103,o),
(414,108,c),
(431,129,o),
(448,149,o),
(466,170,c),
(472,201,o),
(467,234,o),
(459,264,cs),
(449,301,o),
(433,336,o),
(416,370,c),
(457,419,o),
(498,467,o),
(538,516,cs),
(580,566,o),
(599,639,o),
(591,704,cs),
(587,743,o),
(572,786,o),
(543,813,cs),
(521,832,o),
(497,850,o),
(470,860,cs),
(414,881,o),
(342,873,o),
(290,844,cs),
(265,829,o),
(244,808,o),
(225,786,cs),
(206,765,o),
(99,636,o),
(81,615,cs),
(57,586,o),
(36,554,o),
(22,520,cs),
(5,477,o),
(-6,427,o),
(4,381,cs),
(11,347,o),
(30,314,o),
(56,290,cs),
(80,268,o),
(110,246,o),
(143,242,cs),
(182,237,o),
(222,247,o),
(259,260,c),
(282,213,o),
(306,165,o),
(319,113,c),
(299,113,o),
(277,114,o),
(258,105,c),
(257,104,o),
(254,108,o),
(253,107,cs),
(210,56,o),
(168,5,o),
(125,-46,cs),
(124,-47,o),
(122,-52,o),
(123,-52,c),
(127,-56,o),
(134,-65,o),
(139,-62,cs),
(160,-51,o),
(186,-51,o),
(209,-51,cs),
(306,-53,o),
(401,-70,o),
(497,-70,cs),
(503,-70,o),
(516,-70,o),
(520,-65,cs)
);
},
{
closed = 1;
nodes = (
(337,630,o),
(345,658,o),
(360,680,c),
(358,681,o),
(348,690,o),
(346,692,c),
(303,641,o),
(260,589,o),
(217,538,cs),
(214,535,o),
(205,515,o),
(203,511,cs),
(194,487,o),
(193,460,o),
(196,434,c),
(175,455,o),
(158,480,o),
(150,508,cs),
(141,535,o),
(141,565,o),
(146,593,cs),
(150,621,o),
(158,650,o),
(170,675,cs),
(172,679,o),
(186,682,o),
(189,684,cs),
(191,685,o),
(191,687,o),
(193,688,cs),
(231,704,o),
(274,711,o),
(315,706,cs),
(343,702,o),
(370,691,o),
(393,676,cs),
(452,636,o),
(461,524,o),
(439,457,c),
(423,447,o),
(405,438,o),
(387,431,c),
(362,485,o),
(335,543,o),
(337,603,cs)
);
}
);
width = 640;
}
);
note = I;
unicode = (73,204,205,206,207);
},
{
glyphname = J;
kernRight = J;
layers = (
{
layerId = m01;
shapes = (
{
closed = 1;
nodes = (
(373,-33,o),
(409,-4,o),
(439,30,cs),
(456,50,o),
(556,170,o),
(573,190,cs),
(593,214,o),
(610,242,o),
(618,272,cs),
(624,292,o),
(625,314,o),
(621,335,cs),
(615,370,o),
(597,402,o),
(577,430,cs),
(526,499,o),
(460,555,o),
(401,617,cs),
(364,656,o),
(328,699,o),
(306,748,cs),
(297,769,o),
(291,792,o),
(289,816,c),
(288,817,o),
(277,826,o),
(276,827,c),
(233,776,o),
(190,725,o),
(147,674,c),
(150,631,o),
(169,588,o),
(194,553,cs),
(238,492,o),
(294,440,o),
(348,387,cs),
(390,344,o),
(432,300,o),
(460,247,cs),
(479,212,o),
(487,166,o),
(475,128,c),
(439,105,o),
(394,85,o),
(352,93,cs),
(323,98,o),
(295,111,o),
(272,130,cs),
(251,147,o),
(235,169,o),
(220,192,cs),
(186,241,o),
(160,295,o),
(135,349,c),
(133,352,o),
(123,359,o),
(121,362,c),
(78,310,o),
(35,259,o),
(-8,208,c),
(14,162,o),
(36,115,o),
(63,72,cs),
(84,39,o),
(107,7,o),
(137,-18,cs),
(167,-43,o),
(202,-67,o),
(240,-72,cs),
(271,-77,o),
(304,-66,o),
(333,-53,cs)
);
}
);
width = 621;
}
);
note = J;
unicode = 74;
},
{
glyphname = K;
kernRight = K;
layers = (
{
layerId = m01;
shapes = (
{
closed = 1;
nodes = (
(882,1,o),
(877,2,o),
(877,4,cs),
(872,54,o),
(867,105,o),
(878,154,cs),
(884,183,o),
(896,211,o),
(911,237,c),
(909,238,o),
(899,247,o),
(897,248,c),
(881,230,o),
(783,112,o),
(767,93,c),
(734,128,o),
(706,168,o),
(680,208,cs),
(649,255,o),
(621,305,o),
(582,345,cs),
(546,382,o),
(501,414,o),
(453,433,c),
(471,453,o),
(571,573,o),
(588,594,cs),
(608,617,o),
(622,648,o),
(623,678,cs),
(626,723,o),
(606,769,o),
(582,806,cs),
(580,809,o),
(570,817,o),
(567,819,c),
(524,768,o),
(481,717,o),
(439,666,c),
(463,628,o),
(483,583,o),
(481,538,c),
(402,501,o),
(314,481,o),
(227,476,c),
(223,556,o),
(225,640,o),
(198,716,cs),
(185,751,o),
(164,785,o),
(137,810,cs),
(135,812,o),
(123,822,o),
(121,824,c),
(78,773,o),
(35,722,o),
(-8,671,c),
(27,639,o),
(51,594,o),
(64,548,cs),
(83,476,o),
(81,400,o),
(85,326,cs),
(85,324,o),
(81,323,o),
(82,322,cs),
(83,321,o),
(85,320,o),
(85,319,cs),
(89,224,o),
(101,127,o),
(141,41,cs),
(165,-11,o),
(198,-62,o),
(242,-98,c),
(284,-47,o),
(327,4,o),
(370,55,c),
(341,87,o),
(315,123,o),
(294,161,cs),
(272,203,o),
(257,249,o),
(246,295,c),
(312,282,o),
(381,258,o),
(431,212,cs),
(490,158,o),
(524,81,o),
(571,16,cs),
(621,-50,o),
(683,-108,o),
(752,-153,c),
(795,-102,o),
(838,-51,o),
(881,0,cs)
);
}
);
width = 905;
}
);
note = K;
unicode = 75;
},
{
glyphname = L;
kernRight = L;
layers = (
{
layerId = m01;
shapes = (
{
closed = 1;
nodes = (
(201,-10,o),
(260,19,o),
(278,26,cs),
(326,43,o),
(379,52,o),
(431,50,cs),
(506,47,o),
(584,25,o),
(646,-17,cs),
(667,-32,o),
(685,-52,o),
(705,-68,c),
(748,-17,o),
(791,34,o),
(834,85,c),
(826,93,o),
(819,101,o),
(811,108,cs),
(766,146,o),
(731,196,o),
(704,248,cs),
(661,330,o),
(639,423,o),
(631,515,c),
(630,519,o),
(620,525,o),
(617,527,c),
(574,476,o),
(531,425,o),
(488,374,c),
(493,320,o),
(503,267,o),
(518,215,c),
(444,212,o),
(365,190,o),
(307,143,cs),
(304,141,o),
(289,129,o),
(286,126,cs),
(280,118,o),
(273,110,o),
(266,102,c),
(268,234,o),
(265,367,o),
(238,496,cs),
(218,592,o),
(184,686,o),
(136,772,cs),
(134,775,o),
(124,783,o),
(122,785,c),
(79,734,o),
(36,683,o),
(-7,631,c),
(59,514,o),
(98,379,o),
(113,244,cs),
(126,139,o),
(126,33,o),
(123,-73,cs),
(123,-78,o),
(134,-83,o),
(137,-86,c),
(154,-65,o),
(171,-45,o),
(189,-25,cs)
);
}
);
width = 822;
}
);
note = L;
unicode = 76;
},
{
glyphname = M;
kernLeft = M;
kernRight = M;
layers = (
{
layerId = m01;
shapes = (
{
closed = 1;
nodes = (
(979,217,o),
(875,422,o),
(803,638,cs),
(780,707,o),
(761,778,o),
(748,849,cs),
(747,853,o),
(737,860,o),
(734,862,c),
(691,811,o),
(648,760,o),
(606,709,c),
(605,709,o),
(605,708,o),
(605,708,c),
(574,648,o),
(552,583,o),
(532,518,cs),
(509,443,o),
(490,367,o),
(475,290,c),
(380,439,o),
(264,578,o),
(129,691,c),
(86,640,o),
(43,589,o),
(0,538,c),
(24,482,o),
(40,423,o),
(53,364,cs),
(69,285,o),
(80,205,o),
(85,125,cs),
(90,54,o),
(90,-17,o),
(84,-88,c),
(86,-89,o),
(96,-98,o),
(98,-99,c),
(141,-48,o),
(184,3,o),
(227,54,c),
(234,136,o),
(232,219,o),
(225,301,c),
(306,197,o),
(375,84,o),
(436,-33,c),
(437,-36,o),
(447,-43,o),
(450,-45,c),
(493,6,o),
(535,57,o),
(578,108,c),
(578,178,o),
(586,249,o),
(597,319,cs),
(609,397,o),
(624,474,o),
(644,551,c),
(688,403,o),
(750,260,o),
(821,123,c),
(800,121,o),
(779,115,o),
(759,107,c),
(717,56,o),
(674,5,o),
(631,-46,c),
(635,-50,o),
(640,-54,o),
(645,-58,c),
(670,-47,o),
(698,-41,o),
(726,-41,cs),
(770,-41,o),
(815,-54,o),
(857,-71,cs),
(897,-87,o),
(935,-106,o),
(973,-127,c),
(1015,-76,o),
(1058,-25,o),
(1101,26,c)
);
}
);
width = 1088;
}
);
note = M;
unicode = 77;
},
{
glyphname = N;
kernLeft = M;
kernRight = N;
layers = (
{
layerId = m01;
shapes = (
{
closed = 1;
nodes = (
(814,70,o),
(809,76,o),
(802,79,c),
(809,86,o),
(815,94,o),
(821,101,c),
(749,282,o),
(666,460,o),
(621,649,c),
(646,649,o),
(671,647,o),
(695,646,c),
(738,697,o),
(781,748,o),
(824,800,c),
(821,802,o),
(813,811,o),
(809,811,cs),
(768,812,o),
(727,816,o),
(686,814,cs),
(661,814,o),
(634,812,o),
(610,802,cs),
(601,799,o),
(591,794,o),
(584,786,cs),
(542,735,o),
(499,684,o),
(456,634,c),
(472,507,o),
(511,383,o),
(556,263,c),
(411,408,o),
(285,573,o),
(128,704,c),
(85,653,o),
(42,602,o),
(-1,551,c),
(49,447,o),
(78,332,o),
(86,218,cs),
(93,126,o),
(88,31,o),
(63,-58,c),
(65,-60,o),
(75,-68,o),
(77,-70,c),
(120,-19,o),
(163,32,o),
(206,84,c),
(226,159,o),
(233,239,o),
(231,318,c),
(317,223,o),
(402,125,o),
(499,42,cs),
(558,-8,o),
(621,-56,o),
(691,-88,c),
(734,-37,o),
(777,15,o),
(820,66,c)
);
}
);
width = 817;
}
);
note = N;
unicode = (78,209);
},
{
glyphname = O;
kernRight = O;
layers = (
{
layerId = m01;
shapes = (
{
closed = 1;
nodes = (
(436,-21,o),
(461,0,o),
(480,23,cs),
(523,74,o),
(566,125,o),
(608,176,cs),
(639,212,o),
(659,257,o),
(669,303,cs),
(690,394,o),
(673,498,o),
(629,580,cs),
(605,625,o),
(570,665,o),
(531,698,cs),
(497,727,o),
(456,749,o),
(412,759,cs),
(382,765,o),
(351,765,o),
(321,758,cs),
(277,748,o),
(234,722,o),
(205,687,cs),
(186,664,o),
(77,537,o),
(60,512,cs),
(28,466,o),
(11,409,o),
(6,353,cs),
(-1,260,o),
(25,163,o),
(79,87,cs),
(103,52,o),
(135,21,o),
(169,-4,cs),
(208,-33,o),
(257,-53,o),
(306,-56,cs),
(341,-57,o),
(377,-50,o),
(408,-34,cs)
);
},
{
closed = 1;
nodes = (
(257,181,o),
(235,208,o),
(216,236,cs),
(167,309,o),
(143,399,o),
(148,486,cs),
(150,518,o),
(155,550,o),
(165,580,c),
(202,596,o),
(245,602,o),
(285,596,cs),
(339,588,o),
(391,560,o),
(429,520,cs),
(473,473,o),
(505,412,o),
(522,350,cs),
(540,281,o),
(541,204,o),
(520,136,c),
(520,134,o),
(519,128,o),
(517,127,cs),
(492,116,o),
(465,110,o),
(438,109,cs),
(384,107,o),
(328,128,o),
(284,161,cs)
);
}
);
width = 682;
}
);
note = O;
unicode = (79,210,211,212,213,214,216);
},
{
glyphname = P;
kernRight = P;
layers = (
{
layerId = m01;
shapes = (
{
closed = 1;
nodes = (
(385,60,o),
(380,97,o),
(372,134,c),
(452,193,o),
(522,267,o),
(590,340,cs),
(608,358,o),
(703,474,o),
(719,494,c),
(717,495,o),
(707,504,o),
(705,505,cs),
(602,548,o),
(502,602,o),
(412,666,cs),
(336,720,o),
(265,784,o),
(211,860,c),
(209,862,o),
(199,870,o),
(196,872,c),
(154,821,o),
(111,770,o),
(68,719,c),
(81,701,o),
(95,683,o),
(110,667,c),
(72,622,o),
(34,576,o),
(-4,531,c),
(-1,499,o),
(8,466,o),
(19,435,cs),
(37,389,o),
(62,346,o),
(87,304,cs),
(127,239,o),
(167,175,o),
(195,104,cs),
(223,34,o),
(240,-42,o),
(245,-118,cs),
(245,-122,o),
(255,-128,o),
(258,-130,c),
(301,-79,o),
(344,-28,o),
(387,23,c)
);
},
{
closed = 1;
nodes = (
(189,514,o),
(160,569,o),
(146,628,c),
(262,512,o),
(406,422,o),
(556,355,c),
(498,304,o),
(435,255,o),
(362,227,cs),
(359,226,o),
(352,215,o),
(350,213,c),
(319,301,o),
(268,382,o),
(220,462,cs)
);
}
);
width = 708;
}
);
note = P;
unicode = 80;
},
{
glyphname = Q;
kernRight = Q;
layers = (
{
layerId = m01;
shapes = (
{
closed = 1;
nodes = (
(978,100,o),
(930,176,o),
(869,240,c),
(896,287,o),
(909,345,o),
(903,399,cs),
(896,469,o),
(863,537,o),
(822,593,cs),
(771,662,o),
(696,719,o),
(614,746,cs),
(557,764,o),
(493,766,o),
(436,750,cs),
(376,735,o),
(318,701,o),
(278,653,cs),
(262,634,o),
(160,512,o),
(144,493,cs),
(117,460,o),
(99,419,o),
(91,378,cs),
(77,311,o),
(88,238,o),
(114,175,c),
(98,156,o),
(3,43,o),
(-12,24,c),
(-10,22,o),
(0,14,o),
(2,12,c),
(41,59,o),
(80,105,o),
(127,144,c),
(153,91,o),
(187,40,o),
(231,1,cs),
(257,-21,o),
(284,-42,o),
(315,-57,cs),
(362,-79,o),
(417,-88,o),
(470,-83,cs),
(561,-73,o),
(654,-22,o),
(714,49,cs),
(723,60,o),
(732,71,o),
(742,82,c),
(796,22,o),
(840,-47,o),
(884,-115,c),
(886,-117,o),
(896,-125,o),
(899,-127,c),
(942,-76,o),
(984,-25,o),
(1027,26,c)
);
},
{
closed = 1;
nodes = (
(226,483,o),
(231,519,o),
(242,553,c),
(324,602,o),
(431,610,o),
(522,573,cs),
(564,556,o),
(606,532,o),
(638,500,cs),
(681,456,o),
(716,403,o),
(739,346,c),
(704,367,o),
(665,383,o),
(625,394,cs),
(566,409,o),
(502,418,o),
(442,408,cs),
(374,396,o),
(309,362,o),
(255,319,c),
(240,361,o),
(229,404,o),
(227,448,cs)
);
},
{
closed = 1;
nodes = (
(470,87,o),
(414,109,o),
(371,144,cs),
(341,170,o),
(317,202,o),
(296,236,c),
(384,259,o),
(484,244,o),
(568,209,cs),
(619,188,o),
(667,157,o),
(706,119,c),
(651,91,o),
(586,76,o),
(524,82,cs)
);
}
);
width = 1015;
}
);
note = Q;
unicode = 81;
},
{
glyphname = R;
kernLeft = H;
kernRight = R;
layers = (
{
layerId = m01;
shapes = (
{
closed = 1;
nodes = (
(767,-7,o),
(714,44,o),
(693,108,cs),
(680,149,o),
(680,194,o),
(685,236,cs),
(696,317,o),
(732,395,o),
(780,461,cs),
(797,484,o),
(815,506,o),
(833,528,c),
(831,530,o),
(822,539,o),
(819,540,cs),
(786,547,o),
(750,544,o),
(717,536,cs),
(636,518,o),
(559,485,o),
(479,460,cs),
(471,457,o),
(462,455,o),
(453,452,c),
(480,484,o),
(507,515,o),
(532,548,cs),
(567,593,o),
(600,639,o),
(634,685,c),
(631,687,o),
(624,697,o),
(620,696,c),
(503,690,o),
(380,734,o),
(287,805,cs),
(270,818,o),
(256,834,o),
(240,847,c),
(202,801,o),
(163,755,o),
(124,709,cs),
(123,708,o),
(121,711,o),
(120,710,cs),
(77,659,o),
(35,608,o),
(-8,557,c),
(57,445,o),
(118,328,o),
(156,205,cs),
(184,118,o),
(201,28,o),
(209,-62,c),
(210,-66,o),
(220,-71,o),
(223,-74,c),
(266,-23,o),
(309,28,o),
(352,79,c),
(345,148,o),
(334,216,o),
(317,283,c),
(350,289,o),
(381,300,o),
(413,311,cs),
(458,327,o),
(503,344,o),
(549,358,cs),
(593,371,o),
(639,382,o),
(684,378,c),
(629,313,o),
(580,239,o),
(556,157,cs),
(543,110,o),
(536,59,o),
(542,10,cs),
(545,-23,o),
(557,-56,o),
(575,-85,cs),
(605,-131,o),
(647,-169,o),
(689,-204,c),
(732,-153,o),
(775,-102,o),
(818,-51,c)
);
},
{
closed = 1;
nodes = (
(252,575,o),
(370,532,o),
(483,531,c),
(463,505,o),
(445,479,o),
(425,453,cs),
(424,452,o),
(417,445,o),
(416,444,cs),
(380,401,o),
(344,358,o),
(308,315,c),
(275,431,o),
(223,541,o),
(165,646,c)
);
}
);
width = 824;
}
);
note = R;
unicode = 82;
},
{
glyphname = S;
kernRight = S;
layers = (
{
layerId = m01;
shapes = (
{
closed = 1;
nodes = (
(434,-103,o),
(450,-96,o),
(466,-87,cs),
(492,-73,o),
(515,-52,o),
(534,-30,cs),
(550,-11,o),
(649,107,o),
(665,126,cs),
(686,151,o),
(704,181,o),
(711,213,cs),
(717,240,o),
(718,271,o),
(708,298,cs),
(695,332,o),
(665,360,o),
(633,377,cs),
(602,394,o),
(568,404,o),
(534,412,cs),
(465,429,o),
(394,438,o),
(325,456,cs),
(283,466,o),
(242,481,o),
(206,505,cs),
(166,530,o),
(141,583,o),
(140,631,c),
(176,634,o),
(213,633,o),
(249,626,cs),
(334,610,o),
(418,573,o),
(486,520,cs),
(502,507,o),
(517,492,o),
(533,479,c),
(576,530,o),
(618,581,o),
(661,632,c),
(590,702,o),
(499,757,o),
(403,782,cs),
(358,794,o),
(311,801,o),
(264,796,cs),
(249,795,o),
(233,793,o),
(218,787,cs),
(199,780,o),
(181,768,o),
(168,753,cs),
(152,733,o),
(51,613,o),
(35,594,cs),
(-14,536,o),
(-14,448,o),
(33,391,cs),
(70,348,o),
(123,317,o),
(177,300,cs),
(264,273,o),
(355,265,o),
(443,242,cs),
(476,233,o),
(509,220,o),
(536,200,cs),
(539,198,o),
(550,185,o),
(552,182,cs),
(573,152,o),
(577,108,o),
(569,72,c),
(554,65,o),
(538,60,o),
(522,59,cs),
(477,58,o),
(432,81,o),
(395,107,cs),
(347,139,o),
(304,180,o),
(265,222,cs),
(263,224,o),
(253,232,o),
(251,234,c),
(208,183,o),
(165,132,o),
(122,81,c),
(150,51,o),
(178,23,o),
(209,-3,cs),
(244,-33,o),
(281,-63,o),
(323,-84,cs),
(352,-98,o),
(385,-109,o),
(416,-105,cs)
);
}
);
width = 715;
}
);
note = S;
unicode = 83;
},
{
glyphname = T;
kernRight = T;
layers = (
{
layerId = m01;
shapes = (
{
closed = 1;
nodes = (
(576,-89,o),
(595,-72,o),
(611,-53,cs),
(653,-3,o),
(694,46,o),
(736,96,cs),
(751,114,o),
(764,135,o),
(766,158,cs),
(768,185,o),
(757,213,o),
(742,235,cs),
(720,270,o),
(690,300,o),
(663,331,c),
(662,333,o),
(651,341,o),
(649,343,c),
(607,292,o),
(564,241,o),
(521,190,c),
(541,166,o),
(563,143,o),
(582,118,cs),
(597,99,o),
(611,79,o),
(618,56,c),
(583,53,o),
(546,58,o),
(511,66,cs),
(458,79,o),
(406,102,o),
(359,131,cs),
(315,159,o),
(273,196,o),
(246,241,cs),
(231,266,o),
(220,294,o),
(217,323,cs),
(212,389,o),
(228,460,o),
(262,516,c),
(401,478,o),
(555,480,o),
(693,521,c),
(736,572,o),
(779,623,o),
(821,675,c),
(820,676,o),
(809,685,o),
(808,686,c),
(739,666,o),
(667,655,o),
(595,653,cs),
(496,652,o),
(394,669,o),
(302,706,cs),
(237,731,o),
(175,767,o),
(120,809,c),
(77,758,o),
(34,707,o),
(-9,656,c),
(62,597,o),
(147,552,o),
(235,524,c),
(197,480,o),
(159,436,o),
(127,387,cs),
(105,351,o),
(87,312,o),
(80,271,cs),
(73,227,o),
(70,179,o),
(85,137,cs),
(96,108,o),
(113,81,o),
(134,58,cs),
(191,-4,o),
(266,-53,o),
(345,-83,cs),
(386,-98,o),
(430,-108,o),
(473,-110,cs),
(500,-111,o),
(528,-107,o),
(553,-97,cs)
);
}
);
width = 814;
}
);
note = T;
unicode = 84;
},
{
glyphname = U;
kernRight = U;
layers = (
{
layerId = m01;
shapes = (
{
closed = 1;
nodes = (
(749,237,o),
(692,400,o),
(645,564,c),
(644,566,o),
(643,574,o),
(642,576,c),
(629,647,o),
(604,715,o),
(587,785,cs),
(586,789,o),
(576,796,o),
(573,798,c),
(530,747,o),
(487,696,o),
(444,645,c),
(462,571,o),
(481,497,o),
(502,423,cs),
(504,417,o),
(508,383,o),
(509,377,cs),
(511,352,o),
(511,326,o),
(510,301,cs),
(509,250,o),
(504,198,o),
(491,149,c),
(443,136,o),
(389,142,o),
(342,159,cs),
(317,168,o),
(292,180,o),
(273,198,cs),
(248,221,o),
(228,250,o),
(214,281,cs),
(189,337,o),
(182,405,o),
(195,466,cs),
(213,549,o),
(251,628,o),
(295,701,cs),
(297,704,o),
(288,706,o),
(290,709,c),
(290,709,o),
(290,709,o),
(290,710,c),
(262,735,o),
(233,761,o),
(199,780,cs),
(176,794,o),
(150,803,o),
(125,811,c),
(82,760,o),
(39,709,o),
(-4,657,c),
(-1,655,o),
(8,646,o),
(11,646,c),
(38,638,o),
(65,627,o),
(90,613,cs),
(113,599,o),
(133,580,o),
(154,563,cs),
(155,562,o),
(154,561,o),
(153,560,c),
(122,509,o),
(95,454,o),
(75,398,cs),
(58,353,o),
(45,306,o),
(46,259,cs),
(47,207,o),
(60,154,o),
(87,110,cs),
(123,50,o),
(188,1,o),
(257,-15,cs),
(299,-25,o),
(346,-27,o),
(387,-13,cs),
(412,-4,o),
(436,13,o),
(454,33,cs),
(495,83,o),
(537,133,o),
(579,183,c),
(608,100,o),
(639,19,o),
(673,-61,cs),
(674,-64,o),
(684,-71,o),
(687,-74,c),
(730,-23,o),
(773,28,o),
(815,80,c)
);
}
);
width = 808;
}
);
note = U;
unicode = (85,217,218,219,220);
},
{
glyphname = V;
kernRight = V;
layers = (
{
layerId = m01;
shapes = (
{
closed = 1;
nodes = (
(487,68,o),
(486,70,o),
(487,70,c),
(495,80,o),
(504,91,o),
(512,101,c),
(503,197,o),
(498,294,o),
(502,390,cs),
(506,466,o),
(514,543,o),
(537,615,c),
(557,621,o),
(580,621,o),
(601,618,cs),
(638,613,o),
(674,598,o),
(707,581,c),
(749,632,o),
(792,683,o),
(835,734,c),
(833,736,o),
(823,745,o),
(820,746,c),
(783,766,o),
(743,782,o),
(701,785,cs),
(675,786,o),
(648,782,o),
(625,770,cs),
(604,760,o),
(587,743,o),
(572,726,cs),
(530,676,o),
(489,627,o),
(448,578,cs),
(407,530,o),
(389,465,o),
(377,404,c),
(337,490,o),
(286,575,o),
(214,637,cs),
(185,663,o),
(153,687,o),
(118,702,c),
(75,651,o),
(32,600,o),
(-11,549,c),
(-9,547,o),
(1,538,o),
(4,537,cs),
(29,526,o),
(54,511,o),
(75,493,cs),
(142,434,o),
(191,354,o),
(229,274,cs),
(281,163,o),
(317,45,o),
(344,-74,cs),
(345,-78,o),
(355,-84,o),
(358,-86,c),
(401,-35,o),
(444,16,o),
(487,67,c)
);
}
);
width = 790;
}
);
note = V;
unicode = 86;
},
{
glyphname = W;
kernRight = W;
layers = (
{
layerId = m01;
shapes = (
{
closed = 1;
nodes = (
(822,78,o),
(815,119,o),
(816,160,cs),
(817,204,o),
(828,248,o),
(846,288,cs),
(873,350,o),
(911,407,o),
(940,468,cs),
(961,515,o),
(977,567,o),
(979,619,cs),
(979,632,o),
(980,645,o),
(977,658,cs),
(970,686,o),
(955,713,o),
(938,737,cs),
(914,771,o),
(885,801,o),
(853,827,cs),
(808,865,o),
(754,901,o),
(696,906,c),
(653,855,o),
(610,804,o),
(568,753,c),
(570,751,o),
(579,742,o),
(582,741,c),
(613,739,o),
(642,727,o),
(668,712,cs),
(715,686,o),
(756,648,o),
(789,605,cs),
(809,578,o),
(827,548,o),
(835,516,cs),
(839,497,o),
(837,476,o),
(835,457,cs),
(831,420,o),
(821,383,o),
(807,349,cs),
(786,297,o),
(756,250,o),
(730,201,c),
(648,338,o),
(573,487,o),
(553,645,cs),
(553,649,o),
(543,655,o),
(539,658,c),
(497,607,o),
(454,555,o),
(411,504,c),
(402,390,o),
(376,277,o),
(344,167,c),
(311,262,o),
(287,361,o),
(249,454,cs),
(221,520,o),
(186,586,o),
(132,633,c),
(131,635,o),
(120,643,o),
(119,645,c),
(76,594,o),
(33,543,o),
(-10,491,c),
(41,446,o),
(77,383,o),
(104,319,cs),
(141,227,o),
(166,130,o),
(198,36,cs),
(214,-11,o),
(232,-56,o),
(256,-99,c),
(257,-102,o),
(267,-109,o),
(270,-111,c),
(313,-60,o),
(356,-9,o),
(398,42,c),
(427,118,o),
(453,195,o),
(476,274,c),
(533,141,o),
(611,18,o),
(691,-102,c),
(693,-104,o),
(704,-113,o),
(706,-115,c),
(749,-64,o),
(792,-12,o),
(835,39,c)
);
}
);
width = 976;
}
);
note = W;
unicode = 87;
},
{
glyphname = X;
kernRight = X;
layers = (
{
layerId = m01;
shapes = (
{
closed = 1;
nodes = (
(880,-35,o),
(923,16,o),
(966,67,c),
(963,70,o),
(955,79,o),
(951,78,c),
(909,74,o),
(866,77,o),
(826,88,cs),
(780,100,o),
(735,124,o),
(698,155,cs),
(664,183,o),
(636,217,o),
(608,252,c),
(631,279,o),
(653,308,o),
(670,339,cs),
(703,399,o),
(725,467,o),
(732,535,cs),
(737,589,o),
(733,646,o),
(715,698,cs),
(705,727,o),
(691,755,o),
(674,780,c),
(672,782,o),
(661,790,o),
(659,792,c),
(616,741,o),
(573,690,o),
(531,639,c),
(564,591,o),
(584,532,o),
(590,474,cs),
(595,417,o),
(588,357,o),
(572,302,c),
(501,401,o),
(440,508,o),
(357,597,cs),
(299,660,o),
(228,717,o),
(147,748,c),
(104,697,o),
(61,646,o),
(18,595,c),
(21,593,o),
(30,584,o),
(33,583,cs),
(80,565,o),
(125,539,o),
(163,506,cs),
(273,410,o),
(346,278,o),
(430,159,c),
(372,143,o),
(306,147,o),
(249,168,cs),
(203,185,o),
(161,211,o),
(124,242,c),
(81,191,o),
(38,140,o),
(-5,89,c),
(34,56,o),
(76,27,o),
(123,8,cs),
(178,-15,o),
(244,-23,o),
(302,-10,cs),
(369,5,o),
(431,47,o),
(477,97,c),
(509,57,o),
(545,21,o),
(584,-11,cs),
(620,-39,o),
(662,-63,o),
(705,-75,cs),
(748,-88,o),
(793,-91,o),
(837,-86,c)
);
}
);
width = 952;
}
);
note = X;
unicode = 88;
},
{
glyphname = Y;
kernRight = Y;
layers = (
{
layerId = m01;
shapes = (
{
closed = 1;
nodes = (
(464,68,o),
(425,112,o),
(397,162,c),
(397,162,o),
(397,162,o),
(396,163,c),
(388,191,o),
(385,222,o),
(391,251,c),
(423,277,o),
(455,303,o),
(482,335,cs),
(497,353,o),
(592,467,o),
(608,485,cs),
(626,506,o),
(642,530,o),
(653,556,cs),
(665,585,o),
(671,616,o),
(672,647,cs),
(674,708,o),
(656,769,o),
(632,826,cs),
(631,829,o),
(621,836,o),
(618,839,c),
(575,787,o),
(532,736,o),
(489,685,c),
(512,631,o),
(529,573,o),
(530,514,cs),
(530,483,o),
(525,452,o),
(514,423,c),
(479,395,o),
(443,368,o),
(414,333,cs),
(395,310,o),
(375,287,o),
(356,264,c),
(330,362,o),
(335,466,o),
(309,563,cs),
(296,609,o),
(276,654,o),
(248,693,cs),
(212,743,o),
(164,785,o),
(114,821,c),
(71,770,o),
(28,719,o),
(-15,668,c),
(1,654,o),
(19,642,o),
(34,629,cs),
(90,580,o),
(136,515,o),
(159,445,cs),
(187,361,o),
(187,271,o),
(201,184,cs),
(209,128,o),
(226,71,o),
(254,21,c),
(255,20,o),
(257,12,o),
(257,10,c),
(258,8,o),
(262,7,o),
(264,5,c),
(294,-44,o),
(335,-86,o),
(379,-123,c),
(422,-72,o),
(465,-20,o),
(508,31,c)
);
}
);
width = 666;
}
);
note = Y;
unicode = (89,221,376);
},
{
glyphname = Z;
kernRight = Z;
layers = (
{
layerId = m01;
shapes = (
{
closed = 1;
nodes = (
(742,-113,o),
(761,-97,o),
(776,-79,cs),
(817,-30,o),
(858,19,o),
(900,69,cs),
(922,95,o),
(938,129,o),
(939,163,cs),
(940,204,o),
(921,245,o),
(900,281,cs),
(864,340,o),
(818,392,o),
(774,445,cs),
(772,447,o),
(761,456,o),
(759,457,c),
(716,406,o),
(673,355,o),
(630,304,c),
(676,251,o),
(723,197,o),
(759,137,cs),
(776,107,o),
(791,75,o),
(796,41,c),
(768,41,o),
(740,50,o),
(714,60,cs),
(621,95,o),
(534,152,o),
(436,173,cs),
(390,184,o),
(341,187,o),
(295,176,c),
(331,219,o),
(368,262,o),
(403,306,cs),
(421,329,o),
(521,458,o),
(540,478,cs),
(582,523,o),
(626,565,o),
(677,598,cs),
(678,599,o),
(677,599,o),
(678,600,cs),
(721,650,o),
(764,701,o),
(806,752,c),
(805,754,o),
(794,762,o),
(792,764,c),
(650,718,o),
(495,700,o),
(347,718,cs),
(267,727,o),
(186,747,o),
(117,787,c),
(74,736,o),
(31,685,o),
(-12,633,c),
(-9,631,o),
(-7,629,o),
(-4,627,cs),
(-3,626,o),
(-4,625,o),
(-3,624,cs),
(80,518,o),
(148,397,o),
(192,269,cs),
(193,266,o),
(204,259,o),
(206,257,c),
(249,308,o),
(292,359,o),
(335,410,c),
(318,458,o),
(298,504,o),
(276,549,c),
(383,542,o),
(492,552,o),
(596,576,c),
(579,557,o),
(477,434,o),
(460,415,cs),
(401,344,o),
(345,270,o),
(287,198,cs),
(283,192,o),
(255,163,o),
(250,157,cs),
(209,108,o),
(167,59,o),
(126,10,c),
(128,8,o),
(138,-1,o),
(140,-2,c),
(168,9,o),
(197,16,o),
(227,18,cs),
(280,21,o),
(334,8,o),
(384,-10,cs),
(457,-37,o),
(526,-76,o),
(599,-105,cs),
(637,-119,o),
(681,-131,o),
(720,-119,cs)
);
}
);
width = 936;
}
);
note = Z;
unicode = 90;
},
{
glyphname = bracketleft;
kernRight = bracketleft;
layers = (
{
layerId = m01;
shapes = (
{
closed = 1;
nodes = (
(182,-54,o),
(200,-49,o),
(204,-44,cs),
(247,6,o),
(289,57,o),
(332,108,c),
(330,110,o),
(320,118,o),
(318,120,c),
(292,106,o),
(223,95,o),
(196,108,cs),
(184,113,o),
(179,141,o),
(178,153,cs),
(172,192,o),
(172,231,o),
(171,271,cs),
(171,309,o),
(168,534,o),
(169,572,c),
(200,566,o),
(233,561,o),
(265,566,c),
(308,617,o),
(351,668,o),
(394,719,c),
(390,722,o),
(383,731,o),
(379,730,cs),
(356,727,o),
(333,729,o),
(310,732,cs),
(296,734,o),
(211,751,o),
(197,753,c),
(193,748,o),
(188,742,o),
(183,736,c),
(184,744,o),
(185,751,o),
(187,759,c),
(188,759,o),
(192,763,o),
(191,764,cs),
(189,765,o),
(180,773,o),
(178,775,c),
(177,775,o),
(175,774,o),
(174,773,cs),
(132,722,o),
(89,672,o),
(47,621,cs),
(45,619,o),
(44,611,o),
(43,609,c),
(24,503,o),
(25,394,o),
(27,286,cs),
(28,257,o),
(29,86,o),
(31,57,cs),
(32,30,o),
(34,2,o),
(45,-23,cs),
(50,-35,o),
(62,-43,o),
(71,-51,cs),
(80,-58,o),
(92,-62,o),
(104,-63,cs),
(128,-64,o),
(153,-61,o),
(176,-55,cs)
);
}
);
width = 360;
}
);
note = bracketleft;
unicode = 91;
},
{
glyphname = backslash;
kernRight = backslash;
layers = (
{
layerId = m01;
shapes = (
{
closed = 1;
nodes = (
(381,119,o),
(360,151,o),
(342,185,cs),
(323,223,o),
(308,263,o),
(294,303,cs),
(267,378,o),
(242,454,o),
(215,529,cs),
(194,588,o),
(170,645,o),
(150,704,cs),
(147,712,o),
(135,746,o),
(130,753,cs),
(126,758,o),
(120,762,o),
(115,766,c),
(72,715,o),
(29,664,o),
(-14,613,c),
(-13,608,o),
(-12,602,o),
(-13,597,cs),
(-13,594,o),
(-2,588,o),
(-1,585,cs),
(9,558,o),
(71,391,o),
(81,364,cs),
(103,303,o),
(123,241,o),
(145,180,cs),
(162,130,o),
(181,80,o),
(206,33,cs),
(222,3,o),
(241,-26,o),
(260,-54,c),
(262,-56,o),
(272,-64,o),
(274,-66,c),
(317,-15,o),
(360,36,o),
(403,87,c)
);
}
);
width = 386;
}
);
note = backslash;
unicode = 92;
},
{
glyphname = bracketright;
layers = (
{
layerId = m01;
shapes = (
{
closed = 1;
nodes = (
(104,-39,o),
(115,-30,o),
(124,-19,cs),
(165,30,o),
(206,79,o),
(248,129,cs),
(257,140,o),
(264,153,o),
(269,166,cs),
(284,208,o),
(291,252,o),
(295,297,cs),
(300,363,o),
(302,430,o),
(301,497,cs),
(300,572,o),
(297,648,o),
(311,722,c),
(312,724,o),
(322,735,o),
(322,738,c),
(319,740,o),
(320,750,o),
(320,755,cs),
(320,759,o),
(310,765,o),
(306,768,c),
(303,764,o),
(292,747,o),
(288,745,cs),
(285,743,o),
(272,744,o),
(268,744,cs),
(222,743,o),
(175,747,o),
(129,752,cs),
(126,752,o),
(124,758,o),
(122,757,cs),
(119,756,o),
(111,756,o),
(110,754,c),
(67,703,o),
(25,653,o),
(-18,602,c),
(-16,600,o),
(-6,592,o),
(-4,590,c),
(-2,589,o),
(10,588,o),
(13,587,c),
(65,581,o),
(117,576,o),
(169,580,c),
(161,541,o),
(158,501,o),
(157,461,cs),
(156,344,o),
(164,226,o),
(147,111,c),
(143,111,o),
(138,111,o),
(134,114,c),
(91,63,o),
(48,12,o),
(6,-40,c),
(12,-45,o),
(19,-53,o),
(27,-54,cs),
(49,-55,o),
(72,-54,o),
(92,-45,cs)
);
}
);
width = 327;
}
);
note = bracketright;
unicode = 93;
},
{
glyphname = asciicircum;
layers = (
{
layerId = m01;
shapes = (
{
closed = 1;
nodes = (
(713,274,o),
(713,295,o),
(713,299,c),
(711,301,o),
(701,309,o),
(699,311,c),
(694,305,o),
(690,300,o),
(685,294,c),
(639,339,o),
(595,387,o),
(558,439,cs),
(534,471,o),
(512,505,o),
(491,539,cs),
(481,556,o),
(436,633,o),
(421,646,cs),
(416,651,o),
(403,663,o),
(397,663,cs),
(390,662,o),
(385,656,o),
(381,652,cs),
(363,630,o),
(253,499,o),
(235,476,cs),
(203,437,o),
(17,191,o),
(-16,152,c),
(-14,150,o),
(-4,141,o),
(-2,140,c),
(0,141,o),
(12,145,o),
(13,147,c),
(56,198,o),
(99,249,o),
(141,300,c),
(141,300,o),
(136,304,o),
(137,305,cs),
(156,329,o),
(265,473,o),
(284,498,c),
(284,497,o),
(285,498,o),
(286,497,cs),
(292,488,o),
(298,479,o),
(304,469,cs),
(347,403,o),
(385,334,o),
(434,272,cs),
(478,217,o),
(526,163,o),
(580,118,c),
(582,117,o),
(583,117,o),
(584,118,cs),
(627,169,o),
(670,220,o),
(712,270,c)
);
}
);
width = 701;
}
);
note = asciicircum;
unicode = 94;
},
{
glyphname = underscore;
kernLeft = underscore;
layers = (
{
layerId = m01;
shapes = (
{
closed = 1;
nodes = (
(66,287,o),
(107,290,o),
(148,291,cs),
(245,293,o),
(344,287,o),
(441,277,cs),
(470,274,o),
(498,271,o),
(527,270,c),
(570,321,o),
(613,372,o),
(655,423,c),
(652,425,o),
(644,434,o),
(641,434,cs),
(600,436,o),
(560,442,o),
(520,445,cs),
(446,452,o),
(372,456,o),
(297,456,cs),
(254,456,o),
(210,455,o),
(168,445,cs),
(161,443,o),
(138,438,o),
(133,432,cs),
(118,413,o),
(20,296,o),
(4,277,c),
(6,276,o),
(17,266,o),
(19,265,c),
(21,263,o),
(25,271,o),
(28,273,c)
);
}
);
width = 661;
}
);
note = underscore;
unicode = 95;
},
{
glyphname = a;
kernRight = a;
lastChange = "2024-02-25 02:17:42 +0000";
layers = (
{
layerId = m01;
shapes = (
{
closed = 1;
nodes = (
(712,194,o),
(656,335,o),
(588,468,cs),
(558,526,o),
(520,585,o),
(466,622,cs),
(441,638,o),
(408,646,o),
(379,641,cs),
(341,634,o),
(306,613,o),
(276,589,cs),
(268,583,o),
(232,552,o),
(226,544,c),
(198,577,o),
(169,610,o),
(141,643,cs),
(139,645,o),
(129,654,o),
(127,655,c),
(84,604,o),
(41,553,o),
(-2,502,c),
(30,465,o),
(63,427,o),
(95,390,cs),
(97,387,o),
(108,379,o),
(110,377,c),
(131,403,o),
(158,424,o),
(186,442,cs),
(215,461,o),
(249,477,o),
(284,478,cs),
(313,478,o),
(345,466,o),
(366,444,cs),
(382,427,o),
(397,408,o),
(410,388,c),
(362,397,o),
(274,381,o),
(231,359,cs),
(213,350,o),
(197,337,o),
(184,321,cs),
(143,273,o),
(102,224,o),
(61,175,cs),
(33,141,o),
(23,91,o),
(28,47,cs),
(31,26,o),
(41,6,o),
(53,-12,cs),
(66,-30,o),
(84,-44,o),
(102,-57,cs),
(134,-81,o),
(177,-98,o),
(217,-95,cs),
(273,-91,o),
(330,-72,o),
(379,-44,cs),
(405,-30,o),
(430,-13,o),
(451,8,cs),
(457,15,o),
(526,79,o),
(532,86,c),
(577,38,o),
(618,-14,o),
(658,-67,c),
(659,-69,o),
(670,-78,o),
(672,-80,c),
(715,-29,o),
(758,23,o),
(801,74,c)
);
},
{
closed = 1;
nodes = (
(180,147,o),
(170,179,o),
(169,209,c),
(298,288,o),
(469,200,o),
(495,134,c),
(458,117,o),
(382,74,o),
(342,71,cs),
(291,66,o),
(233,85,o),
(200,124,cs)
);
}
);
width = 796;
}
);
note = a;
unicode = (97,224,225,226,227,228,229);
},
{
glyphname = b;
kernLeft = b;
kernRight = b;
layers = (
{
layerId = m01;
shapes = (
{
closed = 1;
nodes = (
(342,-11,o),
(389,-46,o),
(441,-54,cs),
(483,-60,o),
(529,-58,o),
(569,-42,cs),
(594,-32,o),
(617,-16,o),
(635,5,cs),
(677,56,o),
(720,107,o),
(763,157,cs),
(783,182,o),
(796,213,o),
(802,244,cs),
(812,305,o),
(798,372,o),
(768,427,cs),
(749,461,o),
(720,491,o),
(689,516,cs),
(625,567,o),
(539,585,o),
(460,564,cs),
(410,550,o),
(363,519,o),
(330,480,cs),
(316,464,o),
(303,448,o),
(290,432,c),
(256,573,o),
(198,707,o),
(136,837,c),
(134,840,o),
(124,848,o),
(122,850,c),
(79,799,o),
(36,748,o),
(-7,696,c),
(64,547,o),
(130,392,o),
(161,229,cs),
(161,228,o),
(160,228,o),
(160,227,cs),
(160,226,o),
(162,224,o),
(162,223,cs),
(181,122,o),
(187,18,o),
(187,-86,c),
(189,-87,o),
(199,-96,o),
(201,-97,c),
(235,-56,o),
(270,-15,o),
(304,26,c)
);
},
{
closed = 1;
nodes = (
(516,119,o),
(478,136,o),
(450,163,cs),
(391,221,o),
(349,294,o),
(305,365,c),
(303,367,o),
(302,379,o),
(301,382,c),
(387,424,o),
(490,414,o),
(567,356,cs),
(570,354,o),
(573,351,o),
(576,349,c),
(609,317,o),
(634,276,o),
(648,232,cs),
(660,195,o),
(665,155,o),
(661,115,c),
(626,106,o),
(589,105,o),
(554,111,cs)
);
}
);
width = 807;
}
);
note = b;
unicode = 98;
},
{
glyphname = c;
kernLeft = c;
kernRight = c;
layers = (
{
layerId = m01;
shapes = (
{
closed = 1;
nodes = (
(593,3,o),
(610,16,o),
(623,32,cs),
(666,83,o),
(708,133,o),
(751,184,c),
(749,186,o),
(739,194,o),
(737,196,c),
(693,149,o),
(635,109,o),
(572,95,cs),
(541,88,o),
(509,85,o),
(477,89,cs),
(398,99,o),
(320,135,o),
(260,186,cs),
(212,226,o),
(172,281,o),
(154,341,cs),
(144,373,o),
(141,408,o),
(149,439,c),
(187,461,o),
(232,477,o),
(275,476,cs),
(291,475,o),
(307,468,o),
(319,458,cs),
(336,444,o),
(349,426,o),
(361,408,cs),
(393,364,o),
(418,317,o),
(448,272,c),
(450,270,o),
(460,262,o),
(462,260,c),
(505,311,o),
(548,362,o),
(591,413,c),
(552,471,o),
(521,536,o),
(474,587,cs),
(464,598,o),
(452,607,o),
(441,617,cs),
(424,631,o),
(400,642,o),
(378,641,cs),
(340,639,o),
(302,625,o),
(268,607,cs),
(238,590,o),
(210,569,o),
(187,544,cs),
(170,524,o),
(68,402,o),
(52,382,cs),
(28,355,o),
(9,321,o),
(4,286,cs),
(-3,241,o),
(9,194,o),
(30,154,cs),
(72,73,o),
(149,8,o),
(231,-35,cs),
(279,-59,o),
(333,-77,o),
(387,-78,cs),
(454,-79,o),
(524,-52,o),
(577,-10,cs)
);
}
);
width = 746;
}
);
note = c;
unicode = (99,231);
},
{
glyphname = d;
kernLeft = d;
kernRight = d;
layers = (
{
layerId = m01;
shapes = (
{
closed = 1;
nodes = (
(675,176,o),
(619,321,o),
(585,466,cs),
(553,605,o),
(539,749,o),
(539,891,cs),
(539,895,o),
(529,901,o),
(525,904,c),
(482,853,o),
(439,801,o),
(397,750,c),
(397,687,o),
(399,624,o),
(405,561,c),
(405,561,o),
(404,561,o),
(404,561,c),
(335,592,o),
(227,529,o),
(178,471,cs),
(161,452,o),
(59,329,o),
(42,310,cs),
(21,284,o),
(4,251,o),
(1,218,cs),
(-2,192,o),
(5,165,o),
(14,140,cs),
(28,101,o),
(47,64,o),
(69,30,cs),
(95,-10,o),
(127,-47,o),
(167,-73,cs),
(182,-83,o),
(201,-91,o),
(219,-91,cs),
(275,-92,o),
(333,-81,o),
(382,-56,cs),
(417,-38,o),
(449,-14,o),
(474,16,cs),
(479,22,o),
(511,61,o),
(517,67,c),
(549,8,o),
(584,-54,o),
(636,-97,c),
(679,-46,o),
(722,5,o),
(765,56,c)
);
},
{
closed = 1;
nodes = (
(230,140,o),
(201,184,o),
(178,230,cs),
(157,274,o),
(136,325,o),
(145,373,c),
(176,391,o),
(212,406,o),
(248,405,cs),
(286,404,o),
(325,382,o),
(350,353,cs),
(412,281,o),
(451,192,o),
(495,108,c),
(447,84,o),
(391,73,o),
(337,74,cs),
(312,74,o),
(285,85,o),
(267,103,cs)
);
}
);
width = 759;
}
);
note = d;
unicode = 100;
},
{
glyphname = e;
kernLeft = e;
kernRight = e;
lastChange = "2023-11-23 20:49:27 +0000";
layers = (
{
layerId = m01;
shapes = (
{
closed = 1;
nodes = (
(465,-49,o),
(503,-23,o),
(533,8,cs),
(562,38,o),
(694,195,o),
(717,230,c),
(715,231,o),
(705,240,o),
(703,241,c),
(694,230,o),
(646,170,o),
(635,160,cs),
(605,133,o),
(569,111,o),
(530,98,cs),
(486,83,o),
(438,80,o),
(391,84,cs),
(341,89,o),
(291,111,o),
(254,144,cs),
(236,161,o),
(220,180,o),
(206,200,c),
(250,185,o),
(296,175,o),
(342,171,cs),
(377,169,o),
(412,170,o),
(445,180,cs),
(467,186,o),
(488,197,o),
(502,214,cs),
(545,265,o),
(588,315,o),
(630,366,cs),
(640,378,o),
(647,392,o),
(649,406,cs),
(655,439,o),
(646,475,o),
(630,503,cs),
(614,532,o),
(590,557,o),
(565,578,cs),
(510,624,o),
(440,657,o),
(369,663,cs),
(343,666,o),
(316,666,o),
(291,659,cs),
(241,643,o),
(189,617,o),
(155,576,cs),
(112,525,o),
(70,475,o),
(27,424,cs),
(11,404,o),
(-2,381,o),
(-8,357,cs),
(-18,319,o),
(-18,278,o),
(-11,239,cs),
(-1,174,o),
(26,110,o),
(64,57,cs),
(86,27,o),
(113,0,o),
(142,-23,cs),
(182,-57,o),
(231,-77,o),
(282,-81,cs),
(330,-85,o),
(379,-81,o),
(424,-64,cs)
);
},
{
closed = 1;
nodes = (
(283,377,o),
(240,396,o),
(202,423,cs),
(181,439,o),
(162,460,o),
(150,485,c),
(180,496,o),
(212,502,o),
(244,499,cs),
(313,493,o),
(383,466,o),
(437,424,cs),
(465,402,o),
(486,369,o),
(499,336,c),
(441,333,o),
(382,344,o),
(327,362,cs)
);
}
);
width = 714;
}
);
note = e;
unicode = (101,232,233,234,235);
},
{
glyphname = f;
kernRight = f;
layers = (
{
layerId = m01;
shapes = (
{
closed = 1;
nodes = (
(427,79,o),
(383,160,o),
(340,239,c),
(354,246,o),
(370,247,o),
(385,246,cs),
(421,244,o),
(458,235,o),
(490,217,cs),
(501,211,o),
(510,202,o),
(519,194,c),
(562,245,o),
(605,296,o),
(648,347,c),
(629,368,o),
(604,385,o),
(578,394,cs),
(553,404,o),
(483,417,o),
(459,406,cs),
(434,394,o),
(414,373,o),
(396,351,cs),
(372,323,o),
(349,295,o),
(325,267,c),
(260,387,o),
(193,509,o),
(158,640,c),
(183,636,o),
(207,627,o),
(229,616,cs),
(297,586,o),
(360,543,o),
(417,496,cs),
(431,484,o),
(444,472,o),
(458,460,c),
(501,511,o),
(544,562,o),
(587,613,c),
(533,663,o),
(475,708,o),
(412,745,cs),
(364,774,o),
(311,800,o),
(256,808,cs),
(233,812,o),
(208,811,o),
(187,802,cs),
(171,795,o),
(157,784,o),
(146,771,cs),
(103,720,o),
(60,669,o),
(18,618,cs),
(10,609,o),
(5,599,o),
(0,588,c),
(9,496,o),
(42,407,o),
(81,323,cs),
(139,199,o),
(212,81,o),
(270,-43,cs),
(285,-77,o),
(300,-112,o),
(311,-148,cs),
(312,-151,o),
(323,-158,o),
(325,-160,c),
(368,-109,o),
(411,-58,o),
(454,-7,c)
);
}
);
width = 644;
}
);
note = f;
unicode = 102;
},
{
glyphname = g;
kernRight = g;
lastChange = "2024-02-05 21:40:43 +0000";
layers = (
{
layerId = m01;
shapes = (
{
closed = 1;
nodes = (
(520,-269,o),
(563,-247,o),
(590,-215,cs),
(720,-60,ls),
(776,6,o),
(783,114,o),
(721,174,cs),
(698,195,o),
(671,213,o),
(642,221,cs),
(595,234,o),
(544,230,o),
(497,217,cs),
(434,201,o),
(374,174,o),
(318,139,cs),
(278,115,o),
(240,86,o),
(208,52,c),
(184,78,o),
(177,119,o),
(180,155,c),
(216,145,o),
(257,146,o),
(292,159,cs),
(323,170,o),
(351,190,o),
(372,215,cs),
(389,235,o),
(489,353,o),
(505,373,cs),
(527,401,o),
(543,435,o),
(549,470,cs),
(555,499,o),
(554,529,o),
(545,556,cs),
(540,571,o),
(532,585,o),
(521,597,cs),
(496,625,o),
(463,647,o),
(429,661,cs),
(398,673,o),
(364,678,o),
(331,678,c),
(317,662,o),
(230,560,o),
(216,543,c),
(178,579,o),
(154,630,o),
(144,682,cs),
(143,685,o),
(133,692,o),
(130,694,c),
(1,541,l),
(11,488,o),
(37,433,o),
(78,397,c),
(80,396,o),
(93,385,o),
(95,383,c),
(79,344,o),
(71,299,o),
(80,258,cs),
(86,232,o),
(100,207,o),
(120,190,c),
(106,172,o),
(91,155,o),
(79,136,cs),
(54,96,o),
(38,49,o),
(37,2,cs),
(36,-23,o),
(40,-50,o),
(52,-72,cs),
(62,-89,o),
(77,-102,o),
(92,-113,c),
(148,-54,o),
(219,-10,o),
(294,22,cs),
(350,45,o),
(410,65,o),
(471,64,cs),
(508,64,o),
(548,54,o),
(578,32,c),
(579,32,o),
(580,30,o),
(580,30,c),
(613,-3,o),
(627,-56,o),
(621,-102,c),
(595,-108,o),
(567,-107,o),
(540,-105,cs),
(490,-102,o),
(437,-90,o),
(395,-62,cs),
(362,-40,o),
(338,-7,o),
(308,18,c),
(265,-33,o),
(222,-84,o),
(180,-135,c),
(210,-168,o),
(242,-201,o),
(279,-226,cs),
(335,-265,o),
(410,-274,o),
(478,-271,cs)
);
},
{
closed = 1;
nodes = (
(268,330,o),
(257,336,o),
(255,338,cs),
(238,355,o),
(227,379,o),
(222,403,cs),
(215,439,o),
(221,478,o),
(233,513,c),
(281,509,o),
(330,495,o),
(368,467,cs),
(374,463,o),
(389,442,o),
(393,436,cs),
(412,404,o),
(414,360,o),
(406,323,c),
(363,308,o),
(311,308,o),
(271,329,c)
);
}
);
width = 762;
}
);
note = g;
unicode = 103;
},
{
glyphname = h;
kernRight = h;
lastChange = "2024-02-25 02:16:35 +0000";
layers = (
{
layerId = m01;
shapes = (
{
closed = 1;
nodes = (
(831,-122,o),
(919,67,o),
(931,98,cs),
(941,124,o),
(950,145,o),
(950,168,c),
(950,168,o),
(939,178,o),
(936,180,c),
(898,126,o),
(859,77,o),
(817,26,cs),
(815,24,o),
(810,20,o),
(807,20,cs),
(780,24,o),
(751,34,o),
(732,54,cs),
(702,88,o),
(683,132,o),
(670,175,cs),
(629,311,o),
(612,455,o),
(551,583,cs),
(547,592,o),
(543,600,o),
(537,608,cs),
(532,614,o),
(525,619,o),
(519,624,cs),
(491,649,o),
(276,398,o),
(256,348,c),
(239,467,o),
(220,585,o),
(191,701,cs),
(184,728,o),
(177,754,o),
(167,780,cs),
(161,797,o),
(151,813,o),
(141,827,cs),
(139,830,o),
(127,839,o),
(124,841,c),
(82,790,o),
(39,739,o),
(-4,688,cs),
(-8,683,o),
(5,677,o),
(8,671,cs),
(15,661,o),
(21,650,o),
(25,639,cs),
(41,594,o),
(52,548,o),
(62,501,cs),
(85,403,o),
(100,303,o),
(114,204,cs),
(120,164,o),
(149,-46,o),
(160,-85,cs),
(161,-88,o),
(171,-94,o),
(174,-97,c),
(217,-46,o),
(260,5,o),
(302,56,cs),
(303,57,o),
(277,249,o),
(277,249,cs),
(327,334,o),
(362,370,o),
(425,431,c),
(452,363,o),
(470,266,o),
(487,195,cs),
(502,130,o),
(516,63,o),
(539,0,cs),
(551,-34,o),
(569,-67,o),
(594,-92,cs),
(615,-113,o),
(641,-132,o),
(670,-140,cs),
(694,-147,o),
(720,-143,o),
(743,-139,cs)
);
}
);
width = 930;
}
);
note = h;
unicode = 104;
},
{
glyphname = i;
kernRight = i;
layers = (
{
layerId = m01;
shapes = (
{
closed = 1;
nodes = (
(171,759,o),
(154,805,o),
(138,851,c),
(136,854,o),
(126,861,o),
(124,864,c),
(81,812,o),
(38,761,o),
(-5,710,c),
(12,664,o),
(29,618,o),
(46,571,cs),
(47,568,o),
(57,562,o),
(60,559,c),
(102,610,o),
(145,662,o),
(188,713,c)
);
},
{
closed = 1;
nodes = (
(531,48,o),
(522,57,o),
(518,58,cs),
(481,67,o),
(444,76,o),
(407,82,c),
(407,157,o),
(401,232,o),
(390,306,cs),
(381,361,o),
(370,416,o),
(350,468,cs),
(340,492,o),
(329,516,o),
(312,536,cs),
(297,553,o),
(277,568,o),
(255,575,cs),
(219,586,o),
(177,580,o),
(142,565,cs),
(139,564,o),
(130,561,o),
(128,559,cs),
(86,508,o),
(43,457,o),
(1,407,c),
(2,405,o),
(13,396,o),
(14,395,c),
(54,413,o),
(103,423,o),
(144,409,c),
(148,407,o),
(164,401,o),
(167,397,cs),
(177,386,o),
(186,373,o),
(193,359,cs),
(211,323,o),
(223,283,o),
(232,244,cs),
(244,192,o),
(252,139,o),
(257,85,c),
(248,84,o),
(238,82,o),
(228,81,c),
(185,29,o),
(142,-22,o),
(99,-73,c),
(103,-76,o),
(110,-85,o),
(114,-84,cs),
(158,-75,o),
(203,-73,o),
(248,-77,cs),
(301,-81,o),
(353,-94,o),
(405,-107,c),
(448,-56,o),
(490,-5,o),
(533,46,c)
);
}
);
width = 525;
}
);
note = i;
unicode = (105,236,237,238,239);
},
{
glyphname = j;
kernLeft = j;
kernRight = j;
layers = (
{
layerId = m01;
shapes = (
{
closed = 1;
nodes = (
(273,779,o),
(259,821,o),
(245,863,cs),
(244,867,o),
(234,874,o),
(231,876,c),
(188,825,o),
(145,774,o),
(103,723,c),
(117,680,o),
(131,638,o),
(145,596,cs),
(146,592,o),
(156,586,o),
(159,584,c),
(202,635,o),
(244,686,o),
(287,737,c)
);
},
{
closed = 1;
nodes = (
(408,-122,o),
(478,-100,o),
(546,-74,c),
(589,-23,o),
(632,28,o),
(675,79,c),
(673,81,o),
(663,90,o),
(660,91,cs),
(593,121,o),
(541,180,o),
(498,240,cs),
(417,350,o),
(358,479,o),
(326,612,cs),
(325,616,o),
(314,622,o),
(312,625,c),
(269,574,o),
(226,523,o),
(183,472,c),
(209,363,o),
(254,258,o),
(312,163,cs),
(344,111,o),
(380,61,o),
(423,18,c),
(345,0,o),
(265,-13,o),
(185,-12,c),
(160,18,o),
(144,58,o),
(140,97,cs),
(133,153,o),
(142,214,o),
(172,261,c),
(170,262,o),
(160,271,o),
(158,272,c),
(115,221,o),
(72,170,o),
(30,119,cs),
(27,116,o),
(20,103,o),
(19,100,cs),
(-8,43,o),
(-13,-29,o),
(8,-89,cs),
(16,-112,o),
(27,-136,o),
(43,-155,cs),
(50,-163,o),
(59,-170,o),
(67,-177,c),
(158,-178,o),
(249,-162,o),
(337,-140,cs)
);
}
);
width = 668;
}
);
note = j;
unicode = 106;
},
{
glyphname = k;
kernLeft = b;
kernRight = k;
layers = (
{
layerId = m01;
shapes = (
{
closed = 1;
nodes = (
(327,46,o),
(326,55,o),
(326,64,c),
(391,28,o),
(460,-3,o),
(533,-23,cs),
(595,-40,o),
(667,-49,o),
(726,-23,cs),
(729,-22,o),
(740,-16,o),
(742,-14,cs),
(784,37,o),
(827,88,o),
(870,138,c),
(868,140,o),
(858,149,o),
(856,150,c),
(838,139,o),
(817,132,o),
(796,128,cs),
(739,120,o),
(679,131,o),
(624,148,cs),
(562,168,o),
(502,195,o),
(445,227,c),
(475,236,o),
(506,247,o),
(533,264,cs),
(541,269,o),
(549,275,o),
(555,282,cs),
(598,333,o),
(640,384,o),
(683,435,cs),
(690,444,o),
(694,458,o),
(690,468,cs),
(683,486,o),
(667,498,o),
(652,511,cs),
(625,534,o),
(592,551,o),
(558,563,cs),
(516,579,o),
(471,588,o),
(426,590,cs),
(400,592,o),
(373,590,o),
(348,581,cs),
(335,577,o),
(321,569,o),
(312,559,cs),
(306,551,o),
(266,504,o),
(260,496,c),
(231,608,o),
(189,717,o),
(137,820,cs),
(135,823,o),
(125,830,o),
(123,832,c),
(80,781,o),
(37,730,o),
(-6,679,c),
(30,608,o),
(62,534,o),
(87,458,cs),
(116,371,o),
(137,281,o),
(152,190,c),
(152,190,o),
(150,188,o),
(150,187,c),
(150,187,o),
(152,185,o),
(153,185,c),
(168,89,o),
(178,-7,o),
(185,-104,c),
(186,-108,o),
(196,-114,o),
(199,-116,c),
(242,-65,o),
(285,-14,o),
(328,37,c)
);
},
{
closed = 1;
nodes = (
(312,428,o),
(348,424,o),
(383,416,cs),
(422,407,o),
(460,394,o),
(495,375,c),
(428,360,o),
(360,349,o),
(292,342,c),
(288,370,o),
(282,397,o),
(276,425,c)
);
}
);
width = 864;
}
);
note = k;
unicode = 107;
},
{
glyphname = l;
kernRight = l;
lastChange = "2024-02-25 02:22:35 +0000";
layers = (
{
layerId = m01;
shapes = (
{
closed = 1;
nodes = (
(446,-41,o),
(571,111,o),
(593,139,c),
(589,143,o),
(584,147,o),
(579,151,c),
(574,144,o),
(542,106,o),
(536,100,cs),
(516,79,o),
(490,60,o),
(461,56,cs),
(382,44,o),
(330,141,o),
(311,219,cs),
(284,326,o),
(288,439,o),
(272,549,cs),
(262,618,o),
(244,688,o),
(208,747,cs),
(185,784,o),
(154,815,o),
(121,842,c),
(78,791,o),
(35,740,o),
(-8,689,c),
(24,662,o),
(52,629,o),
(73,593,cs),
(107,532,o),
(123,462,o),
(132,393,cs),
(144,298,o),
(144,203,o),
(161,109,cs),
(170,65,o),
(183,21,o),
(207,-17,cs),
(226,-48,o),
(253,-74,o),
(284,-94,cs),
(298,-103,o),
(315,-109,o),
(332,-110,cs),
(365,-111,o),
(397,-89,o),
(421,-66,cs)
);
}
);
width = 587;
}
);
note = l;
unicode = 108;
},
{
glyphname = m;
kernLeft = m;
kernRight = m;
layers = (
{
layerId = m01;
shapes = (
{
closed = 1;
nodes = (
(338,87,o),
(328,139,o),
(325,191,cs),
(319,280,o),
(332,372,o),
(358,457,c),
(423,356,o),
(466,241,o),
(493,124,cs),
(509,56,o),
(519,-14,o),
(519,-84,c),
(521,-86,o),
(531,-94,o),
(533,-96,c),
(576,-45,o),
(619,6,o),
(661,57,cs),
(668,65,o),
(679,98,o),
(682,107,cs),
(688,132,o),
(692,158,o),
(695,184,cs),
(703,256,o),
(707,329,o),
(717,401,c),
(749,333,o),
(794,270,o),
(829,202,cs),
(853,154,o),
(873,100,o),
(871,46,cs),
(869,-1,o),
(849,-48,o),
(821,-86,c),
(823,-87,o),
(833,-96,o),
(835,-97,c),
(852,-78,o),
(949,36,o),
(964,57,cs),
(989,90,o),
(1008,131,o),
(1012,172,cs),
(1017,217,o),
(1006,263,o),
(989,304,cs),
(953,394,o),
(890,471,o),
(852,560,cs),
(839,591,o),
(828,624,o),
(825,657,cs),
(825,661,o),
(815,667,o),
(811,670,c),
(803,663,o),
(796,655,o),
(789,647,cs),
(771,627,o),
(669,506,o),
(653,485,cs),
(630,455,o),
(614,419,o),
(602,383,c),
(577,456,o),
(545,528,o),
(504,593,cs),
(488,619,o),
(470,646,o),
(447,665,c),
(429,646,o),
(327,524,o),
(310,503,cs),
(282,470,o),
(261,430,o),
(243,390,c),
(229,446,o),
(214,503,o),
(191,557,cs),
(175,592,o),
(154,627,o),
(125,652,c),
(82,601,o),
(39,550,o),
(-4,499,c),
(45,446,o),
(67,372,o),
(87,303,cs),
(114,206,o),
(132,107,o),
(164,12,cs),
(178,-27,o),
(194,-66,o),
(215,-102,c),
(216,-105,o),
(227,-112,o),
(229,-114,c),
(272,-63,o),
(315,-12,o),
(358,39,c)
);
}
);
width = 1015;
}
);
note = m;
unicode = 109;
},
{
glyphname = n;
kernLeft = m;
kernRight = n;
layers = (
{
layerId = m01;
shapes = (
{
closed = 1;
nodes = (
(754,-127,o),
(762,-118,o),
(769,-110,cs),
(811,-60,o),
(852,-11,o),
(893,38,cs),
(899,45,o),
(903,54,o),
(906,62,c),
(904,64,o),
(894,72,o),
(892,74,c),
(881,60,o),
(869,47,o),
(858,33,c),
(820,17,o),
(749,22,o),
(721,53,cs),
(704,73,o),
(691,96,o),
(681,120,cs),
(652,190,o),
(639,266,o),
(626,342,cs),
(606,459,o),
(588,581,o),
(538,689,c),
(536,692,o),
(526,700,o),
(524,702,c),
(504,679,o),
(395,550,o),
(378,526,cs),
(329,458,o),
(290,383,o),
(260,305,c),
(234,411,o),
(202,521,o),
(139,610,cs),
(137,613,o),
(127,621,o),
(125,623,c),
(82,572,o),
(39,521,o),
(-4,469,c),
(46,399,o),
(77,315,o),
(100,231,cs),
(124,143,o),
(139,52,o),
(172,-34,cs),
(173,-37,o),
(184,-44,o),
(186,-46,c),
(229,5,o),
(272,56,o),
(315,107,c),
(340,237,o),
(368,367,o),
(419,489,c),
(465,353,o),
(477,209,o),
(510,69,cs),
(522,16,o),
(539,-39,o),
(573,-81,cs),
(583,-93,o),
(594,-102,o),
(606,-112,cs),
(628,-130,o),
(659,-140,o),
(688,-140,cs),
(706,-140,o),
(726,-139,o),
(744,-131,cs)
);
}
);
width = 899;
}
);
note = n;
unicode = (110,241);
},
{
glyphname = o;
kernLeft = c;
kernRight = o;
lastChange = "2024-02-05 21:40:51 +0000";
layers = (
{
layerId = m01;
shapes = (
{
closed = 1;
nodes = (
(336,-33,o),
(367,-23,o),
(394,-8,cs),
(427,9,o),
(456,34,o),
(480,63,cs),
(608,215,ls),
(650,267,o),
(673,334,o),
(670,401,cs),
(669,433,o),
(659,466,o),
(642,495,cs),
(623,527,o),
(594,554,o),
(565,578,cs),
(531,604,o),
(491,625,o),
(450,637,cs),
(426,643,o),
(400,649,o),
(376,646,cs),
(330,640,o),
(285,622,o),
(245,598,cs),
(220,582,o),
(195,563,o),
(176,540,cs),
(159,520,o),
(58,400,o),
(42,380,cs),
(23,357,o),
(8,329,o),
(4,299,cs),
(0,270,o),
(3,241,o),
(10,213,cs),
(25,153,o),
(59,94,o),
(105,53,cs),
(129,30,o),
(156,9,o),
(186,-6,cs),
(222,-25,o),
(265,-35,o),
(305,-34,cs)
);
},
{
closed = 1;
nodes = (
(201,236,o),
(168,294,o),
(153,354,cs),
(146,383,o),
(142,413,o),
(146,442,c),
(183,462,o),
(223,478,o),
(264,481,cs),
(265,481,o),
(266,482,o),
(267,482,cs),
(329,482,o),
(393,456,o),
(443,418,cs),
(481,389,o),
(511,344,o),
(523,298,cs),
(534,252,o),
(528,202,o),
(512,158,c),
(483,143,o),
(450,131,o),
(417,131,cs),
(356,130,o),
(292,154,o),
(246,195,cs)
);
}
);
width = 673;
}
);
note = o;
unicode = (111,242,243,244,245,246,248);
},
{
glyphname = p;
kernLeft = p;
kernRight = p;
lastChange = "2024-02-05 21:41:32 +0000";
layers = (
{
layerId = m01;
shapes = (
{
closed = 1;
nodes = (
(391,-99,o),
(381,-90,o),
(379,-88,c),
(342,-64,o),
(312,-29,o),
(288,8,c),
(344,34,o),
(397,71,o),
(437,118,cs),
(457,143,o),
(568,271,o),
(585,298,cs),
(596,315,o),
(605,333,o),
(608,353,cs),
(611,370,o),
(608,389,o),
(599,404,cs),
(587,424,o),
(569,439,o),
(551,453,cs),
(481,511,o),
(385,529,o),
(311,582,cs),
(295,594,o),
(283,612,o),
(278,631,cs),
(273,656,o),
(276,679,o),
(289,701,cs),
(299,717,o),
(310,731,o),
(322,746,c),
(321,747,o),
(310,756,o),
(309,757,c),
(275,718,o),
(71,472,o),
(37,432,c),
(21,369,o),
(21,302,o),
(26,238,cs),
(36,113,o),
(70,-14,o),
(136,-120,cs),
(169,-172,o),
(213,-219,o),
(265,-254,c),
(308,-203,o),
(350,-152,o),
(393,-100,c)
);
},
{
closed = 1;
nodes = (
(184,244,o),
(166,344,o),
(166,443,c),
(181,428,o),
(198,415,o),
(216,404,cs),
(285,363,o),
(365,342,o),
(429,294,cs),
(443,283,o),
(455,269,o),
(462,252,cs),
(468,239,o),
(468,223,o),
(465,208,c),
(420,178,o),
(369,155,o),
(316,145,cs),
(283,139,o),
(248,140,o),
(217,151,c)
);
}
);
width = 629;
}
);
note = p;
unicode = 112;
},
{
glyphname = q;
kernLeft = q;
kernRight = q;
layers = (
{
layerId = m01;
shapes = (
{
closed = 1;
nodes = (
(736,-239,o),
(780,-219,o),
(791,-207,cs),
(833,-156,o),
(876,-105,o),
(919,-54,c),
(914,-50,o),
(909,-46,o),
(905,-43,c),
(882,-60,o),
(855,-76,o),
(826,-79,cs),
(802,-82,o),
(773,-75,o),
(756,-58,cs),
(740,-41,o),
(727,-22,o),
(716,-2,cs),
(697,33,o),
(683,71,o),
(671,109,cs),
(634,224,o),
(615,343,o),
(590,460,cs),
(580,507,o),
(570,556,o),
(552,601,c),
(550,604,o),
(540,611,o),
(537,613,c),
(537,613,o),
(537,612,o),
(535,612,c),
(499,622,o),
(460,622,o),
(423,617,cs),
(367,610,o),
(312,593,o),
(264,566,cs),
(230,548,o),
(199,525,o),
(174,496,cs),
(158,477,o),
(60,360,o),
(44,341,cs),
(16,307,o),
(-4,260,o),
(4,217,cs),
(8,192,o),
(16,167,o),
(24,144,cs),
(37,108,o),
(53,72,o),
(72,39,cs),
(89,11,o),
(109,-17,o),
(134,-39,cs),
(145,-48,o),
(157,-58,o),
(171,-64,cs),
(190,-72,o),
(213,-71,o),
(232,-64,cs),
(254,-55,o),
(273,-37,o),
(288,-19,cs),
(304,0,o),
(399,113,o),
(414,132,cs),
(437,160,o),
(453,193,o),
(466,227,c),
(481,152,o),
(497,78,o),
(517,5,cs),
(530,-39,o),
(544,-83,o),
(564,-124,cs),
(578,-155,o),
(597,-185,o),
(622,-208,cs),
(636,-219,o),
(650,-231,o),
(667,-238,cs),
(683,-245,o),
(702,-246,o),
(720,-243,cs)
);
},
{
closed = 1;
nodes = (
(261,115,o),
(238,145,o),
(233,152,cs),
(208,188,o),
(189,228,o),
(173,268,cs),
(161,299,o),
(149,331,o),
(145,364,cs),
(143,376,o),
(144,388,o),
(146,400,c),
(196,427,o),
(252,446,o),
(308,453,cs),
(341,457,o),
(375,457,o),
(407,451,c),
(390,331,o),
(371,209,o),
(328,96,c),
(308,93,o),
(286,98,o),
(269,110,cs)
);
}
);
width = 711;
}
);
note = q;
unicode = 113;
},
{
glyphname = r;
kernRight = r;
layers = (
{
layerId = m01;
shapes = (
{
closed = 1;
nodes = (
(349,143,o),
(346,226,o),
(352,308,cs),
(358,375,o),
(369,441,o),
(391,504,c),
(419,484,o),
(443,459,o),
(465,432,cs),
(511,375,o),
(544,305,o),
(566,234,cs),
(567,231,o),
(577,224,o),
(580,222,c),
(623,273,o),
(666,324,o),
(708,375,c),
(694,422,o),
(675,468,o),
(650,511,cs),
(612,579,o),
(553,638,o),
(488,682,c),
(470,669,o),
(455,653,o),
(441,636,cs),
(399,587,o),
(358,538,o),
(317,488,cs),
(295,463,o),
(278,433,o),
(264,402,c),
(230,497,o),
(190,590,o),
(139,676,cs),
(137,679,o),
(127,687,o),
(125,689,c),
(82,638,o),
(39,586,o),
(-4,535,c),
(70,411,o),
(122,274,o),
(164,135,cs),
(186,65,o),
(205,-6,o),
(219,-79,cs),
(220,-83,o),
(230,-89,o),
(233,-91,c),
(276,-40,o),
(319,11,o),
(362,62,c)
);
}
);
width = 705;
}
);
note = r;
unicode = 114;
},
{
glyphname = s;
kernRight = s;
layers = (
{
layerId = m01;
shapes = (
{
closed = 1;
nodes = (
(450,-40,o),
(483,-23,o),
(505,3,cs),
(521,22,o),
(621,141,o),
(637,160,cs),
(657,184,o),
(668,221,o),
(660,252,cs),
(655,271,o),
(642,288,o),
(627,301,cs),
(614,312,o),
(601,323,o),
(587,331,cs),
(557,349,o),
(525,361,o),
(493,371,cs),
(423,393,o),
(351,407,o),
(281,426,cs),
(256,432,o),
(173,454,o),
(156,474,cs),
(150,480,o),
(145,489,o),
(144,498,cs),
(143,513,o),
(147,528,o),
(150,542,c),
(171,542,o),
(190,536,o),
(210,529,cs),
(262,511,o),
(313,486,o),
(365,465,cs),
(411,446,o),
(458,430,o),
(507,417,c),
(550,468,o),
(593,519,o),
(635,570,c),
(633,572,o),
(624,581,o),
(621,582,cs),
(557,599,o),
(495,622,o),
(434,648,cs),
(389,668,o),
(344,691,o),
(296,703,cs),
(279,707,o),
(261,709,o),
(245,705,cs),
(224,699,o),
(206,683,o),
(192,667,cs),
(176,648,o),
(79,532,o),
(64,514,cs),
(43,489,o),
(28,461,o),
(17,431,cs),
(9,409,o),
(3,386,o),
(2,362,cs),
(1,322,o),
(63,293,o),
(100,280,cs),
(208,243,o),
(324,232,o),
(429,188,cs),
(449,179,o),
(470,169,o),
(488,156,cs),
(502,146,o),
(512,129,o),
(517,112,c),
(495,107,o),
(472,108,o),
(449,108,cs),
(394,110,o),
(336,115,o),
(285,137,cs),
(258,149,o),
(231,164,o),
(209,183,cs),
(187,201,o),
(171,224,o),
(149,242,c),
(107,191,o),
(64,140,o),
(21,89,c),
(66,34,o),
(126,-15,o),
(195,-36,cs),
(240,-50,o),
(289,-56,o),
(337,-57,cs),
(364,-57,o),
(392,-56,o),
(418,-49,cs)
);
}
);
width = 663;
}
);
note = s;
unicode = 115;
},
{
glyphname = t;
kernRight = t;
layers = (
{
layerId = m01;
shapes = (
{
closed = 1;
nodes = (
(740,-15,o),
(839,106,o),
(858,128,c),
(861,156,o),
(852,186,o),
(838,212,cs),
(821,244,o),
(800,274,o),
(781,307,cs),
(764,336,o),
(750,367,o),
(743,400,c),
(743,404,o),
(732,410,o),
(729,412,c),
(687,361,o),
(644,310,o),
(601,259,c),
(610,213,o),
(634,171,o),
(659,132,cs),
(673,109,o),
(688,87,o),
(699,63,c),
(654,58,o),
(601,71,o),
(568,103,cs),
(558,113,o),
(548,124,o),
(540,136,cs),
(539,137,o),
(537,141,o),
(536,142,cs),
(533,144,o),
(523,152,o),
(521,154,c),
(463,234,o),
(433,334,o),
(417,432,c),
(440,446,o),
(463,461,o),
(480,482,cs),
(523,533,o),
(565,584,o),
(608,634,c),
(606,636,o),
(596,645,o),
(594,646,c),
(544,594,o),
(473,561,o),
(403,547,c),
(395,655,o),
(399,765,o),
(415,872,c),
(413,873,o),
(403,882,o),
(401,883,c),
(358,832,o),
(316,781,o),
(273,730,c),
(264,670,o),
(258,609,o),
(257,549,c),
(213,559,o),
(169,579,o),
(138,611,cs),
(134,616,o),
(128,620,o),
(123,625,c),
(80,574,o),
(37,522,o),
(-6,471,c),
(20,444,o),
(51,420,o),
(85,404,cs),
(139,378,o),
(203,371,o),
(263,378,c),
(271,291,o),
(288,204,o),
(320,122,cs),
(341,69,o),
(370,16,o),
(410,-25,cs),
(418,-33,o),
(458,-68,o),
(467,-74,cs),
(493,-91,o),
(526,-103,o),
(557,-103,cs),
(616,-103,o),
(677,-75,o),
(719,-35,cs)
);
}
);
width = 856;
}
);
note = t;
unicode = 116;
},
{
glyphname = u;
kernRight = u;
layers = (
{
layerId = m01;
shapes = (
{
closed = 1;
nodes = (
(779,118,o),
(748,164,o),
(723,212,cs),
(694,270,o),
(672,331,o),
(654,394,cs),
(630,474,o),
(611,555,o),
(588,636,cs),
(587,640,o),
(577,646,o),
(574,649,c),
(532,598,o),
(489,546,o),
(446,495,c),
(453,428,o),
(450,360,o),
(442,292,cs),
(436,237,o),
(423,181,o),
(406,128,c),
(369,124,o),
(328,143,o),
(304,172,cs),
(282,197,o),
(266,226,o),
(254,257,cs),
(226,335,o),
(215,419,o),
(194,499,cs),
(187,530,o),
(176,559,o),
(161,587,cs),
(153,603,o),
(140,617,o),
(127,628,c),
(84,577,o),
(41,526,o),
(-2,475,c),
(16,454,o),
(29,429,o),
(38,404,cs),
(66,325,o),
(75,241,o),
(97,161,cs),
(111,112,o),
(131,61,o),
(166,25,cs),
(191,-1,o),
(222,-26,o),
(257,-35,cs),
(274,-39,o),
(292,-39,o),
(309,-33,cs),
(330,-26,o),
(348,-11,o),
(362,6,cs),
(405,57,o),
(447,108,o),
(490,158,cs),
(503,175,o),
(514,193,o),
(524,212,c),
(539,165,o),
(556,119,o),
(578,75,cs),
(606,20,o),
(641,-34,o),
(689,-74,c),
(731,-23,o),
(774,29,o),
(817,80,c)
);
}
);
width = 812;
}
);
note = u;
unicode = (117,249,250,251,252);
},
{
glyphname = v;
kernRight = v;
layers = (
{
layerId = m01;
shapes = (
{
closed = 1;
nodes = (
(457,157,o),
(475,186,o),
(491,216,cs),
(524,278,o),
(551,344,o),
(569,412,cs),
(585,468,o),
(596,527,o),
(591,585,cs),
(589,624,o),
(576,667,o),
(547,694,cs),
(535,705,o),
(522,716,o),
(507,723,c),
(464,672,o),
(422,621,o),
(379,570,c),
(381,568,o),
(391,559,o),
(393,558,cs),
(411,549,o),
(425,531,o),
(433,512,cs),
(453,468,o),
(452,415,o),
(447,367,cs),
(438,298,o),
(418,231,o),
(392,167,c),
(358,218,o),
(339,276,o),
(319,334,cs),
(290,419,o),
(265,506,o),
(223,586,cs),
(202,626,o),
(176,666,o),
(141,695,cs),
(139,697,o),
(125,709,o),
(123,711,c),
(80,660,o),
(37,609,o),
(-6,558,c),
(39,520,o),
(71,467,o),
(95,414,cs),
(142,315,o),
(167,206,o),
(209,105,cs),
(224,70,o),
(240,35,o),
(264,5,cs),
(275,-8,o),
(288,-19,o),
(302,-30,c),
(318,-10,o),
(420,110,o),
(436,130,cs)
);
}
);
width = 596;
}
);
note = v;
unicode = 118;
},
{
glyphname = w;
kernRight = v;
layers = (
{
layerId = m01;
shapes = (
{
closed = 1;
nodes = (
(784,183,o),
(825,250,o),
(853,322,cs),
(873,372,o),
(887,426,o),
(887,479,cs),
(888,536,o),
(874,595,o),
(846,643,cs),
(828,673,o),
(803,698,o),
(776,720,cs),
(753,738,o),
(723,751,o),
(693,755,cs),
(654,760,o),
(612,752,o),
(575,737,c),
(533,686,o),
(490,635,o),
(447,584,c),
(449,582,o),
(459,574,o),
(461,572,c),
(495,586,o),
(533,594,o),
(569,591,cs),
(597,588,o),
(625,579,o),
(648,564,cs),
(673,548,o),
(692,522,o),
(706,496,cs),
(732,449,o),
(745,392,o),
(745,338,cs),
(744,276,o),
(726,215,o),
(702,159,c),
(656,245,o),
(605,328,o),
(551,409,cs),
(528,442,o),
(505,476,o),
(481,508,cs),
(479,510,o),
(469,518,o),
(467,520,c),
(424,469,o),
(381,418,o),
(338,367,c),
(322,326,o),
(307,284,o),
(292,242,c),
(245,341,o),
(196,438,o),
(139,531,cs),
(137,534,o),
(127,542,o),
(125,544,c),
(82,493,o),
(39,442,o),
(-4,390,c),
(37,323,o),
(74,252,o),
(110,182,cs),
(144,114,o),
(177,46,o),
(203,-26,cs),
(204,-29,o),
(214,-36,o),
(217,-38,c),
(260,13,o),
(303,64,o),
(345,115,c),
(363,171,o),
(381,226,o),
(399,281,c),
(467,181,o),
(532,77,o),
(584,-32,c),
(586,-35,o),
(596,-42,o),
(598,-44,c),
(616,-23,o),
(720,100,o),
(737,121,cs)
);
}
);
width = 892;
}
);
note = w;
unicode = 119;
},
{
glyphname = x;
kernRight = x;
layers = (
{
layerId = m01;
shapes = (
{
closed = 1;
nodes = (
(170,104,o),
(169,105,o),
(169,106,cs),
(177,139,o),
(197,170,o),
(219,197,c),
(261,136,o),
(300,71,o),
(356,23,cs),
(382,0,o),
(409,-22,o),
(441,-34,cs),
(467,-45,o),
(496,-51,o),
(523,-46,cs),
(530,-45,o),
(548,-39,o),
(552,-34,cs),
(595,17,o),
(638,67,o),
(680,118,c),
(676,122,o),
(671,126,o),
(667,130,c),
(658,125,o),
(649,121,o),
(639,119,cs),
(609,114,o),
(577,120,o),
(549,133,cs),
(531,142,o),
(512,152,o),
(497,166,cs),
(443,215,o),
(402,278,o),
(361,339,c),
(409,382,o),
(458,423,o),
(507,465,cs),
(508,466,o),
(510,467,o),
(511,468,cs),
(554,520,o),
(597,571,o),
(641,623,c),
(635,628,o),
(630,633,o),
(624,637,c),
(621,634,o),
(610,619,o),
(607,617,cs),
(513,539,o),
(422,458,o),
(340,368,c),
(303,421,o),
(262,472,o),
(214,515,cs),
(201,527,o),
(144,576,o),
(128,583,c),
(127,583,o),
(125,583,o),
(124,582,cs),
(108,563,o),
(12,447,o),
(-4,428,c),
(-2,427,o),
(8,418,o),
(10,416,c),
(10,416,o),
(12,419,o),
(13,418,c),
(36,408,o),
(54,390,o),
(72,374,cs),
(123,327,o),
(167,271,o),
(207,214,c),
(156,153,o),
(103,94,o),
(58,29,cs),
(50,17,o),
(27,-23,o),
(27,-37,cs),
(27,-42,o),
(37,-47,o),
(41,-50,c),
(84,1,o),
(127,52,o),
(169,103,cs)
);
}
);
width = 677;
}
);
note = x;
unicode = 120;
},
{
glyphname = y;
kernLeft = y;
kernRight = y;
lastChange = "2024-02-25 02:20:53 +0000";
layers = (
{
layerId = m01;
shapes = (
{
closed = 1;
nodes = (
(517,-163,cs),
(597,-115,o),
(681,49,o),
(733,165,cs),
(758,221,o),
(779,286,o),
(771,347,cs),
(761,423,o),
(717,489,o),
(691,561,cs),
(679,595,o),
(671,631,o),
(671,668,cs),
(671,672,o),
(660,677,o),
(657,680,c),
(614,629,o),
(571,578,o),
(528,527,c),
(528,441,o),
(496,316,o),
(461,237,c),
(443,229,o),
(421,225,o),
(402,230,cs),
(393,232,o),
(385,236,o),
(378,241,cs),
(375,243,o),
(367,253,o),
(365,255,cs),
(346,281,o),
(320,406,o),
(312,437,cs),
(300,484,o),
(284,531,o),
(257,572,c),
(255,574,o),
(245,582,o),
(242,584,c),
(199,533,o),
(157,482,o),
(114,431,c),
(139,394,o),
(155,350,o),
(167,307,cs),
(183,242,o),
(193,175,o),
(222,115,cs),
(230,98,o),
(267,71,o),
(284,66,cs),
(302,61,o),
(320,67,o),
(338,69,cs),
(442,83,o),
(557,291,o),
(580,348,c),
(604,297,o),
(627,242,o),
(631,186,cs),
(634,142,o),
(623,44,o),
(592,12,cs),
(555,-26,o),
(523,-37,o),
(470,-41,cs),
(420,-44,o),
(370,-43,o),
(320,-43,cs),
(284,-43,o),
(246,-37,o),
(212,-23,cs),
(189,-13,o),
(164,-1,o),
(148,19,cs),
(135,34,o),
(125,51,o),
(120,70,cs),
(114,89,o),
(114,110,o),
(118,130,cs),
(124,156,o),
(137,181,o),
(153,203,c),
(152,205,o),
(141,213,o),
(140,215,c),
(122,194,o),
(22,77,o),
(6,54,cs),
(-15,25,o),
(-29,-12,o),
(-27,-48,cs),
(-24,-80,o),
(-7,-113,o),
(17,-135,cs),
(36,-152,o),
(56,-169,o),
(79,-180,cs),
(168,-223,o),
(346,-266,o)
);
}
);
width = 816;
}
);
note = y;
unicode = (121,253,255);
},
{
glyphname = z;
kernRight = z;
layers = (
{
layerId = m01;
shapes = (
{
closed = 1;
nodes = (
(545,-49,o),
(557,-44,o),
(564,-35,cs),
(605,14,o),
(646,63,o),
(687,112,cs),
(691,117,o),
(696,122,o),
(698,128,cs),
(702,139,o),
(702,151,o),
(701,163,c),
(700,164,o),
(689,173,o),
(688,174,c),
(670,154,o),
(653,133,o),
(635,112,c),
(599,109,o),
(561,123,o),
(528,139,cs),
(485,161,o),
(445,189,o),
(407,219,cs),
(381,240,o),
(357,267,o),
(325,280,cs),
(309,287,o),
(288,286,o),
(271,281,c),
(303,325,o),
(335,370,o),
(369,413,cs),
(372,417,o),
(395,440,o),
(398,444,cs),
(414,463,o),
(511,579,o),
(527,598,cs),
(528,599,o),
(530,600,o),
(529,601,cs),
(526,604,o),
(517,613,o),
(514,614,c),
(512,614,o),
(506,612,o),
(504,611,cs),
(453,595,o),
(402,579,o),
(350,570,cs),
(304,563,o),
(258,560,o),
(212,563,cs),
(189,565,o),
(164,569,o),
(145,581,cs),
(144,582,o),
(145,583,o),
(145,583,c),
(139,588,o),
(133,593,o),
(127,597,c),
(84,546,o),
(41,495,o),
(-2,444,c),
(14,427,o),
(33,411,o),
(56,405,cs),
(91,396,o),
(129,396,o),
(165,398,cs),
(232,402,o),
(299,418,o),
(363,438,c),
(296,359,o),
(230,278,o),
(169,195,cs),
(158,180,o),
(89,100,o),
(78,86,cs),
(64,69,o),
(20,17,o),
(19,-5,c),
(18,-10,o),
(29,-16,o),
(32,-19,c),
(34,-18,o),
(40,-12,o),
(41,-11,cs),
(75,29,o),
(109,70,o),
(142,110,cs),
(144,112,o),
(152,114,o),
(154,115,cs),
(173,122,o),
(196,123,o),
(213,114,cs),
(225,108,o),
(236,101,o),
(246,93,cs),
(298,51,o),
(349,6,o),
(409,-24,cs),
(447,-43,o),
(492,-58,o),
(534,-51,cs)
);
}
);
width = 698;
}
);
note = z;
unicode = 122;
},
{
glyphname = braceleft;
kernRight = braceleft;
layers = (
{
layerId = m01;
shapes = (
{
closed = 1;
nodes = (
(334,84,o),
(332,96,o),
(327,108,cs),
(315,135,o),
(298,159,o),
(281,183,cs),
(262,208,o),
(243,234,o),
(221,257,cs),
(205,273,o),
(187,287,o),
(168,300,c),
(165,303,o),
(165,309,o),
(166,313,cs),
(175,343,o),
(254,463,o),
(253,495,cs),
(253,504,o),
(236,523,o),
(229,530,cs),
(201,560,o),
(131,604,o),
(149,641,cs),
(151,645,o),
(167,658,o),
(169,661,cs),
(212,712,o),
(255,763,o),
(297,814,c),
(296,815,o),
(285,824,o),
(283,825,c),
(279,821,o),
(274,817,o),
(270,813,cs),
(193,734,o),
(125,647,o),
(54,562,cs),
(42,548,o),
(4,505,o),
(3,487,cs),
(2,468,o),
(35,436,o),
(49,423,cs),
(63,411,o),
(107,374,o),
(111,356,cs),
(113,346,o),
(98,316,o),
(94,306,cs),
(79,276,o),
(63,248,o),
(47,219,cs),
(42,210,o),
(23,176,o),
(23,165,cs),
(23,162,o),
(25,159,o),
(27,157,cs),
(40,143,o),
(56,135,o),
(70,123,cs),
(89,107,o),
(104,86,o),
(119,67,cs),
(144,35,o),
(169,2,o),
(185,-35,cs),
(187,-40,o),
(194,-65,o),
(197,-70,cs),
(198,-72,o),
(208,-80,o),
(211,-81,c),
(253,-30,o),
(296,21,o),
(339,72,c)
);
}
);
width = 325;
}
);
note = braceleft;
unicode = 123;
},
{
glyphname = verticalbar;
layers = (
{
layerId = m01;
shapes = (
{
closed = 1;
nodes = (
(184,-18,o),
(180,-14,o),
(180,-12,cs),
(171,44,o),
(169,101,o),
(169,158,cs),
(168,224,o),
(178,619,o),
(179,685,cs),
(180,729,o),
(181,773,o),
(187,817,cs),
(187,819,o),
(194,825,o),
(194,827,c),
(191,835,o),
(183,840,o),
(177,845,c),
(161,826,o),
(63,710,o),
(47,691,c),
(42,663,o),
(40,635,o),
(39,607,cs),
(37,574,o),
(34,370,o),
(33,337,cs),
(30,238,o),
(25,138,o),
(26,39,cs),
(27,-26,o),
(27,-92,o),
(38,-156,cs),
(39,-164,o),
(48,-169,o),
(54,-174,c),
(96,-123,o),
(139,-72,o),
(182,-20,cs)
);
}
);
width = 206;
}
);
note = verticalbar;
unicode = 124;
},
{
glyphname = braceright;
layers = (
{
layerId = m01;
shapes = (
{
closed = 1;
nodes = (
(135,96,o),
(141,118,o),
(154,133,cs),
(172,156,o),
(274,276,o),
(290,300,cs),
(309,329,o),
(316,369,o),
(308,402,cs),
(304,418,o),
(300,434,o),
(290,447,cs),
(266,482,o),
(236,513,o),
(201,537,c),
(197,539,o),
(200,546,o),
(202,551,cs),
(217,582,o),
(237,610,o),
(254,640,cs),
(260,651,o),
(268,663,o),
(268,676,cs),
(269,690,o),
(255,702,o),
(245,712,cs),
(203,748,o),
(163,786,o),
(131,830,cs),
(127,836,o),
(120,841,o),
(114,846,c),
(71,795,o),
(28,744,o),
(-15,693,c),
(-14,691,o),
(-9,682,o),
(-8,681,cs),
(-7,680,o),
(-1,675,o),
(0,674,cs),
(25,641,o),
(54,612,o),
(85,585,cs),
(94,577,o),
(122,553,o),
(125,542,cs),
(129,527,o),
(119,511,o),
(112,498,cs),
(104,485,o),
(63,419,o),
(58,404,cs),
(57,401,o),
(56,399,o),
(57,396,cs),
(61,386,o),
(95,367,o),
(102,360,cs),
(120,344,o),
(134,325,o),
(148,306,cs),
(156,294,o),
(161,280,o),
(164,265,cs),
(171,234,o),
(170,198,o),
(155,170,c),
(153,168,o),
(147,157,o),
(145,155,cs),
(114,118,o),
(83,81,o),
(52,44,cs),
(34,23,o),
(16,1,o),
(2,-23,cs),
(-4,-34,o),
(-7,-47,o),
(-6,-59,cs),
(-6,-60,o),
(-6,-64,o),
(-5,-65,c),
(-4,-68,o),
(6,-75,o),
(8,-77,c),
(51,-26,o),
(94,25,o),
(137,77,c)
);
}
);
width = 312;
}
);
note = braceright;
unicode = 125;
},
{
glyphname = asciitilde;
layers = (
{
layerId = m01;
shapes = (
{
closed = 1;
nodes = (
(91,330,o),
(136,356,o),
(185,364,cs),
(211,369,o),
(238,365,o),
(264,360,cs),
(317,348,o),
(369,327,o),
(421,311,cs),
(459,300,o),
(497,289,o),
(535,279,cs),
(571,269,o),
(610,259,o),
(647,266,cs),
(690,274,o),
(735,295,o),
(765,327,cs),
(791,356,o),
(933,527,o),
(957,557,c),
(955,558,o),
(945,567,o),
(943,568,c),
(933,557,o),
(881,493,o),
(870,483,cs),
(840,454,o),
(797,436,o),
(755,430,cs),
(732,427,o),
(708,430,o),
(685,435,cs),
(662,440,o),
(535,476,o),
(513,483,cs),
(471,497,o),
(429,512,o),
(386,522,cs),
(354,530,o),
(320,534,o),
(288,527,cs),
(230,514,o),
(179,478,o),
(136,438,c),
(133,436,o),
(130,433,o),
(128,430,cs),
(85,380,o),
(43,329,o),
(0,278,cs),
(-4,273,o),
(-10,263,o),
(-7,258,c),
(-6,255,o),
(4,248,o),
(6,246,c),
(13,254,o),
(44,294,o),
(52,300,cs)
);
}
);
width = 947;
}
);
note = asciitilde;
unicode = 126;
},
{
glyphname = cent;
layers = (
{
layerId = m01;
shapes = (
{
closed = 1;
nodes = (
(550,-38,o),
(512,68,o),
(504,87,c),
(530,109,o),
(556,131,o),
(578,157,cs),
(596,179,o),
(699,300,o),
(715,322,c),
(713,324,o),
(703,332,o),
(701,334,c),
(641,262,o),
(563,198,o),
(475,164,cs),
(473,163,o),
(470,168,o),
(468,169,cs),
(463,173,o),
(457,158,o),
(451,156,cs),
(417,145,o),
(379,142,o),
(343,148,cs),
(302,156,o),
(262,180,o),
(233,210,cs),
(207,237,o),
(183,267,o),
(165,299,cs),
(150,324,o),
(139,352,o),
(137,381,c),
(202,408,o),
(275,422,o),
(344,415,cs),
(383,411,o),
(420,397,o),
(456,382,c),
(498,433,o),
(541,484,o),
(584,535,c),
(582,537,o),
(572,546,o),
(569,547,cs),
(527,565,o),
(481,580,o),
(435,581,cs),
(387,582,o),
(338,575,o),
(292,560,c),
(290,560,o),
(293,561,o),
(294,563,c),
(294,565,o),
(291,572,o),
(291,574,c),
(281,600,o),
(269,625,o),
(260,651,cs),
(246,689,o),
(238,729,o),
(228,768,cs),
(227,774,o),
(219,802,o),
(216,807,cs),
(214,810,o),
(203,819,o),
(200,821,c),
(157,770,o),
(114,719,o),
(72,668,cs),
(70,666,o),
(75,662,o),
(76,659,cs),
(81,647,o),
(98,578,o),
(101,565,cs),
(110,527,o),
(124,491,o),
(139,455,c),
(103,412,o),
(67,369,o),
(31,326,cs),
(15,308,o),
(2,285,o),
(-3,261,cs),
(-8,239,o),
(-4,214,o),
(5,193,cs),
(28,139,o),
(66,91,o),
(108,52,cs),
(134,28,o),
(162,7,o),
(194,-6,cs),
(239,-25,o),
(295,-22,o),
(342,-7,c),
(368,-68,o),
(391,-131,o),
(414,-193,cs),
(417,-200,o),
(424,-204,o),
(430,-209,c),
(473,-158,o),
(516,-107,o),
(559,-56,c)
);
}
);
width = 697;
}
);
note = cent;
unicode = 162;
},
{
glyphname = sterling;
layers = (
{
layerId = m01;
shapes = (
{
closed = 1;
nodes = (
(37,-173,o),
(43,-166,o),
(50,-160,cs),
(73,-139,o),
(182,-6,o),
(202,18,c),
(262,55,o),
(338,77,o),
(407,66,cs),
(466,57,o),
(522,34,o),
(578,15,cs),
(628,-2,o),
(680,-14,o),
(732,-22,cs),
(743,-24,o),
(754,-25,o),
(766,-25,c),
(781,-6,o),
(878,111,o),
(894,129,c),
(889,134,o),
(883,141,o),
(876,141,c),
(875,142,o),
(875,140,o),
(873,140,cs),
(865,140,o),
(856,141,o),
(847,143,cs),
(796,150,o),
(746,162,o),
(696,178,cs),
(653,192,o),
(610,210,o),
(566,222,cs),
(529,231,o),
(489,236,o),
(451,232,cs),
(404,226,o),
(359,209,o),
(319,184,c),
(342,225,o),
(364,267,o),
(382,311,cs),
(388,326,o),
(394,341,o),
(398,357,c),
(441,349,o),
(485,342,o),
(529,345,c),
(571,396,o),
(614,447,o),
(657,498,c),
(654,501,o),
(646,510,o),
(642,510,cs),
(576,505,o),
(510,524,o),
(444,531,cs),
(415,534,o),
(386,534,o),
(357,533,c),
(337,574,o),
(314,618,o),
(317,663,c),
(348,680,o),
(386,684,o),
(422,684,cs),
(444,684,o),
(468,684,o),
(489,676,c),
(531,727,o),
(574,778,o),
(617,829,c),
(615,830,o),
(606,839,o),
(603,840,c),
(598,843,o),
(577,847,o),
(571,848,c),
(525,850,o),
(475,851,o),
(435,829,cs),
(400,811,o),
(369,784,o),
(343,754,cs),
(301,703,o),
(258,653,o),
(215,602,cs),
(200,583,o),
(185,563,o),
(178,539,cs),
(172,519,o),
(174,496,o),
(179,476,c),
(168,468,o),
(119,430,o),
(110,420,cs),
(95,401,o),
(-2,284,o),
(-18,266,c),
(-16,264,o),
(-6,256,o),
(-4,254,c),
(12,274,o),
(33,289,o),
(54,304,cs),
(103,340,o),
(165,359,o),
(226,366,c),
(241,334,o),
(257,300,o),
(260,264,cs),
(262,232,o),
(252,199,o),
(240,169,cs),
(228,141,o),
(215,114,o),
(201,87,cs),
(200,85,o),
(201,86,o),
(200,85,cs),
(179,63,o),
(67,-71,o),
(48,-94,cs),
(35,-110,o),
(24,-129,o),
(17,-148,cs),
(14,-154,o),
(8,-163,o),
(12,-167,cs),
(17,-171,o),
(24,-181,o),
(30,-177,cs)
);
}
);
width = 875;
}
);
note = sterling;
unicode = 163;
},
{
glyphname = currency;
layers = (
{
layerId = m01;
shapes = (
{
closed = 1;
nodes = (
(91,133,o),
(105,147,o),
(108,149,cs),
(109,150,o),
(115,152,o),
(116,153,cs),
(121,159,o),
(127,166,o),
(132,172,c),
(149,150,o),
(174,133,o),
(201,129,cs),
(257,123,o),
(317,142,o),
(364,171,c),
(368,166,o),
(391,141,o),
(396,136,cs),
(419,114,o),
(444,93,o),
(472,76,c),
(515,128,o),
(558,179,o),
(601,230,c),
(598,231,o),
(588,240,o),
(586,242,c),
(556,260,o),
(529,283,o),
(508,311,cs),
(506,313,o),
(502,317,o),
(505,320,cs),
(531,351,o),
(560,382,o),
(578,419,cs),
(591,446,o),
(602,476,o),
(601,505,cs),
(600,534,o),
(589,562,o),
(574,586,c),
(615,635,o),
(656,684,o),
(697,732,c),
(695,734,o),
(685,743,o),
(683,744,c),
(672,732,o),
(660,720,o),
(649,709,cs),
(619,675,o),
(590,641,o),
(561,606,c),
(540,633,o),
(515,658,o),
(486,676,cs),
(475,684,o),
(460,687,o),
(447,686,c),
(444,685,o),
(430,682,o),
(427,682,cs),
(405,681,o),
(382,682,o),
(362,674,cs),
(336,665,o),
(313,648,o),
(293,629,cs),
(284,621,o),
(240,568,o),
(232,559,c),
(221,569,o),
(158,632,o),
(147,642,c),
(146,642,o),
(149,645,o),
(149,645,c),
(147,647,o),
(137,655,o),
(135,657,c),
(118,637,o),
(21,520,o),
(4,500,c),
(6,498,o),
(15,491,o),
(17,489,cs),
(49,458,o),
(79,425,o),
(113,397,c),
(88,338,o),
(93,265,o),
(115,205,c),
(100,187,o),
(7,76,o),
(-8,58,c),
(-9,56,o),
(-12,54,o),
(-10,52,cs),
(-9,51,o),
(1,42,o),
(3,41,c),
(29,72,o),
(58,101,o),
(88,130,cs)
);
},
{
closed = 1;
nodes = (
(260,314,o),
(245,383,o),
(241,415,cs),
(236,446,o),
(238,478,o),
(245,509,c),
(260,514,o),
(277,516,o),
(292,516,cs),
(295,516,o),
(298,510,o),
(300,511,cs),
(307,516,o),
(317,517,o),
(326,517,cs),
(328,517,o),
(328,520,o),
(330,521,c),
(340,522,o),
(351,521,o),
(360,517,cs),
(400,502,o),
(449,427,o),
(457,385,cs),
(460,364,o),
(458,342,o),
(453,321,c),
(422,306,o),
(387,295,o),
(352,293,cs),
(331,292,o),
(309,293,o),
(290,301,cs)
);
}
);
width = 654;
}
);
note = currency;
unicode = 164;
},
{
glyphname = yen;
layers = (
{
layerId = m01;
shapes = (
{
closed = 1;
nodes = (
(567,11,o),
(557,56,o),
(548,101,c),
(614,99,o),
(679,93,o),
(745,86,c),
(788,137,o),
(831,188,o),
(873,239,c),
(871,242,o),
(862,251,o),
(859,251,cs),
(741,264,o),
(623,269,o),
(505,267,c),
(500,283,o),
(494,299,o),
(489,314,c),
(552,316,o),
(617,320,o),
(680,311,c),
(723,362,o),
(766,413,o),
(808,465,c),
(806,467,o),
(797,476,o),
(794,476,cs),
(759,481,o),
(723,481,o),
(688,481,cs),
(611,480,o),
(534,477,o),
(457,477,cs),
(456,477,o),
(457,480,o),
(458,482,cs),
(464,502,o),
(513,587,o),
(523,605,c),
(569,643,o),
(619,677,o),
(671,704,c),
(714,755,o),
(757,806,o),
(800,857,c),
(798,859,o),
(788,867,o),
(786,869,c),
(703,826,o),
(625,768,o),
(565,696,cs),
(525,649,o),
(485,601,o),
(445,554,cs),
(431,537,o),
(417,519,o),
(405,501,c),
(362,579,o),
(313,654,o),
(257,724,cs),
(221,768,o),
(181,810,o),
(133,840,c),
(132,841,o),
(134,842,o),
(134,843,c),
(132,844,o),
(122,853,o),
(120,854,c),
(77,803,o),
(35,752,o),
(-8,701,cs),
(-9,700,o),
(-11,698,o),
(-10,697,cs),
(1,685,o),
(17,677,o),
(30,668,cs),
(56,649,o),
(78,625,o),
(99,600,cs),
(136,557,o),
(170,511,o),
(201,463,c),
(188,462,o),
(174,461,o),
(161,463,c),
(160,464,o),
(153,465,o),
(151,465,c),
(151,464,o),
(149,462,o),
(149,461,c),
(133,443,o),
(36,326,o),
(21,308,c),
(22,306,o),
(32,298,o),
(34,297,cs),
(35,296,o),
(36,299,o),
(37,300,cs),
(39,301,o),
(45,299,o),
(47,299,c),
(61,296,o),
(77,297,o),
(91,299,cs),
(156,305,o),
(222,311,o),
(287,311,c),
(296,294,o),
(304,277,o),
(311,260,c),
(288,258,o),
(168,243,o),
(145,238,c),
(102,187,o),
(59,136,o),
(16,85,c),
(22,81,o),
(27,73,o),
(33,74,cs),
(45,77,o),
(115,87,o),
(127,88,cs),
(208,98,o),
(289,101,o),
(370,102,c),
(393,24,o),
(410,-56,o),
(424,-137,cs),
(426,-150,o),
(428,-162,o),
(430,-175,cs),
(431,-179,o),
(441,-185,o),
(444,-188,c),
(487,-137,o),
(530,-86,o),
(573,-35,c)
);
}
);
width = 857;
}
);
note = yen;
unicode = 165;
},
{
glyphname = brokenbar;
layers = (
{
layerId = m01;
shapes = (
{
closed = 1;
nodes = (
(169,548,o),
(170,563,o),
(170,567,cs),
(174,620,o),
(174,673,o),
(176,726,cs),
(177,771,o),
(177,817,o),
(185,861,cs),
(185,862,o),
(190,868,o),
(190,869,cs),
(191,875,o),
(179,883,o),
(174,887,c),
(131,836,o),
(88,785,o),
(45,734,c),
(38,708,o),
(37,680,o),
(35,653,cs),
(34,620,o),
(31,441,o),
(26,408,cs),
(26,407,o),
(23,405,o),
(24,403,c),
(26,401,o),
(36,394,o),
(38,392,c),
(81,443,o),
(124,494,o),
(167,545,cs)
);
},
{
closed = 1;
nodes = (
(180,77,o),
(181,91,o),
(181,106,cs),
(182,121,o),
(179,211,o),
(179,227,cs),
(178,281,o),
(179,335,o),
(177,389,cs),
(177,392,o),
(177,412,o),
(177,415,cs),
(177,417,o),
(183,420,o),
(181,422,cs),
(175,427,o),
(168,437,o),
(163,431,cs),
(121,380,o),
(78,330,o),
(36,279,cs),
(34,277,o),
(34,271,o),
(34,269,cs),
(35,232,o),
(39,5,o),
(39,-33,cs),
(39,-48,o),
(38,-64,o),
(34,-79,c),
(36,-81,o),
(46,-89,o),
(48,-91,c),
(91,-40,o),
(134,11,o),
(177,63,c)
);
}
);
width = 207;
}
);
note = brokenbar;
unicode = 166;
},
{
glyphname = section;
layers = (
{
layerId = m01;
shapes = (
{
closed = 1;
nodes = (
(433,-115,o),
(458,-94,o),
(479,-70,cs),
(496,-50,o),
(598,72,o),
(615,92,cs),
(642,124,o),
(665,163,o),
(674,205,cs),
(680,229,o),
(680,256,o),
(671,279,cs),
(663,299,o),
(647,317,o),
(630,331,cs),
(614,345,o),
(594,356,o),
(573,358,cs),
(553,359,o),
(532,354,o),
(513,346,c),
(549,388,o),
(574,442,o),
(578,497,cs),
(578,505,o),
(578,514,o),
(575,521,cs),
(571,531,o),
(557,545,o),
(547,546,cs),
(488,554,o),
(428,534,o),
(369,532,cs),
(325,531,o),
(278,544,o),
(242,570,cs),
(223,583,o),
(209,605,o),
(203,628,cs),
(196,653,o),
(200,680,o),
(204,706,c),
(232,704,o),
(260,694,o),
(285,680,cs),
(329,657,o),
(365,620,o),
(394,580,c),
(396,578,o),
(407,570,o),
(409,568,c),
(452,619,o),
(495,670,o),
(537,721,c),
(517,749,o),
(493,775,o),
(467,797,cs),
(437,822,o),
(404,847,o),
(367,860,cs),
(344,868,o),
(320,874,o),
(297,870,cs),
(275,867,o),
(254,854,o),
(240,838,cs),
(224,819,o),
(124,700,o),
(108,681,cs),
(95,665,o),
(86,646,o),
(78,627,cs),
(66,596,o),
(60,563,o),
(57,530,cs),
(55,509,o),
(58,486,o),
(68,466,cs),
(78,446,o),
(96,430,o),
(113,415,c),
(90,388,o),
(68,361,o),
(45,334,cs),
(4,285,o),
(-2,213,o),
(32,159,cs),
(47,133,o),
(70,113,o),
(93,95,cs),
(127,68,o),
(176,60,o),
(217,75,cs),
(284,99,o),
(336,153,o),
(401,182,cs),
(423,192,o),
(449,196,o),
(473,190,cs),
(478,189,o),
(498,180,o),
(503,177,c),
(525,157,o),
(536,124,o),
(536,95,cs),
(535,73,o),
(530,51,o),
(522,31,c),
(490,9,o),
(455,-8,o),
(418,-18,cs),
(395,-24,o),
(371,-28,o),
(347,-24,cs),
(323,-21,o),
(300,-14,o),
(277,-5,cs),
(252,5,o),
(228,16,o),
(206,32,cs),
(201,35,o),
(197,40,o),
(194,44,cs),
(189,50,o),
(183,55,o),
(178,60,c),
(135,9,o),
(92,-42,o),
(49,-94,c),
(56,-105,o),
(67,-113,o),
(77,-122,cs),
(100,-141,o),
(127,-155,o),
(155,-167,cs),
(185,-179,o),
(216,-191,o),
(249,-190,cs),
(305,-190,o),
(362,-166,o),
(407,-134,cs)
);
},
{
closed = 1;
nodes = (
(203,262,o),
(197,270,o),
(191,276,cs),
(164,306,o),
(150,350,o),
(153,390,c),
(188,374,o),
(227,366,o),
(266,368,cs),
(321,371,o),
(377,388,o),
(432,381,c),
(435,373,o),
(436,364,o),
(435,355,cs),
(434,332,o),
(428,310,o),
(420,288,c),
(385,264,o),
(347,239,o),
(304,233,cs),
(272,229,o),
(238,240,o),
(210,258,cs)
);
}
);
width = 670;
}
);
note = section;
unicode = 167;
},
{
glyphname = copyright;
layers = (
{
layerId = m01;
shapes = (
{
closed = 1;
nodes = (
(614,-88,o),
(691,-13,o),
(758,66,cs),
(843,167,o),
(930,267,o),
(1004,376,c),
(1003,377,o),
(992,386,o),
(990,387,c),
(948,336,o),
(905,285,o),
(862,234,cs),
(855,226,o),
(821,173,o),
(813,165,cs),
(770,122,o),
(724,81,o),
(673,49,cs),
(641,29,o),
(606,12,o),
(569,2,cs),
(488,-19,o),
(393,-4,o),
(321,39,cs),
(298,52,o),
(277,69,o),
(260,89,cs),
(218,137,o),
(189,197,o),
(174,259,cs),
(141,396,o),
(160,547,o),
(226,674,c),
(276,710,o),
(336,735,o),
(397,743,cs),
(498,756,o),
(607,728,o),
(690,669,cs),
(706,657,o),
(719,642,o),
(731,626,cs),
(755,594,o),
(768,555,o),
(768,515,cs),
(769,437,o),
(755,356,o),
(726,283,c),
(639,236,o),
(525,247,o),
(449,310,cs),
(409,344,o),
(380,394,o),
(369,446,cs),
(365,466,o),
(366,488,o),
(371,508,c),
(384,511,o),
(436,514,o),
(449,511,cs),
(469,507,o),
(486,495,o),
(500,480,cs),
(537,440,o),
(551,373,o),
(536,320,c),
(538,319,o),
(549,310,o),
(550,309,c),
(593,360,o),
(636,411,o),
(679,462,c),
(688,495,o),
(686,532,o),
(675,565,cs),
(662,601,o),
(636,633,o),
(606,655,cs),
(595,663,o),
(584,670,o),
(571,674,cs),
(555,679,o),
(537,678,o),
(520,677,cs),
(479,675,o),
(432,662,o),
(405,630,cs),
(388,611,o),
(289,493,o),
(273,473,cs),
(247,442,o),
(234,399,o),
(227,359,cs),
(220,325,o),
(227,289,o),
(242,258,cs),
(270,196,o),
(325,143,o),
(386,113,cs),
(441,86,o),
(511,83,o),
(569,101,cs),
(614,115,o),
(655,144,o),
(685,180,cs),
(728,230,o),
(770,281,o),
(813,332,cs),
(831,354,o),
(846,378,o),
(858,403,cs),
(895,482,o),
(911,571,o),
(911,657,cs),
(911,687,o),
(902,718,o),
(888,744,cs),
(868,780,o),
(837,810,o),
(804,834,cs),
(769,860,o),
(728,880,o),
(686,892,cs),
(612,914,o),
(528,917,o),
(453,895,cs),
(385,874,o),
(321,831,o),
(275,777,cs),
(258,757,o),
(155,635,o),
(139,615,cs),
(75,539,o),
(36,440,o),
(22,341,cs),
(9,248,o),
(16,148,o),
(50,60,cs),
(82,-26,o),
(154,-105,o),
(238,-142,cs),
(277,-160,o),
(321,-169,o),
(365,-171,cs),
(419,-175,o),
(475,-161,o),
(522,-136,cs)
);
}
);
width = 988;
}
);
note = copyright;
unicode = 169;
},
{
glyphname = guillemotleft;
layers = (
{
layerId = m01;
shapes = (
{
closed = 1;
nodes = (
(741,265,o),
(736,273,o),
(729,279,cs),
(717,292,o),
(701,301,o),
(687,312,cs),
(616,366,o),
(551,427,o),
(485,485,cs),
(482,487,o),
(474,495,o),
(473,498,cs),
(472,502,o),
(477,509,o),
(479,512,cs),
(546,592,o),
(616,670,o),
(671,759,cs),
(675,766,o),
(702,797,o),
(707,803,c),
(705,805,o),
(696,814,o),
(694,815,cs),
(690,816,o),
(684,813,o),
(682,810,cs),
(662,786,o),
(557,665,o),
(541,639,cs),
(516,597,o),
(489,555,o),
(458,517,cs),
(444,499,o),
(354,394,o),
(340,375,cs),
(338,373,o),
(331,363,o),
(331,359,cs),
(330,355,o),
(334,352,o),
(336,349,c),
(370,318,o),
(545,164,o),
(583,139,cs),
(592,133,o),
(597,124,o),
(603,116,c),
(605,115,o),
(615,107,o),
(617,105,c),
(660,156,o),
(703,207,o),
(746,258,c)
);
},
{
closed = 1;
nodes = (
(315,276,o),
(198,381,o),
(178,401,cs),
(162,417,o),
(145,433,o),
(135,454,c),
(132,458,o),
(127,468,o),
(130,472,cs),
(143,487,o),
(219,578,o),
(232,593,c),
(233,595,o),
(236,589,o),
(237,590,cs),
(280,641,o),
(323,692,o),
(365,743,c),
(362,749,o),
(355,754,o),
(349,758,cs),
(343,763,o),
(338,755,o),
(333,749,cs),
(292,700,o),
(251,651,o),
(209,601,cs),
(206,597,o),
(186,570,o),
(182,566,cs),
(157,537,o),
(15,372,o),
(-8,342,cs),
(-11,339,o),
(-13,334,o),
(-13,330,cs),
(-12,318,o),
(-5,306,o),
(2,295,cs),
(23,268,o),
(164,141,o),
(187,116,cs),
(193,110,o),
(199,105,o),
(205,100,c),
(247,151,o),
(290,202,o),
(333,254,c)
);
}
);
width = 732;
}
);
note = guillemotleft;
unicode = 171;
},
{
glyphname = logicalnot;
layers = (
{
layerId = m01;
shapes = (
{
closed = 1;
nodes = (
(407,-122,o),
(467,-97,o),
(522,-66,cs),
(557,-47,o),
(590,-22,o),
(616,9,cs),
(657,57,o),
(698,106,o),
(739,155,cs),
(750,168,o),
(760,184,o),
(761,201,cs),
(763,217,o),
(758,233,o),
(753,249,cs),
(733,301,o),
(710,353,o),
(689,405,cs),
(660,479,o),
(634,554,o),
(613,630,c),
(627,668,o),
(639,712,o),
(627,750,cs),
(619,775,o),
(604,798,o),
(584,814,cs),
(583,815,o),
(580,813,o),
(578,812,cs),
(576,811,o),
(575,809,o),
(573,807,cs),
(533,758,o),
(492,710,o),
(451,661,cs),
(443,651,o),
(445,619,o),
(447,607,cs),
(451,567,o),
(461,528,o),
(471,489,c),
(453,442,o),
(426,399,o),
(398,358,cs),
(397,357,o),
(387,358,o),
(386,359,c),
(382,367,o),
(378,374,o),
(375,382,cs),
(366,409,o),
(336,558,o),
(330,586,cs),
(322,624,o),
(313,663,o),
(297,698,cs),
(296,700,o),
(302,704,o),
(300,706,cs),
(296,709,o),
(293,712,o),
(289,715,cs),
(287,717,o),
(278,718,o),
(277,717,cs),
(235,666,o),
(192,615,o),
(149,564,c),
(179,525,o),
(209,333,o),
(221,284,cs),
(223,277,o),
(233,240,o),
(236,233,cs),
(239,225,o),
(243,218,o),
(249,212,cs),
(255,206,o),
(271,191,o),
(279,191,cs),
(293,192,o),
(303,204,o),
(312,214,cs),
(335,241,o),
(467,399,o),
(489,427,c),
(516,340,o),
(549,256,o),
(584,172,cs),
(596,144,o),
(608,116,o),
(616,87,c),
(562,60,o),
(503,37,o),
(442,28,cs),
(398,21,o),
(352,20,o),
(309,31,cs),
(280,39,o),
(251,52,o),
(227,71,cs),
(214,82,o),
(204,96,o),
(195,111,cs),
(174,146,o),
(163,186,o),
(157,226,cs),
(148,289,o),
(147,352,o),
(152,415,c),
(148,419,o),
(143,423,o),
(138,427,c),
(96,375,o),
(53,324,o),
(10,273,c),
(5,218,o),
(6,162,o),
(12,107,cs),
(17,58,o),
(28,6,o),
(55,-36,cs),
(77,-69,o),
(110,-97,o),
(145,-115,cs),
(205,-146,o),
(280,-148,o),
(345,-134,cs)
);
}
);
width = 752;
}
);
note = logicalnot;
unicode = 172;
},
{
glyphname = registered;
layers = (
{
layerId = m01;
shapes = (
{
closed = 1;
nodes = (
(704,-101,o),
(762,-56,o),
(806,-3,cs),
(823,17,o),
(926,139,o),
(942,159,cs),
(1000,233,o),
(1033,331,o),
(1034,425,cs),
(1034,540,o),
(990,649,o),
(911,732,cs),
(866,779,o),
(811,818,o),
(751,844,cs),
(662,881,o),
(563,888,o),
(468,863,cs),
(381,840,o),
(304,791,o),
(246,722,cs),
(228,701,o),
(123,576,o),
(106,554,cs),
(48,481,o),
(14,382,o),
(14,289,cs),
(13,174,o),
(57,64,o),
(137,-18,cs),
(182,-65,o),
(237,-105,o),
(297,-130,cs),
(406,-176,o),
(531,-176,o),
(641,-128,cs)
);
},
{
closed = 1;
nodes = (
(346,68,o),
(324,82,o),
(304,99,cs),
(234,162,o),
(185,245,o),
(166,337,cs),
(145,436,o),
(159,538,o),
(204,626,c),
(321,715,o),
(484,738,o),
(622,685,cs),
(665,668,o),
(708,646,o),
(743,615,cs),
(814,552,o),
(863,469,o),
(882,376,cs),
(903,278,o),
(889,176,o),
(844,88,c),
(708,-15,o),
(517,-28,o),
(369,56,cs)
);
},
{
closed = 1;
nodes = (
(548,162,o),
(650,124,o),
(755,92,c),
(798,143,o),
(841,194,o),
(883,245,c),
(881,247,o),
(872,256,o),
(869,257,cs),
(770,287,o),
(673,323,o),
(575,357,c),
(580,361,o),
(608,385,o),
(613,391,cs),
(655,441,o),
(698,492,o),
(741,543,c),
(738,545,o),
(730,554,o),
(726,555,cs),
(681,560,o),
(635,563,o),
(590,569,cs),
(553,573,o),
(514,580,o),
(480,598,cs),
(474,601,o),
(469,605,o),
(464,611,cs),
(448,630,o),
(441,657,o),
(440,682,cs),
(440,687,o),
(430,692,o),
(426,695,c),
(383,644,o),
(341,593,o),
(298,542,c),
(299,519,o),
(303,495,o),
(316,476,c),
(318,474,o),
(308,467,o),
(308,465,cs),
(319,344,o),
(330,223,o),
(340,102,c),
(341,98,o),
(351,92,o),
(354,89,c),
(385,125,o),
(415,161,o),
(445,197,c)
);
},
{
closed = 1;
nodes = (
(501,401,o),
(534,398,o),
(567,395,c),
(536,361,o),
(508,326,o),
(479,291,c),
(475,329,o),
(472,367,o),
(468,405,c)
);
}
);
width = 1048;
}
);
note = registered;
unicode = 174;
},
{
glyphname = degree;
layers = (
{
layerId = m01;
shapes = (
{
closed = 1;
nodes = (
(252,279,o),
(290,308,o),
(318,341,cs),
(362,394,o),
(407,447,o),
(451,500,cs),
(480,534,o),
(496,580,o),
(500,624,cs),
(505,661,o),
(486,699,o),
(465,730,cs),
(437,770,o),
(398,806,o),
(352,820,cs),
(340,823,o),
(328,827,o),
(317,825,c),
(310,825,o),
(304,821,o),
(298,816,cs),
(297,815,o),
(296,818,o),
(294,818,cs),
(276,816,o),
(260,803,o),
(249,789,cs),
(204,735,o),
(158,682,o),
(113,628,cs),
(77,585,o),
(45,537,o),
(26,484,cs),
(15,451,o),
(10,416,o),
(13,382,cs),
(15,356,o),
(28,332,o),
(48,314,cs),
(70,293,o),
(97,276,o),
(126,269,cs),
(154,262,o),
(184,259,o),
(210,267,cs)
);
},
{
closed = 1;
nodes = (
(140,475,o),
(145,568,o),
(173,637,cs),
(178,648,o),
(188,657,o),
(199,660,cs),
(226,666,o),
(277,641,o),
(297,622,cs),
(312,606,o),
(324,587,o),
(335,568,cs),
(347,547,o),
(357,525,o),
(359,501,cs),
(360,481,o),
(355,461,o),
(350,441,c),
(331,432,o),
(309,427,o),
(288,427,cs),
(261,427,o),
(234,435,o),
(209,445,cs)
);
}
);
width = 506;
}
);
note = degree;
unicode = 176;
},
{
glyphname = plusminus;
layers = (
{
layerId = m01;
shapes = (
{
closed = 1;
nodes = (
(387,411,o),
(385,449,o),
(384,487,c),
(409,488,o),
(433,491,o),
(457,495,cs),
(467,497,o),
(478,499,o),
(488,498,c),
(531,549,o),
(574,600,o),
(617,651,c),
(615,653,o),
(606,661,o),
(603,662,cs),
(595,666,o),
(567,659,o),
(558,658,cs),
(497,649,o),
(435,649,o),
(374,647,c),
(370,697,o),
(367,747,o),
(366,797,cs),
(366,827,o),
(366,857,o),
(364,888,cs),
(364,890,o),
(364,897,o),
(362,899,cs),
(361,900,o),
(351,908,o),
(349,910,c),
(306,859,o),
(263,808,o),
(221,757,c),
(225,717,o),
(224,678,o),
(224,639,c),
(210,637,o),
(136,630,o),
(122,626,c),
(121,626,o),
(119,626,o),
(118,625,cs),
(76,574,o),
(33,523,o),
(-10,472,c),
(-10,472,o),
(-10,470,o),
(-10,470,c),
(-4,465,o),
(2,460,o),
(8,455,cs),
(11,453,o),
(14,463,o),
(17,463,c),
(89,474,o),
(161,479,o),
(233,481,c),
(239,404,o),
(246,326,o),
(242,248,cs),
(242,247,o),
(240,246,o),
(240,244,cs),
(240,242,o),
(238,233,o),
(239,231,cs),
(241,228,o),
(251,221,o),
(253,219,c),
(296,270,o),
(340,322,o),
(383,374,c)
);
},
{
closed = 1;
nodes = (
(14,21,o),
(21,22,o),
(24,22,c),
(87,34,o),
(152,38,o),
(217,40,cs),
(250,42,o),
(435,40,o),
(468,45,cs),
(483,47,o),
(498,49,o),
(512,56,cs),
(519,60,o),
(525,66,o),
(530,73,cs),
(571,122,o),
(613,171,o),
(654,220,cs),
(655,221,o),
(657,223,o),
(656,223,c),
(654,225,o),
(644,233,o),
(642,235,c),
(634,224,o),
(621,217,o),
(607,214,cs),
(578,207,o),
(547,207,o),
(517,207,cs),
(464,206,o),
(410,208,o),
(357,206,cs),
(294,204,o),
(232,199,o),
(170,192,cs),
(159,191,o),
(126,188,o),
(119,180,cs),
(76,129,o),
(33,78,o),
(-9,27,cs),
(-15,20,o),
(-4,14,o),
(3,8,c),
(6,12,o),
(9,15,o),
(12,19,cs)
);
}
);
width = 642;
}
);
note = plusminus;
unicode = 177;
},
{
glyphname = twosuperior;
kernLeft = twosuperior;
layers = (
{
layerId = m01;
shapes = (
{
closed = 1;
nodes = (
(490,388,o),
(482,397,o),
(478,397,cs),
(415,401,o),
(352,406,o),
(288,406,cs),
(257,405,o),
(226,403,o),
(194,401,c),
(215,426,o),
(333,566,o),
(352,592,cs),
(373,620,o),
(393,651,o),
(404,684,cs),
(411,702,o),
(415,723,o),
(408,741,cs),
(404,751,o),
(384,767,o),
(373,770,cs),
(357,775,o),
(339,774,o),
(322,771,cs),
(291,766,o),
(261,752,o),
(235,735,cs),
(204,715,o),
(174,692,o),
(151,664,cs),
(130,640,o),
(23,518,o),
(7,491,cs),
(5,487,o),
(2,483,o),
(5,480,cs),
(7,478,o),
(21,467,o),
(23,465,c),
(48,495,o),
(74,526,o),
(99,556,cs),
(101,559,o),
(114,566,o),
(117,568,cs),
(148,589,o),
(185,605,o),
(222,608,cs),
(236,609,o),
(251,609,o),
(264,604,c),
(268,597,o),
(269,588,o),
(269,579,cs),
(268,558,o),
(262,537,o),
(252,518,cs),
(249,511,o),
(233,481,o),
(227,475,cs),
(218,466,o),
(167,417,o),
(159,408,cs),
(116,357,o),
(74,306,o),
(31,255,cs),
(29,253,o),
(27,250,o),
(29,249,c),
(31,247,o),
(41,237,o),
(45,236,cs),
(49,234,o),
(69,236,o),
(74,236,cs),
(103,238,o),
(132,240,o),
(162,241,cs),
(229,242,o),
(297,237,o),
(364,232,c),
(407,283,o),
(450,334,o),
(493,385,c)
);
}
);
width = 484;
}
);
note = twosuperior;
unicode = 178;
},
{
glyphname = threesuperior;
kernLeft = threesuperior;
layers = (
{
layerId = m01;
shapes = (
{
closed = 1;
nodes = (
(329,187,o),
(357,208,o),
(378,233,cs),
(419,282,o),
(460,331,o),
(502,381,cs),
(514,395,o),
(522,414,o),
(522,433,cs),
(521,463,o),
(505,494,o),
(483,517,cs),
(464,536,o),
(442,557,o),
(415,562,cs),
(404,563,o),
(393,564,o),
(382,563,c),
(399,584,o),
(415,605,o),
(430,627,cs),
(454,660,o),
(475,694,o),
(498,727,c),
(500,731,o),
(506,736,o),
(503,739,cs),
(501,741,o),
(492,749,o),
(489,750,cs),
(487,751,o),
(479,751,o),
(477,751,cs),
(422,748,o),
(367,748,o),
(313,755,cs),
(308,756,o),
(287,760,o),
(283,762,cs),
(281,763,o),
(274,771,o),
(272,772,c),
(270,772,o),
(267,771,o),
(265,770,c),
(223,719,o),
(180,668,o),
(138,617,c),
(142,612,o),
(148,608,o),
(153,604,cs),
(160,598,o),
(189,591,o),
(198,590,cs),
(250,583,o),
(303,583,o),
(355,586,c),
(327,544,o),
(300,501,o),
(270,460,cs),
(266,454,o),
(239,420,o),
(235,415,cs),
(233,412,o),
(228,408,o),
(231,406,cs),
(235,403,o),
(243,393,o),
(248,395,c),
(262,398,o),
(277,399,o),
(291,398,cs),
(312,397,o),
(331,387,o),
(344,371,cs),
(353,360,o),
(362,347,o),
(369,334,c),
(304,331,o),
(236,352,o),
(182,387,cs),
(155,405,o),
(145,468,o),
(147,500,cs),
(149,514,o),
(153,528,o),
(157,542,c),
(155,543,o),
(145,552,o),
(143,553,c),
(100,502,o),
(57,451,o),
(14,400,c),
(6,372,o),
(2,340,o),
(8,311,cs),
(13,286,o),
(24,261,o),
(42,243,cs),
(80,207,o),
(133,186,o),
(185,175,cs),
(222,168,o),
(262,165,o),
(298,177,cs)
);
}
);
width = 528;
}
);
note = threesuperior;
unicode = 179;
},
{
glyphname = paragraph;
layers = (
{
layerId = m01;
shapes = (
{
closed = 1;
nodes = (
(723,239,o),
(702,379,o),
(684,519,cs),
(680,553,o),
(656,749,o),
(649,782,c),
(649,784,o),
(652,786,o),
(651,788,cs),
(650,789,o),
(645,796,o),
(645,798,c),
(643,801,o),
(633,809,o),
(630,812,c),
(587,761,o),
(544,710,o),
(501,659,c),
(501,658,o),
(502,656,o),
(503,656,c),
(505,652,o),
(508,634,o),
(509,630,cs),
(515,597,o),
(539,398,o),
(543,365,cs),
(559,237,o),
(578,109,o),
(590,-19,c),
(591,-21,o),
(588,-22,o),
(588,-24,c),
(589,-27,o),
(590,-41,o),
(592,-44,cs),
(594,-47,o),
(604,-54,o),
(606,-56,c),
(649,-5,o),
(692,47,o),
(735,98,c)
);
},
{
closed = 1;
nodes = (
(498,89,o),
(498,99,o),
(497,109,cs),
(497,110,o),
(495,111,o),
(495,113,cs),
(487,194,o),
(474,274,o),
(463,355,cs),
(452,433,o),
(444,511,o),
(437,589,cs),
(437,591,o),
(437,590,o),
(437,591,cs),
(444,630,o),
(448,669,o),
(449,708,cs),
(449,719,o),
(449,747,o),
(441,754,cs),
(434,759,o),
(426,771,o),
(420,765,cs),
(414,758,o),
(381,719,o),
(375,712,c),
(365,716,o),
(353,722,o),
(342,720,cs),
(333,718,o),
(325,715,o),
(317,712,cs),
(261,688,o),
(208,651,o),
(168,604,cs),
(148,579,o),
(35,449,o),
(18,422,cs),
(2,399,o),
(-11,371,o),
(-11,343,cs),
(-11,313,o),
(4,283,o),
(23,261,cs),
(35,247,o),
(49,235,o),
(62,223,cs),
(79,209,o),
(98,196,o),
(119,191,cs),
(136,187,o),
(155,190,o),
(172,196,cs),
(194,205,o),
(213,222,o),
(229,241,cs),
(255,271,o),
(280,302,o),
(306,332,c),
(320,206,o),
(343,80,o),
(354,-47,c),
(355,-50,o),
(355,-60,o),
(356,-62,cs),
(358,-65,o),
(368,-72,o),
(370,-74,c),
(413,-23,o),
(456,28,o),
(498,79,c)
);
},
{
closed = 1;
nodes = (
(177,384,o),
(156,412,o),
(142,440,cs),
(131,461,o),
(129,488,o),
(135,510,c),
(152,522,o),
(213,556,o),
(234,556,cs),
(243,556,o),
(252,550,o),
(261,547,c),
(270,558,o),
(278,568,o),
(287,579,c),
(288,535,o),
(291,492,o),
(295,450,cs),
(295,447,o),
(293,436,o),
(292,434,c),
(286,408,o),
(279,381,o),
(270,356,c),
(247,352,o),
(225,356,o),
(205,368,cs)
);
}
);
width = 751;
}
);
note = paragraph;
unicode = 182;
},
{
glyphname = periodcentered;
kernRight = periodcentered;
layers = (
{
layerId = m01;
shapes = (
{
closed = 1;
nodes = (
(151,322,o),
(194,373,o),
(237,425,c),
(237,425,o),
(233,427,o),
(233,428,c),
(229,439,o),
(223,448,o),
(217,458,cs),
(197,490,o),
(173,519,o),
(152,550,cs),
(148,556,o),
(141,561,o),
(136,565,c),
(93,514,o),
(50,463,o),
(7,412,c),
(6,410,o),
(10,407,o),
(12,405,c),
(35,372,o),
(60,341,o),
(81,307,cs),
(85,299,o),
(89,291,o),
(92,283,cs),
(93,280,o),
(103,273,o),
(106,271,c),
(106,271,o),
(108,271,o),
(108,271,c)
);
}
);
width = 245;
}
);
note = periodcentered;
unicode = 183;
},
{
glyphname = onesuperior;
kernLeft = onesuperior;
layers = (
{
layerId = m01;
shapes = (
{
closed = 1;
nodes = (
(11,197,o),
(18,197,o),
(20,197,cs),
(42,197,o),
(63,197,o),
(84,198,cs),
(134,202,o),
(184,209,o),
(234,204,cs),
(249,202,o),
(265,199,o),
(280,196,cs),
(284,195,o),
(288,197,o),
(291,199,c),
(333,250,o),
(376,301,o),
(419,352,c),
(417,353,o),
(407,362,o),
(405,363,c),
(402,362,o),
(398,360,o),
(395,361,c),
(374,364,o),
(352,369,o),
(331,370,cs),
(311,371,o),
(292,370,o),
(273,369,c),
(275,372,o),
(281,376,o),
(280,379,c),
(278,395,o),
(279,411,o),
(280,427,cs),
(283,477,o),
(282,527,o),
(281,577,cs),
(280,615,o),
(279,653,o),
(282,690,cs),
(283,701,o),
(290,760,o),
(289,771,cs),
(289,772,o),
(289,775,o),
(288,776,cs),
(283,781,o),
(278,785,o),
(273,789,c),
(259,781,o),
(216,730,o),
(206,717,cs),
(183,690,o),
(47,528,o),
(25,501,c),
(23,497,o),
(20,494,o),
(19,490,c),
(20,489,o),
(31,480,o),
(32,479,c),
(70,524,o),
(108,569,o),
(146,614,c),
(143,582,o),
(139,550,o),
(138,517,cs),
(137,498,o),
(140,381,o),
(140,362,c),
(135,362,o),
(124,362,o),
(121,359,cs),
(78,308,o),
(36,257,o),
(-7,206,c),
(-2,202,o),
(4,192,o),
(10,196,cs)
);
}
);
width = 406;
}
);
note = onesuperior;
unicode = 185;
},
{
glyphname = guillemotright;
kernRight = guillemotright;
layers = (
{
layerId = m01;
shapes = (
{
closed = 1;
nodes = (
(559,347,o),
(597,391,o),
(635,436,cs),
(649,453,o),
(693,500,o),
(693,522,cs),
(693,532,o),
(674,560,o),
(667,568,cs),
(644,598,o),
(529,743,o),
(500,767,c),
(500,767,o),
(502,769,o),
(501,769,c),
(495,774,o),
(488,784,o),
(483,778,cs),
(440,727,o),
(397,676,o),
(355,625,c),
(356,624,o),
(366,615,o),
(368,614,cs),
(369,613,o),
(371,613,o),
(373,612,c),
(397,586,o),
(515,443,o),
(535,413,cs),
(541,404,o),
(556,385,o),
(550,376,cs),
(548,373,o),
(532,363,o),
(529,360,cs),
(487,309,o),
(444,258,o),
(401,207,c),
(403,206,o),
(413,197,o),
(415,196,c),
(456,225,o),
(489,263,o),
(522,302,cs)
);
},
{
closed = 1;
nodes = (
(277,357,o),
(339,440,o),
(345,468,cs),
(346,474,o),
(345,481,o),
(342,486,cs),
(324,525,o),
(199,682,o),
(171,715,cs),
(159,729,o),
(146,742,o),
(131,753,cs),
(126,757,o),
(119,762,o),
(115,758,cs),
(72,707,o),
(30,656,o),
(-13,605,c),
(-12,603,o),
(-7,593,o),
(-5,592,c),
(-4,590,o),
(6,582,o),
(8,581,c),
(10,579,o),
(15,589,o),
(16,587,c),
(34,568,o),
(123,455,o),
(139,434,cs),
(152,417,o),
(200,357,o),
(203,335,cs),
(204,325,o),
(199,315,o),
(194,307,cs),
(190,298,o),
(166,258,o),
(159,251,cs),
(122,207,o),
(85,162,o),
(48,118,c),
(52,114,o),
(57,110,o),
(61,106,c),
(130,179,o),
(194,258,o),
(258,335,cs)
);
}
);
width = 681;
}
);
note = guillemotright;
unicode = 187;
},
{
glyphname = onequarter;
kernLeft = onequarter;
kernRight = onequarter;
layers = (
{
layerId = m01;
shapes = (
{
closed = 1;
nodes = (
(117,123,o),
(194,214,o),
(271,306,cs),
(363,416,o),
(459,523,o),
(549,635,cs),
(552,639,o),
(574,660,o),
(577,664,cs),
(593,683,o),
(692,801,o),
(708,820,c),
(706,821,o),
(696,830,o),
(694,831,c),
(686,822,o),
(635,770,o),
(628,761,cs),
(610,740,o),
(501,610,o),
(483,589,cs),
(476,580,o),
(433,526,o),
(426,517,cs),
(360,441,o),
(297,362,o),
(230,287,cs),
(215,271,o),
(125,172,o),
(111,155,cs),
(95,136,o),
(-3,19,o),
(-19,0,cs),
(-23,-5,o),
(-27,-10,o),
(-30,-16,c),
(-28,-18,o),
(-18,-26,o),
(-16,-28,c),
(-10,-20,o),
(29,27,o),
(36,34,cs)
);
},
{
closed = 1;
nodes = (
(304,535,o),
(306,640,o),
(308,660,cs),
(311,700,o),
(318,739,o),
(324,779,cs),
(324,780,o),
(324,782,o),
(323,783,cs),
(318,787,o),
(311,796,o),
(306,794,cs),
(287,785,o),
(223,727,o),
(208,713,cs),
(204,710,o),
(187,694,o),
(184,691,cs),
(141,640,o),
(99,589,o),
(56,538,cs),
(55,537,o),
(54,536,o),
(55,536,c),
(61,530,o),
(68,520,o),
(73,526,cs),
(75,529,o),
(85,541,o),
(87,543,cs),
(117,571,o),
(146,598,o),
(179,621,c),
(176,607,o),
(166,531,o),
(165,517,cs),
(164,497,o),
(161,393,o),
(157,373,c),
(158,372,o),
(169,363,o),
(170,362,c),
(213,413,o),
(256,464,o),
(299,515,c)
);
},
{
closed = 1;
nodes = (
(724,215,o),
(723,243,o),
(724,271,cs),
(726,303,o),
(729,335,o),
(732,366,c),
(740,375,o),
(747,384,o),
(755,393,c),
(753,395,o),
(743,403,o),
(741,405,c),
(739,406,o),
(734,400,o),
(735,403,c),
(737,434,o),
(742,608,o),
(740,639,cs),
(740,649,o),
(740,659,o),
(737,669,c),
(737,671,o),
(734,683,o),
(734,685,cs),
(734,687,o),
(738,690,o),
(737,691,cs),
(736,692,o),
(726,700,o),
(724,702,c),
(723,702,o),
(721,702,o),
(720,701,cs),
(677,650,o),
(635,599,o),
(592,548,cs),
(591,547,o),
(591,543,o),
(592,541,c),
(599,513,o),
(599,484,o),
(598,455,cs),
(597,431,o),
(596,408,o),
(596,384,c),
(569,380,o),
(542,373,o),
(515,368,c),
(529,392,o),
(543,418,o),
(552,445,cs),
(559,467,o),
(563,491,o),
(565,514,cs),
(565,515,o),
(567,517,o),
(566,518,cs),
(564,519,o),
(554,528,o),
(552,529,c),
(509,478,o),
(467,427,o),
(424,376,cs),
(421,373,o),
(422,359,o),
(421,355,c),
(417,314,o),
(400,275,o),
(380,239,cs),
(376,231,o),
(372,224,o),
(368,216,cs),
(367,213,o),
(372,210,o),
(374,208,cs),
(377,205,o),
(380,201,o),
(385,201,c),
(389,200,o),
(404,204,o),
(408,204,c),
(437,211,o),
(466,218,o),
(495,221,cs),
(526,224,o),
(558,223,o),
(590,228,c),
(586,181,o),
(581,134,o),
(581,87,cs),
(581,74,o),
(581,60,o),
(581,47,cs),
(581,45,o),
(583,44,o),
(585,42,cs),
(588,40,o),
(591,37,o),
(595,34,c),
(637,85,o),
(680,136,o),
(723,187,c)
);
}
);
width = 771;
}
);
note = onequarter;
unicode = 188;
},
{
glyphname = onehalf;
kernLeft = onehalf;
kernRight = onehalf;
layers = (
{
layerId = m01;
shapes = (
{
closed = 1;
nodes = (
(20,9,o),
(126,135,o),
(143,156,cs),
(153,168,o),
(212,246,o),
(222,259,cs),
(350,423,o),
(485,583,o),
(607,753,cs),
(613,762,o),
(649,814,o),
(656,823,c),
(655,824,o),
(644,833,o),
(642,834,c),
(591,773,o),
(536,713,o),
(490,647,cs),
(346,440,o),
(179,249,o),
(26,48,cs),
(21,41,o),
(-13,1,o),
(-19,-6,c),
(-17,-7,o),
(-7,-16,o),
(-6,-17,cs),
(-3,-19,o),
(0,-15,o),
(2,-12,cs)
);
},
{
closed = 1;
nodes = (
(231,515,o),
(239,590,o),
(240,603,cs),
(241,625,o),
(248,739,o),
(247,762,cs),
(247,763,o),
(246,768,o),
(245,769,cs),
(239,773,o),
(231,784,o),
(225,781,cs),
(208,773,o),
(151,715,o),
(137,703,cs),
(116,683,o),
(20,565,o),
(1,543,c),
(3,541,o),
(13,533,o),
(15,531,c),
(27,542,o),
(91,603,o),
(105,613,c),
(103,533,o),
(97,454,o),
(90,374,c),
(89,372,o),
(88,362,o),
(89,360,cs),
(90,357,o),
(100,350,o),
(103,348,c),
(146,399,o),
(189,450,o),
(231,501,c)
);
},
{
closed = 1;
nodes = (
(571,73,o),
(603,79,o),
(630,96,cs),
(637,101,o),
(643,107,o),
(648,114,cs),
(690,163,o),
(731,212,o),
(772,261,cs),
(785,276,o),
(791,297,o),
(792,316,cs),
(792,323,o),
(783,328,o),
(777,332,c),
(753,303,o),
(728,273,o),
(703,243,c),
(685,238,o),
(665,236,o),
(646,235,cs),
(602,235,o),
(558,240,o),
(515,246,c),
(534,268,o),
(642,397,o),
(660,419,cs),
(672,435,o),
(683,451,o),
(692,469,cs),
(697,481,o),
(701,496,o),
(697,508,cs),
(694,518,o),
(676,534,o),
(666,537,cs),
(654,542,o),
(641,542,o),
(629,542,cs),
(586,539,o),
(544,522,o),
(508,499,cs),
(502,495,o),
(496,490,o),
(491,485,cs),
(449,434,o),
(406,383,o),
(363,332,c),
(363,332,o),
(363,330,o),
(363,329,cs),
(364,321,o),
(373,316,o),
(379,311,c),
(382,316,o),
(399,337,o),
(403,341,cs),
(407,344,o),
(428,353,o),
(432,355,cs),
(467,371,o),
(508,382,o),
(545,374,c),
(548,374,o),
(552,372,o),
(554,369,c),
(559,357,o),
(555,342,o),
(550,330,c),
(537,318,o),
(465,255,o),
(453,242,cs),
(412,192,o),
(371,143,o),
(329,94,c),
(331,91,o),
(341,83,o),
(344,80,c),
(354,82,o),
(363,86,o),
(373,85,cs),
(429,80,o),
(484,68,o),
(539,71,cs)
);
}
);
width = 777;
}
);
note = onehalf;
unicode = 189;
},
{
glyphname = threequarters;
kernLeft = threequarters;
layers = (
{
layerId = m01;
shapes = (
{
closed = 1;
nodes = (
(307,190,o),
(350,251,o),
(390,314,cs),
(430,377,o),
(468,442,o),
(511,503,cs),
(543,549,o),
(727,806,o),
(763,849,c),
(761,850,o),
(751,859,o),
(749,860,c),
(729,838,o),
(617,705,o),
(599,681,cs),
(568,641,o),
(397,401,o),
(368,360,cs),
(313,283,o),
(267,200,o),
(214,122,cs),
(192,88,o),
(168,55,o),
(144,23,cs),
(128,1,o),
(110,-20,o),
(92,-41,c),
(92,-41,o),
(92,-42,o),
(92,-43,c),
(94,-44,o),
(104,-53,o),
(106,-54,c),
(125,-31,o),
(242,107,o),
(261,131,cs)
);
},
{
closed = 1;
nodes = (
(232,288,o),
(251,297,o),
(263,312,cs),
(307,364,o),
(351,417,o),
(395,469,cs),
(414,491,o),
(421,522,o),
(428,550,cs),
(431,562,o),
(437,590,o),
(429,600,cs),
(426,604,o),
(407,619,o),
(402,622,cs),
(390,628,o),
(378,634,o),
(366,640,cs),
(351,646,o),
(334,647,o),
(319,645,c),
(346,681,o),
(372,718,o),
(394,758,cs),
(396,762,o),
(407,782,o),
(409,785,c),
(408,787,o),
(397,796,o),
(396,797,c),
(392,793,o),
(389,789,o),
(385,785,c),
(384,783,o),
(382,787,o),
(381,786,c),
(320,776,o),
(257,779,o),
(197,792,c),
(195,793,o),
(193,796,o),
(191,793,cs),
(148,742,o),
(106,692,o),
(63,641,c),
(66,638,o),
(76,629,o),
(80,628,cs),
(83,627,o),
(104,623,o),
(108,623,c),
(156,614,o),
(205,614,o),
(253,620,c),
(228,573,o),
(197,530,o),
(165,488,cs),
(164,487,o),
(165,486,o),
(164,485,c),
(167,483,o),
(175,474,o),
(178,474,cs),
(182,473,o),
(196,479,o),
(200,480,cs),
(217,483,o),
(236,482,o),
(251,475,cs),
(264,469,o),
(276,463,o),
(288,457,c),
(292,454,o),
(291,444,o),
(291,440,c),
(246,434,o),
(195,438,o),
(157,463,cs),
(149,468,o),
(140,492,o),
(138,502,cs),
(133,521,o),
(132,541,o),
(132,561,c),
(128,565,o),
(123,569,o),
(119,573,c),
(76,522,o),
(33,471,o),
(-10,420,c),
(-10,393,o),
(-9,364,o),
(3,339,cs),
(9,325,o),
(22,314,o),
(34,305,cs),
(51,291,o),
(72,283,o),
(94,278,cs),
(133,269,o),
(175,271,o),
(214,282,cs)
);
},
{
closed = 1;
nodes = (
(798,176,o),
(797,213,o),
(797,220,cs),
(796,255,o),
(798,290,o),
(799,324,c),
(819,348,o),
(839,371,o),
(858,395,c),
(856,396,o),
(846,405,o),
(844,406,c),
(833,392,o),
(819,378,o),
(802,372,c),
(805,431,o),
(805,490,o),
(810,549,cs),
(814,599,o),
(819,650,o),
(822,701,cs),
(823,714,o),
(822,728,o),
(823,741,cs),
(823,743,o),
(826,744,o),
(825,745,cs),
(822,747,o),
(812,756,o),
(810,757,c),
(767,706,o),
(724,655,o),
(681,604,c),
(680,602,o),
(680,597,o),
(680,595,cs),
(682,566,o),
(667,411,o),
(665,382,c),
(647,380,o),
(629,376,o),
(611,369,c),
(630,422,o),
(643,479,o),
(646,535,cs),
(646,537,o),
(646,543,o),
(646,545,c),
(647,546,o),
(651,548,o),
(649,549,c),
(648,551,o),
(638,559,o),
(636,560,cs),
(635,561,o),
(634,560,o),
(633,559,cs),
(590,508,o),
(548,457,o),
(505,406,cs),
(503,404,o),
(503,395,o),
(503,392,cs),
(501,340,o),
(490,287,o),
(472,238,cs),
(471,234,o),
(465,220,o),
(466,216,cs),
(467,212,o),
(478,204,o),
(481,202,cs),
(482,201,o),
(484,201,o),
(485,201,cs),
(499,204,o),
(512,211,o),
(526,214,cs),
(553,219,o),
(582,220,o),
(610,215,cs),
(626,212,o),
(642,206,o),
(658,205,c),
(656,166,o),
(653,127,o),
(654,88,cs),
(654,70,o),
(655,52,o),
(656,35,cs),
(656,33,o),
(654,29,o),
(656,28,c),
(657,26,o),
(668,18,o),
(669,16,c),
(712,68,o),
(755,119,o),
(798,170,c)
);
}
);
width = 855;
}
);
note = threequarters;
unicode = 190;
},
{
glyphname = multiply;
layers = (
{
layerId = m01;
shapes = (
{
closed = 1;
nodes = (
(48,81,o),
(213,276,o),
(239,308,c),
(269,276,o),
(300,245,o),
(333,217,cs),
(363,192,o),
(395,166,o),
(429,147,cs),
(455,132,o),
(485,120,o),
(515,121,cs),
(522,121,o),
(539,121,o),
(544,126,cs),
(586,177,o),
(629,228,o),
(672,279,c),
(670,280,o),
(660,289,o),
(658,290,c),
(647,283,o),
(614,285,o),
(601,289,cs),
(562,298,o),
(526,321,o),
(493,345,cs),
(445,381,o),
(404,425,o),
(364,469,c),
(388,501,o),
(411,533,o),
(435,565,c),
(439,569,o),
(466,594,o),
(470,598,cs),
(513,649,o),
(555,700,o),
(598,751,c),
(596,752,o),
(586,761,o),
(584,762,c),
(571,750,o),
(557,738,o),
(545,724,cs),
(518,695,o),
(371,520,o),
(346,490,c),
(301,542,o),
(258,596,o),
(213,648,cs),
(198,665,o),
(144,721,o),
(122,729,c),
(79,677,o),
(36,626,o),
(-7,575,c),
(-4,573,o),
(6,564,o),
(9,563,cs),
(13,561,o),
(26,553,o),
(29,550,cs),
(44,536,o),
(58,521,o),
(71,506,cs),
(122,447,o),
(170,386,o),
(222,328,c),
(192,287,o),
(162,247,o),
(131,208,c),
(130,208,o),
(130,209,o),
(129,208,cs),
(111,188,o),
(8,64,o),
(-10,43,cs),
(-15,37,o),
(-4,32,o),
(2,27,c),
(6,30,o),
(19,46,o),
(22,49,cs)
);
}
);
width = 655;
}
);
note = multiply;
unicode = 215;
},
{
glyphname = divide;
layers = (
{
layerId = m01;
shapes = (
{
closed = 1;
nodes = (
(443,649,o),
(418,689,o),
(412,699,cs),
(400,718,o),
(389,737,o),
(379,757,cs),
(378,759,o),
(386,764,o),
(384,765,c),
(382,767,o),
(374,776,o),
(371,776,cs),
(368,776,o),
(364,773,o),
(362,771,cs),
(320,721,o),
(277,670,o),
(234,619,c),
(240,606,o),
(280,539,o),
(287,527,cs),
(293,517,o),
(300,507,o),
(302,496,cs),
(303,492,o),
(313,486,o),
(316,484,c),
(359,535,o),
(402,586,o),
(445,637,c)
);
},
{
closed = 1;
nodes = (
(77,270,o),
(122,274,o),
(167,275,cs),
(218,276,o),
(515,270,o),
(566,268,cs),
(585,268,o),
(603,266,o),
(621,268,cs),
(624,268,o),
(633,270,o),
(635,273,cs),
(678,324,o),
(720,374,o),
(763,425,c),
(761,427,o),
(751,435,o),
(749,437,c),
(735,431,o),
(719,432,o),
(703,432,cs),
(623,435,o),
(543,435,o),
(463,437,cs),
(383,439,o),
(303,442,o),
(223,437,cs),
(211,436,o),
(143,430,o),
(131,430,cs),
(129,430,o),
(124,435,o),
(123,435,cs),
(120,435,o),
(112,435,o),
(110,433,cs),
(67,382,o),
(25,331,o),
(-18,280,c),
(-16,279,o),
(-6,270,o),
(-5,269,cs),
(2,264,o),
(24,265,o),
(33,266,cs)
);
},
{
closed = 1;
nodes = (
(454,81,o),
(448,86,o),
(442,90,cs),
(419,107,o),
(362,184,o),
(350,210,cs),
(349,213,o),
(339,220,o),
(336,222,c),
(293,171,o),
(251,120,o),
(208,68,c),
(207,68,o),
(207,61,o),
(208,61,c),
(214,55,o),
(218,48,o),
(223,41,cs),
(252,-1,o),
(285,-42,o),
(325,-74,c),
(327,-75,o),
(331,-79,o),
(332,-77,c),
(375,-26,o),
(418,25,o),
(460,76,c)
);
}
);
width = 745;
}
);
note = divide;
unicode = 247;
},
{
glyphname = florin;
kernLeft = florin;
kernRight = florin;
layers = (
{
layerId = m01;
shapes = (
{
closed = 1;
nodes = (
(172,-166,o),
(179,-161,o),
(184,-155,cs),
(200,-136,o),
(298,-19,o),
(314,0,cs),
(320,8,o),
(325,17,o),
(328,27,cs),
(352,92,o),
(355,164,o),
(356,234,c),
(378,229,o),
(401,222,o),
(422,214,c),
(465,265,o),
(508,316,o),
(551,367,c),
(549,369,o),
(539,377,o),
(537,378,cs),
(508,396,o),
(383,415,o),
(349,418,c),
(346,461,o),
(341,503,o),
(342,546,cs),
(343,563,o),
(345,581,o),
(350,598,c),
(367,613,o),
(415,655,o),
(437,654,c),
(437,654,o),
(438,654,o),
(438,654,c),
(481,705,o),
(524,756,o),
(567,808,c),
(565,809,o),
(555,817,o),
(554,819,c),
(552,820,o),
(548,819,o),
(546,819,c),
(540,817,o),
(534,814,o),
(528,811,cs),
(500,798,o),
(408,714,o),
(387,692,cs),
(368,671,o),
(263,545,o),
(245,523,cs),
(232,508,o),
(220,491,o),
(213,472,cs),
(205,454,o),
(201,434,o),
(200,415,c),
(184,413,o),
(167,409,o),
(152,404,cs),
(148,403,o),
(130,395,o),
(127,394,cs),
(125,393,o),
(123,393,o),
(122,392,cs),
(79,341,o),
(36,290,o),
(-6,239,c),
(-4,237,o),
(4,228,o),
(7,227,c),
(10,227,o),
(17,231,o),
(19,232,cs),
(77,256,o),
(145,258,o),
(208,255,c),
(214,172,o),
(216,88,o),
(210,5,c),
(184,12,o),
(159,20,o),
(135,30,cs),
(129,33,o),
(124,36,o),
(120,40,c),
(77,-11,o),
(34,-62,o),
(-9,-113,c),
(0,-122,o),
(10,-130,o),
(21,-135,cs),
(49,-147,o),
(135,-176,o),
(165,-168,cs)
);
}
);
width = 545;
}
);
note = florin;
unicode = 402;
},
{
glyphname = endash;
kernLeft = endash;
layers = (
{
layerId = m01;
shapes = (
{
closed = 1;
nodes = (
(77,267,o),
(121,287,o),
(168,296,cs),
(202,303,o),
(238,300,o),
(273,296,cs),
(326,291,o),
(628,249,o),
(681,247,cs),
(698,246,o),
(716,247,o),
(732,252,cs),
(739,254,o),
(760,264,o),
(765,270,cs),
(807,321,o),
(850,371,o),
(893,422,c),
(891,424,o),
(880,432,o),
(879,434,c),
(867,426,o),
(854,418,o),
(840,415,cs),
(817,409,o),
(794,411,o),
(772,413,cs),
(635,425,o),
(500,451,o),
(364,463,cs),
(333,466,o),
(300,465,o),
(270,458,cs),
(226,447,o),
(183,430,o),
(139,418,c),
(137,417,o),
(131,416,o),
(130,415,cs),
(87,364,o),
(45,313,o),
(2,262,c),
(3,262,o),
(2,260,o),
(3,260,c),
(9,255,o),
(15,248,o),
(22,247,cs),
(25,246,o),
(29,254,o),
(31,255,c)
);
}
);
width = 899;
}
);
note = endash;
unicode = 8211;
},
{
glyphname = emdash;
kernLeft = emdash;
kernRight = emdash;
layers = (
{
layerId = m01;
shapes = (
{
closed = 1;
nodes = (
(170,332,o),
(261,335,o),
(350,329,cs),
(401,325,o),
(452,319,o),
(504,313,cs),
(606,303,o),
(710,299,o),
(814,298,cs),
(854,298,o),
(894,300,o),
(934,306,c),
(977,357,o),
(1020,408,o),
(1062,460,c),
(1059,462,o),
(1052,472,o),
(1048,471,cs),
(977,460,o),
(905,463,o),
(833,465,cs),
(782,467,o),
(731,469,o),
(680,473,cs),
(603,478,o),
(526,490,o),
(449,494,cs),
(370,499,o),
(288,496,o),
(211,478,cs),
(187,472,o),
(165,465,o),
(141,460,c),
(138,461,o),
(133,461,o),
(131,459,cs),
(88,408,o),
(46,357,o),
(3,306,c),
(6,303,o),
(15,294,o),
(20,294,cs),
(30,294,o),
(74,307,o),
(83,310,cs)
);
}
);
width = 1068;
}
);
note = emdash;
unicode = 8212;
},
{
glyphname = quoteleft;
kernLeft = quoteleft;
kernRight = quoteleft;
layers = (
{
layerId = m01;
shapes = (
{
closed = 1;
nodes = (
(136,481,o),
(140,490,o),
(141,492,cs),
(150,508,o),
(160,523,o),
(168,540,cs),
(183,570,o),
(195,602,o),
(208,634,cs),
(227,683,o),
(248,732,o),
(261,783,c),
(261,785,o),
(267,789,o),
(265,791,c),
(264,794,o),
(252,803,o),
(250,805,c),
(207,754,o),
(164,703,o),
(121,652,cs),
(120,651,o),
(119,644,o),
(118,642,c),
(112,614,o),
(102,586,o),
(91,559,cs),
(70,505,o),
(51,450,o),
(26,398,cs),
(22,390,o),
(-4,345,o),
(-8,338,c),
(-6,336,o),
(4,328,o),
(6,326,c),
(49,377,o),
(92,428,o),
(134,479,cs)
);
}
);
width = 225;
}
);
note = quoteleft;
unicode = 8216;
},
{
glyphname = quoteright;
kernLeft = quoteleft;
kernRight = quoteleft;
layers = (
{
layerId = m01;
shapes = (
{
closed = 1;
nodes = (
(143,481,o),
(157,514,o),
(160,521,cs),
(197,603,o),
(227,688,o),
(246,776,cs),
(249,790,o),
(248,807,o),
(258,818,c),
(258,818,o),
(257,819,o),
(257,819,c),
(251,824,o),
(246,833,o),
(241,827,cs),
(198,777,o),
(156,726,o),
(113,675,cs),
(111,672,o),
(110,669,o),
(109,665,cs),
(87,551,o),
(49,439,o),
(-3,336,cs),
(-4,334,o),
(-7,332,o),
(-6,331,cs),
(-4,330,o),
(6,321,o),
(8,320,c),
(51,371,o),
(94,423,o),
(138,475,cs)
);
}
);
width = 222;
}
);
note = quoteright;
unicode = 8217;
},
{
glyphname = quotedblleft;
kernLeft = quotedblleft;
kernRight = quotedblleft;
layers = (
{
layerId = m01;
shapes = (
{
closed = 1;
nodes = (
(343,511,o),
(367,556,o),
(372,566,cs),
(406,639,o),
(425,719,o),
(443,797,c),
(443,801,o),
(452,806,o),
(450,808,cs),
(448,810,o),
(436,821,o),
(433,822,c),
(390,771,o),
(348,720,o),
(305,669,cs),
(300,663,o),
(296,634,o),
(294,626,cs),
(275,534,o),
(245,440,o),
(193,361,c),
(195,359,o),
(205,351,o),
(207,349,c),
(250,400,o),
(293,451,o),
(336,502,cs)
);
},
{
closed = 1;
nodes = (
(155,471,o),
(163,488,o),
(170,504,cs),
(193,552,o),
(212,602,o),
(228,653,cs),
(240,689,o),
(251,725,o),
(259,762,c),
(266,770,o),
(273,779,o),
(280,787,c),
(278,789,o),
(268,797,o),
(266,799,c),
(264,799,o),
(254,802,o),
(252,802,c),
(251,803,o),
(249,802,o),
(248,801,cs),
(206,750,o),
(163,700,o),
(121,649,cs),
(119,646,o),
(119,636,o),
(119,633,c),
(109,578,o),
(91,525,o),
(73,472,cs),
(64,447,o),
(25,346,o),
(8,326,cs),
(2,319,o),
(-4,312,o),
(-10,304,c),
(-8,303,o),
(2,294,o),
(4,293,c),
(24,313,o),
(125,436,o),
(143,458,cs)
);
}
);
width = 411;
}
);
note = quotedblleft;
unicode = 8220;
},
{
glyphname = quotedblright;
kernRight = quotedblright;
layers = (
{
layerId = m01;
shapes = (
{
closed = 1;
nodes = (
(276,433,o),
(319,483,o),
(361,534,cs),
(366,540,o),
(370,546,o),
(373,553,cs),
(386,584,o),
(396,616,o),
(405,649,cs),
(417,694,o),
(426,741,o),
(430,787,cs),
(431,798,o),
(432,808,o),
(431,818,cs),
(431,822,o),
(421,828,o),
(417,831,c),
(374,779,o),
(332,728,o),
(289,677,c),
(289,666,o),
(289,656,o),
(288,645,cs),
(280,573,o),
(264,501,o),
(239,433,c),
(238,428,o),
(230,408,o),
(226,404,cs),
(220,396,o),
(213,388,o),
(206,380,c),
(211,376,o),
(215,373,o),
(220,369,c),
(225,373,o),
(229,377,o),
(233,382,cs)
);
},
{
closed = 1;
nodes = (
(149,511,o),
(153,518,o),
(153,519,c),
(196,590,o),
(221,676,o),
(223,759,cs),
(223,769,o),
(223,779,o),
(223,789,c),
(223,789,o),
(225,791,o),
(225,792,c),
(222,793,o),
(209,805,o),
(207,807,c),
(164,756,o),
(121,704,o),
(78,653,cs),
(77,652,o),
(80,650,o),
(80,649,cs),
(82,635,o),
(77,572,o),
(75,558,cs),
(66,492,o),
(42,426,o),
(6,370,c),
(6,368,o),
(0,362,o),
(1,362,c),
(3,361,o),
(13,352,o),
(14,351,c),
(31,370,o),
(132,490,o),
(148,510,cs)
);
}
);
width = 420;
}
);
note = quotedblright;
unicode = 8221;
},
{
glyphname = dagger;
layers = (
{
layerId = m01;
shapes = (
{
closed = 1;
nodes = (
(343,21,o),
(343,55,o),
(344,62,c),
(345,144,o),
(346,227,o),
(343,309,cs),
(341,368,o),
(338,428,o),
(335,487,c),
(345,487,o),
(394,488,o),
(404,486,cs),
(416,483,o),
(427,478,o),
(438,472,c),
(481,524,o),
(524,575,o),
(566,626,c),
(552,638,o),
(534,649,o),
(514,651,cs),
(454,656,o),
(393,650,o),
(334,642,c),
(334,674,o),
(338,843,o),
(343,875,cs),
(343,878,o),
(352,886,o),
(355,889,c),
(353,890,o),
(343,899,o),
(341,900,c),
(338,903,o),
(334,899,o),
(331,896,cs),
(289,845,o),
(246,794,o),
(203,744,c),
(202,742,o),
(201,736,o),
(201,734,cs),
(199,720,o),
(195,643,o),
(194,628,c),
(170,627,o),
(147,628,o),
(123,627,c),
(120,626,o),
(112,625,o),
(110,623,cs),
(67,572,o),
(25,521,o),
(-18,471,c),
(-12,466,o),
(-7,459,o),
(0,457,c),
(1,456,o),
(3,461,o),
(4,461,cs),
(10,462,o),
(44,463,o),
(51,463,cs),
(98,463,o),
(144,468,o),
(191,474,c),
(191,358,o),
(199,241,o),
(202,125,cs),
(203,42,o),
(203,-41,o),
(200,-124,cs),
(200,-131,o),
(208,-135,o),
(213,-139,c),
(256,-88,o),
(299,-37,o),
(342,14,c)
);
}
);
width = 547;
}
);
note = dagger;
unicode = 8224;
},
{
glyphname = daggerdbl;
layers = (
{
layerId = m01;
shapes = (
{
closed = 1;
nodes = (
(453,-19,o),
(456,0,o),
(456,6,cs),
(458,34,o),
(459,62,o),
(460,90,c),
(496,87,o),
(533,88,o),
(567,95,cs),
(589,100,o),
(610,107,o),
(628,120,cs),
(636,125,o),
(642,132,o),
(648,139,cs),
(689,188,o),
(731,238,o),
(772,287,cs),
(781,297,o),
(785,311,o),
(789,324,c),
(788,325,o),
(777,334,o),
(776,336,c),
(758,315,o),
(741,294,o),
(724,274,c),
(694,260,o),
(661,255,o),
(629,253,cs),
(575,251,o),
(520,260,o),
(467,274,c),
(468,310,o),
(468,345,o),
(468,380,c),
(508,376,o),
(549,385,o),
(586,400,cs),
(603,407,o),
(619,413,o),
(634,423,cs),
(637,425,o),
(652,436,o),
(655,439,cs),
(697,490,o),
(740,541,o),
(782,591,c),
(781,593,o),
(770,602,o),
(769,603,c),
(737,576,o),
(696,561,o),
(655,551,cs),
(629,544,o),
(601,542,o),
(574,545,cs),
(538,549,o),
(503,560,o),
(468,571,c),
(468,604,o),
(467,801,o),
(468,834,c),
(469,838,o),
(469,843,o),
(472,846,c),
(470,847,o),
(460,856,o),
(458,858,c),
(415,807,o),
(372,755,o),
(329,704,cs),
(325,699,o),
(326,692,o),
(326,685,cs),
(325,675,o),
(325,613,o),
(325,602,c),
(296,604,o),
(266,601,o),
(238,594,cs),
(208,586,o),
(175,578,o),
(156,555,cs),
(113,504,o),
(71,453,o),
(28,402,cs),
(23,397,o),
(20,390,o),
(18,384,c),
(19,382,o),
(30,374,o),
(32,372,c),
(35,377,o),
(55,402,o),
(60,406,cs),
(65,410,o),
(89,419,o),
(95,421,cs),
(132,433,o),
(171,440,o),
(209,438,cs),
(249,436,o),
(288,426,o),
(326,415,c),
(326,380,o),
(326,344,o),
(326,309,c),
(272,317,o),
(214,311,o),
(161,294,cs),
(152,291,o),
(121,280,o),
(115,272,cs),
(72,221,o),
(30,170,o),
(-13,120,c),
(-10,117,o),
(-7,115,o),
(-4,112,cs),
(-2,110,o),
(0,108,o),
(3,109,c),
(26,125,o),
(53,132,o),
(80,138,cs),
(113,146,o),
(147,150,o),
(181,148,cs),
(230,145,o),
(277,131,o),
(324,117,c),
(323,82,o),
(315,-122,o),
(312,-157,cs),
(312,-159,o),
(311,-164,o),
(313,-166,c),
(315,-167,o),
(325,-176,o),
(326,-177,c),
(369,-126,o),
(412,-75,o),
(455,-24,c)
);
}
);
width = 782;
}
);
note = daggerdbl;
unicode = 8225;
},
{
glyphname = bullet;
kernRight = bullet;
layers = (
{
layerId = m01;
shapes = (
{
closed = 1;
nodes = (
(363,563,o),
(361,569,o),
(361,569,c),
(359,571,o),
(348,578,o),
(346,581,cs),
(329,602,o),
(315,626,o),
(302,650,cs),
(298,658,o),
(294,666,o),
(291,675,c),
(290,676,o),
(289,681,o),
(289,683,c),
(289,683,o),
(291,685,o),
(291,685,c),
(289,686,o),
(279,695,o),
(278,696,cs),
(277,697,o),
(276,695,o),
(275,694,cs),
(232,644,o),
(190,593,o),
(147,542,c),
(146,532,o),
(162,504,o),
(167,495,cs),
(185,464,o),
(205,431,o),
(234,410,c),
(277,461,o),
(320,512,o),
(363,563,c)
);
},
{
closed = 1;
nodes = (
(213,368,o),
(211,371,o),
(209,374,cs),
(183,411,o),
(163,451,o),
(136,486,c),
(135,488,o),
(142,493,o),
(140,494,c),
(134,500,o),
(125,511,o),
(120,504,cs),
(77,453,o),
(34,402,o),
(-8,351,cs),
(-11,348,o),
(-4,341,o),
(-1,337,cs),
(23,304,o),
(43,267,o),
(66,232,cs),
(72,224,o),
(80,219,o),
(88,212,c),
(131,263,o),
(174,314,o),
(216,366,c)
);
}
);
width = 353;
}
);
note = bullet;
unicode = 8226;
},
{
glyphname = ellipsis;
kernLeft = ellipsis;
layers = (
{
layerId = m01;
shapes = (
{
closed = 1;
nodes = (
(571,-129,o),
(587,-117,o),
(598,-104,cs),
(641,-53,o),
(683,-2,o),
(726,49,cs),
(754,83,o),
(769,131,o),
(767,175,cs),
(767,193,o),
(763,212,o),
(755,229,cs),
(744,254,o),
(725,275,o),
(704,293,cs),
(698,299,o),
(674,319,o),
(665,321,cs),
(661,322,o),
(647,321,o),
(643,319,cs),
(632,313,o),
(600,275,o),
(592,266,cs),
(573,246,o),
(470,122,o),
(452,101,cs),
(424,68,o),
(396,32,o),
(383,-10,cs),
(376,-34,o),
(377,-62,o),
(388,-84,cs),
(395,-99,o),
(408,-110,o),
(421,-120,cs),
(437,-133,o),
(458,-139,o),
(478,-142,cs),
(503,-145,o),
(531,-144,o),
(555,-135,cs)
);
},
{
closed = 1;
nodes = (
(925,-162,o),
(956,-144,o),
(976,-120,cs),
(992,-100,o),
(1095,21,o),
(1111,42,cs),
(1161,103,o),
(1154,206,o),
(1097,261,c),
(1094,265,o),
(1075,281,o),
(1070,284,cs),
(1054,295,o),
(1035,303,o),
(1018,313,c),
(1005,298,o),
(993,283,o),
(979,269,cs),
(958,247,o),
(850,117,o),
(831,94,cs),
(820,81,o),
(770,14,o),
(762,-1,cs),
(750,-24,o),
(743,-53,o),
(748,-78,cs),
(753,-103,o),
(773,-123,o),
(794,-138,cs),
(822,-158,o),
(860,-170,o),
(895,-166,cs)
);
},
{
closed = 1;
nodes = (
(172,-142,o),
(200,-122,o),
(221,-98,cs),
(264,-47,o),
(307,4,o),
(349,55,cs),
(380,92,o),
(391,152,o),
(375,199,cs),
(365,228,o),
(312,273,o),
(282,282,cs),
(262,288,o),
(238,284,o),
(220,274,c),
(209,260,o),
(197,246,o),
(186,232,c),
(176,227,o),
(139,204,o),
(133,196,cs),
(90,145,o),
(47,95,o),
(5,44,cs),
(-3,35,o),
(-5,22,o),
(-6,11,cs),
(-10,-18,o),
(-7,-49,o),
(7,-74,cs),
(21,-100,o),
(41,-122,o),
(64,-140,cs),
(74,-149,o),
(87,-158,o),
(100,-160,cs),
(114,-163,o),
(129,-159,o),
(142,-154,cs)
);
},
{
closed = 1;
nodes = (
(531,53,o),
(524,68,o),
(522,83,cs),
(519,107,o),
(524,132,o),
(534,154,cs),
(535,157,o),
(543,155,o),
(545,156,cs),
(548,158,o),
(554,155,o),
(556,154,cs),
(577,144,o),
(611,97,o),
(618,75,cs),
(623,58,o),
(626,39,o),
(625,21,c),
(605,21,o),
(555,26,o),
(541,41,cs)
);
},
{
closed = 1;
nodes = (
(910,26,o),
(903,34,o),
(902,37,c),
(894,48,o),
(890,62,o),
(889,76,cs),
(888,100,o),
(895,125,o),
(907,146,c),
(923,136,o),
(941,129,o),
(957,118,cs),
(963,114,o),
(978,92,o),
(981,86,cs),
(995,59,o),
(1002,28,o),
(1001,-1,c),
(970,-3,o),
(937,6,o),
(912,24,cs)
);
},
{
closed = 1;
nodes = (
(181,22,o),
(174,31,o),
(167,40,cs),
(149,62,o),
(136,91,o),
(135,119,c),
(157,123,o),
(181,114,o),
(200,101,cs),
(209,94,o),
(217,85,o),
(223,76,cs),
(237,56,o),
(241,29,o),
(239,6,c),
(220,1,o),
(206,4,o),
(190,16,cs)
);
}
);
width = 1158;
}
);
note = ellipsis;
unicode = 8230;
},
{
glyphname = perthousand;
layers = (
{
layerId = m01;
shapes = (
{
closed = 1;
nodes = (
(164,75,o),
(253,152,o),
(337,235,cs),
(391,289,o),
(713,620,o),
(765,675,cs),
(785,695,o),
(886,817,o),
(904,838,c),
(902,840,o),
(892,849,o),
(890,850,c),
(828,782,o),
(458,405,o),
(391,341,cs),
(332,285,o),
(271,230,o),
(215,170,cs),
(204,158,o),
(145,93,o),
(132,83,cs),
(131,82,o),
(132,82,o),
(131,81,cs),
(88,30,o),
(46,-20,o),
(3,-71,c),
(5,-73,o),
(15,-81,o),
(17,-83,c),
(27,-74,o),
(75,-22,o),
(84,-12,cs)
);
},
{
closed = 1;
nodes = (
(212,341,o),
(238,362,o),
(259,386,cs),
(275,406,o),
(378,528,o),
(394,548,cs),
(428,588,o),
(451,638,o),
(464,689,cs),
(468,708,o),
(472,729,o),
(467,748,cs),
(463,761,o),
(455,773,o),
(445,781,cs),
(435,790,o),
(424,800,o),
(412,806,cs),
(392,816,o),
(370,822,o),
(347,822,cs),
(320,822,o),
(293,814,o),
(266,807,c),
(262,805,o),
(250,786,o),
(246,785,c),
(222,783,o),
(197,772,o),
(182,754,cs),
(166,734,o),
(66,616,o),
(50,597,cs),
(28,570,o),
(15,535,o),
(8,501,cs),
(-5,445,o),
(15,376,o),
(56,336,cs),
(72,320,o),
(91,303,o),
(113,301,cs),
(138,298,o),
(163,311,o),
(185,324,cs)
);
},
{
closed = 1;
nodes = (
(216,468,o),
(206,471,o),
(199,477,cs),
(196,479,o),
(186,491,o),
(184,494,cs),
(158,529,o),
(143,577,o),
(147,620,cs),
(147,622,o),
(153,620,o),
(154,621,cs),
(162,630,o),
(170,640,o),
(177,649,c),
(200,655,o),
(223,659,o),
(246,656,cs),
(266,654,o),
(286,648,o),
(303,638,cs),
(346,611,o),
(322,537,o),
(302,490,c),
(279,476,o),
(251,462,o),
(225,466,cs)
);
},
{
closed = 1;
nodes = (
(983,-97,o),
(998,-83,o),
(1011,-68,cs),
(1031,-43,o),
(1138,80,o),
(1154,107,cs),
(1179,150,o),
(1191,202,o),
(1194,252,cs),
(1196,283,o),
(1195,315,o),
(1189,345,cs),
(1185,365,o),
(1179,384,o),
(1168,400,cs),
(1157,417,o),
(1141,430,o),
(1124,440,cs),
(1113,446,o),
(1074,458,o),
(1062,457,c),
(1059,453,o),
(1046,437,o),
(1043,435,cs),
(1024,419,o),
(1007,401,o),
(991,383,cs),
(973,361,o),
(872,243,o),
(856,220,cs),
(831,184,o),
(808,145,o),
(795,103,cs),
(780,58,o),
(782,1,o),
(807,-40,cs),
(819,-59,o),
(837,-75,o),
(855,-89,cs),
(873,-103,o),
(896,-113,o),
(919,-115,cs),
(935,-116,o),
(951,-112,o),
(965,-105,cs)
);
},
{
closed = 1;
nodes = (
(579,-51,o),
(605,-35,o),
(623,-13,cs),
(664,36,o),
(705,85,o),
(746,134,cs),
(757,146,o),
(767,159,o),
(773,173,cs),
(782,197,o),
(787,225,o),
(781,250,cs),
(770,302,o),
(735,351,o),
(692,382,cs),
(669,399,o),
(639,409,o),
(610,411,cs),
(602,411,o),
(582,413,o),
(577,407,cs),
(534,356,o),
(492,305,o),
(449,255,c),
(451,253,o),
(456,249,o),
(455,248,cs),
(447,238,o),
(398,180,o),
(390,170,cs),
(371,145,o),
(363,112,o),
(360,81,cs),
(356,32,o),
(364,-22,o),
(389,-65,cs),
(396,-78,o),
(422,-102,o),
(437,-104,cs),
(461,-107,o),
(532,-77,o),
(554,-65,cs)
);
},
{
closed = 1;
nodes = (
(942,101,o),
(926,146,o),
(927,185,cs),
(928,222,o),
(939,258,o),
(956,291,c),
(977,287,o),
(998,282,o),
(1016,271,cs),
(1034,259,o),
(1047,208,o),
(1050,187,cs),
(1055,142,o),
(1052,95,o),
(1043,50,c),
(1018,49,o),
(991,58,o),
(972,75,cs)
);
},
{
closed = 1;
nodes = (
(535,68,o),
(525,87,o),
(523,92,cs),
(501,138,o),
(497,194,o),
(506,245,c),
(535,242,o),
(566,229,o),
(587,208,cs),
(618,176,o),
(640,131,o),
(641,86,c),
(619,76,o),
(597,68,o),
(573,63,cs),
(565,61,o),
(546,60,o),
(539,65,cs)
);
}
);
width = 1203;
}
);
note = perthousand;
unicode = 8240;
},
{
glyphname = guilsinglleft;
layers = (
{
layerId = m01;
shapes = (
{
closed = 1;
nodes = (
(422,21,o),
(434,35,o),
(445,49,cs),
(462,68,o),
(558,181,o),
(573,201,cs),
(589,222,o),
(603,244,o),
(612,269,c),
(611,270,o),
(600,279,o),
(599,280,c),
(569,246,o),
(540,211,o),
(511,176,c),
(499,173,o),
(486,174,o),
(475,178,cs),
(438,191,o),
(407,219,o),
(379,247,cs),
(336,291,o),
(300,341,o),
(257,386,cs),
(220,425,o),
(176,460,o),
(132,492,c),
(160,521,o),
(188,550,o),
(215,579,cs),
(226,590,o),
(285,655,o),
(296,665,cs),
(317,685,o),
(417,807,o),
(436,829,c),
(434,830,o),
(423,839,o),
(422,840,c),
(406,826,o),
(323,737,o),
(309,722,cs),
(284,695,o),
(137,545,o),
(113,517,cs),
(72,467,o),
(31,418,o),
(-11,369,cs),
(-13,366,o),
(-18,361,o),
(-17,358,cs),
(-14,351,o),
(7,335,o),
(13,330,cs),
(44,308,o),
(74,285,o),
(100,259,cs),
(140,220,o),
(174,174,o),
(211,133,cs),
(237,104,o),
(265,78,o),
(294,53,cs),
(314,38,o),
(335,22,o),
(358,14,cs),
(373,9,o),
(391,8,o),
(405,14,cs)
);
}
);
width = 595;
}
);
note = guilsinglleft;
unicode = 8249;
},
{
glyphname = guilsinglright;
kernRight = guilsinglright;
layers = (
{
layerId = m01;
shapes = (
{
closed = 1;
nodes = (
(142,23,o),
(317,238,o),
(351,283,cs),
(390,335,o),
(424,389,o),
(461,442,cs),
(469,453,o),
(480,465,o),
(479,479,cs),
(478,491,o),
(468,503,o),
(458,511,cs),
(416,550,o),
(369,583,o),
(327,621,cs),
(263,677,o),
(203,739,o),
(151,806,cs),
(128,836,o),
(104,866,o),
(84,899,c),
(84,900,o),
(89,904,o),
(89,904,c),
(82,910,o),
(75,916,o),
(68,921,c),
(67,921,o),
(66,921,o),
(66,921,c),
(23,870,o),
(-20,819,o),
(-63,768,c),
(-61,762,o),
(-46,739,o),
(-43,734,cs),
(-2,677,o),
(41,621,o),
(89,570,cs),
(134,522,o),
(184,479,o),
(234,436,cs),
(250,423,o),
(321,369,o),
(332,351,cs),
(335,345,o),
(337,338,o),
(336,331,cs),
(335,324,o),
(331,317,o),
(327,311,cs),
(289,260,o),
(256,206,o),
(219,155,cs),
(208,140,o),
(173,123,o),
(155,125,cs),
(138,126,o),
(124,136,o),
(109,144,c),
(66,93,o),
(24,42,o),
(-19,-9,c),
(-1,-25,o),
(21,-41,o),
(45,-40,cs),
(65,-40,o),
(84,-28,o),
(99,-14,cs)
);
}
);
width = 464;
}
);
note = guilsinglright;
unicode = 8250;
},
{
glyphname = fraction;
layers = (
{
layerId = m01;
shapes = (
{
closed = 1;
nodes = (
(22,17,o),
(64,68,o),
(107,119,c),
(107,119,o),
(106,120,o),
(106,121,c),
(156,179,o),
(195,246,o),
(238,309,cs),
(284,377,o),
(332,443,o),
(382,507,cs),
(387,514,o),
(425,553,o),
(431,560,cs),
(473,611,o),
(516,662,o),
(559,713,c),
(557,714,o),
(546,724,o),
(544,726,c),
(541,725,o),
(530,722,o),
(528,720,cs),
(486,669,o),
(443,618,o),
(400,567,c),
(400,567,o),
(404,565,o),
(403,564,cs),
(328,475,o),
(253,386,o),
(184,292,cs),
(118,203,o),
(59,110,o),
(-4,20,cs),
(-8,14,o),
(-37,-19,o),
(-41,-25,c),
(-39,-26,o),
(-29,-35,o),
(-27,-37,c),
(-26,-37,o),
(-22,-35,o),
(-21,-34,cs)
);
}
);
width = 526;
}
);
note = fraction;
unicode = 8260;
},
{
glyphname = Euro;
layers = (
{
layerId = m01;
shapes = (
{
closed = 1;
nodes = (
(634,-182,o),
(677,-149,o),
(709,-111,cs),
(750,-62,o),
(791,-14,o),
(832,35,cs),
(852,60,o),
(871,87,o),
(884,116,cs),
(888,124,o),
(891,133,o),
(891,143,c),
(887,146,o),
(882,150,o),
(878,154,c),
(835,103,o),
(792,52,o),
(749,1,c),
(748,-1,o),
(748,-10,o),
(747,-11,c),
(724,-24,o),
(699,-33,o),
(673,-32,cs),
(633,-31,o),
(592,-13,o),
(562,14,cs),
(534,39,o),
(510,69,o),
(489,101,c),
(531,101,o),
(572,103,o),
(614,104,c),
(656,155,o),
(699,206,o),
(742,258,c),
(739,260,o),
(731,269,o),
(727,269,cs),
(621,265,o),
(514,267,o),
(407,264,c),
(400,284,o),
(393,303,o),
(387,323,c),
(431,319,o),
(474,313,o),
(518,306,c),
(561,357,o),
(603,408,o),
(646,459,c),
(644,461,o),
(635,470,o),
(632,471,c),
(538,486,o),
(443,497,o),
(349,491,c),
(341,547,o),
(339,606,o),
(353,661,c),
(369,667,o),
(385,672,o),
(402,673,cs),
(434,676,o),
(468,670,o),
(499,660,cs),
(523,653,o),
(548,645,o),
(567,630,cs),
(577,622,o),
(610,579,o),
(617,569,c),
(618,566,o),
(629,558,o),
(631,556,c),
(674,607,o),
(717,658,o),
(760,709,c),
(738,740,o),
(715,771,o),
(684,793,cs),
(653,815,o),
(615,826,o),
(578,834,cs),
(546,840,o),
(512,841,o),
(481,831,cs),
(442,818,o),
(408,789,o),
(381,757,cs),
(340,708,o),
(299,658,o),
(257,609,cs),
(241,590,o),
(228,569,o),
(219,545,cs),
(210,521,o),
(205,494,o),
(202,468,c),
(175,462,o),
(147,454,o),
(122,442,c),
(121,442,o),
(118,445,o),
(118,444,c),
(101,424,o),
(3,309,o),
(-13,287,c),
(-13,287,o),
(-15,286,o),
(-14,285,cs),
(-12,284,o),
(-2,276,o),
(-1,274,cs),
(0,273,o),
(3,275,o),
(4,276,c),
(16,282,o),
(28,287,o),
(41,290,c),
(96,308,o),
(153,318,o),
(210,324,c),
(214,297,o),
(220,270,o),
(227,243,c),
(217,240,o),
(167,222,o),
(157,221,c),
(114,169,o),
(71,118,o),
(29,67,c),
(32,64,o),
(40,55,o),
(44,56,cs),
(55,57,o),
(106,77,o),
(116,80,cs),
(167,95,o),
(221,97,o),
(274,99,c),
(297,43,o),
(325,-11,o),
(360,-59,cs),
(380,-88,o),
(403,-115,o),
(430,-137,cs),
(452,-156,o),
(475,-174,o),
(502,-185,cs),
(528,-195,o),
(559,-201,o),
(586,-194,cs)
);
}
);
width = 873;
}
);
note = Euro;
unicode = 8364;
},
{
glyphname = trademark;
layers = (
{
layerId = m01;
shapes = (
{
closed = 1;
nodes = (
(954,156,o),
(996,207,o),
(1039,258,cs),
(1044,264,o),
(1044,287,o),
(1045,295,cs),
(1048,360,o),
(1046,425,o),
(1043,490,cs),
(1039,586,o),
(1033,682,o),
(1034,778,cs),
(1034,791,o),
(1036,823,o),
(1026,831,cs),
(1024,833,o),
(1012,844,o),
(1008,845,c),
(998,850,o),
(984,845,o),
(974,840,cs),
(948,827,o),
(926,808,o),
(908,787,cs),
(888,764,o),
(778,635,o),
(760,611,c),
(755,640,o),
(748,669,o),
(740,697,cs),
(736,711,o),
(732,724,o),
(725,737,cs),
(719,747,o),
(702,765,o),
(690,765,cs),
(664,767,o),
(627,716,o),
(610,696,cs),
(596,679,o),
(514,582,o),
(501,564,c),
(499,571,o),
(494,599,o),
(491,605,cs),
(489,609,o),
(478,618,o),
(474,620,cs),
(471,622,o),
(469,619,o),
(467,617,cs),
(451,598,o),
(353,481,o),
(337,462,cs),
(326,449,o),
(288,376,o),
(280,360,c),
(266,424,o),
(261,490,o),
(257,556,c),
(268,562,o),
(315,588,o),
(324,598,cs),
(366,649,o),
(409,700,o),
(452,750,c),
(447,754,o),
(442,758,o),
(438,762,c),
(414,744,o),
(387,729,o),
(361,715,cs),
(326,697,o),
(290,681,o),
(251,675,c),
(251,675,o),
(250,677,o),
(249,677,c),
(248,678,o),
(247,674,o),
(246,674,cs),
(208,668,o),
(166,668,o),
(131,682,c),
(130,683,o),
(132,684,o),
(132,684,c),
(125,690,o),
(118,700,o),
(113,694,cs),
(70,643,o),
(28,592,o),
(-15,541,c),
(-15,541,o),
(-15,539,o),
(-15,539,c),
(-8,532,o),
(0,525,o),
(9,521,cs),
(41,506,o),
(79,505,o),
(114,508,c),
(110,486,o),
(116,386,o),
(118,365,cs),
(120,328,o),
(133,202,o),
(155,172,cs),
(157,169,o),
(170,158,o),
(173,156,cs),
(182,148,o),
(194,156,o),
(202,166,cs),
(245,216,o),
(288,267,o),
(330,318,cs),
(345,336,o),
(355,357,o),
(366,378,c),
(370,353,o),
(391,197,o),
(396,172,cs),
(397,168,o),
(407,162,o),
(410,159,c),
(426,178,o),
(524,294,o),
(540,313,c),
(541,322,o),
(545,371,o),
(546,380,cs),
(552,451,o),
(563,522,o),
(585,590,c),
(598,565,o),
(604,536,o),
(610,509,cs),
(628,423,o),
(641,336,o),
(648,248,c),
(649,246,o),
(649,238,o),
(651,236,c),
(652,233,o),
(662,226,o),
(664,224,c),
(707,275,o),
(750,327,o),
(793,378,c),
(794,382,o),
(797,408,o),
(797,413,c),
(808,502,o),
(822,592,o),
(858,674,c),
(868,679,o),
(878,683,o),
(889,682,c),
(894,669,o),
(891,614,o),
(892,601,cs),
(893,520,o),
(897,440,o),
(900,359,cs),
(903,291,o),
(906,222,o),
(902,153,cs),
(902,148,o),
(901,126,o),
(899,121,c),
(897,119,o),
(892,116,o),
(894,114,cs),
(900,109,o),
(906,99,o),
(911,105,cs)
);
}
);
width = 1068;
}
);
note = trademark;
unicode = 8482;
},
{
glyphname = minus;
layers = (
{
layerId = m01;
shapes = (
{
closed = 1;
nodes = (
(187,279,o),
(344,270,o),
(501,280,cs),
(508,281,o),
(529,280,o),
(534,286,cs),
(577,337,o),
(619,388,o),
(662,438,c),
(660,440,o),
(650,449,o),
(648,450,c),
(643,447,o),
(621,445,o),
(615,445,cs),
(460,434,o),
(303,444,o),
(148,440,cs),
(146,440,o),
(142,445,o),
(140,446,c),
(138,446,o),
(134,443,o),
(133,441,c),
(117,422,o),
(21,306,o),
(5,288,c),
(7,286,o),
(17,278,o),
(18,276,c),
(20,275,o),
(27,275,o),
(30,275,cs)
);
}
